<svg width="36" height="37" viewBox="0 0 36 37" fill="none" xmlns="http://www.w3.org/2000/svg">
<g clip-path="url(#clip0_102_2342)">
<path d="M34.3482 6.43605L28.0832 3.82597C27.396 3.53973 26.6078 3.5398 25.9206 3.82604L22.9126 5.07894C22.6438 5.19102 22.5166 5.49969 22.6286 5.76857C22.7406 6.03744 23.0493 6.16471 23.3182 6.05263L26.3262 4.79966C26.7554 4.62079 27.2481 4.62072 27.6777 4.79959L33.9423 7.40952C34.5517 7.6637 34.9455 8.23527 34.9455 8.86548V31.4182C34.9455 32.2952 34.1922 33.0087 33.2664 33.0087H32.4114C32.1201 33.0087 31.8841 33.2447 31.8841 33.536C31.8841 33.8273 32.1201 34.0634 32.4114 34.0634H33.2664C34.7738 34.0634 36.0002 32.8768 36.0002 31.4182V8.86548C36.0002 7.80826 35.3518 6.85469 34.3482 6.43605V6.43605Z" fill="#455A64"/>
<path d="M30.1127 33.0091H21.252C21.6168 32.5944 21.8166 32.0682 21.8166 31.5114C21.8166 30.9557 21.6154 30.4464 21.2825 30.0516C21.4924 29.9445 21.6868 29.8044 21.8583 29.6329C22.2867 29.2044 22.5225 28.6348 22.5225 28.0288C22.5225 27.4511 22.3051 26.9235 21.9483 26.5226C22.125 26.4225 22.2895 26.2985 22.4369 26.151C22.8652 25.7227 23.1011 25.1531 23.1011 24.5469C23.1011 23.9709 22.885 23.4447 22.5302 23.0441C22.7099 22.9433 22.8772 22.8177 23.0273 22.668C23.4553 22.2389 23.691 21.6695 23.691 21.0643C23.691 19.8132 22.6735 18.7953 21.4227 18.7953H19.0581V8.86578C19.0581 8.2355 19.4519 7.66393 20.0609 7.40989L21.0201 7.01052C21.2889 6.89858 21.4161 6.58991 21.3042 6.32096C21.1922 6.05209 20.8835 5.92468 20.6146 6.03683L19.6552 6.43634C18.6517 6.85491 18.0034 7.80856 18.0034 8.86578V18.7954H15.8C16.5337 16.4768 16.4713 14.057 15.615 11.2485C15.4849 10.8231 15.2262 10.4589 14.8665 10.195C14.509 9.9327 14.0853 9.79398 13.6411 9.79398C13.0689 9.79398 12.5369 10.0225 12.1428 10.4374C11.749 10.8523 11.5485 11.3953 11.5781 11.9666C11.743 15.1374 10.2804 16.2288 8.25602 17.7395C7.58953 18.2368 6.86109 18.7808 6.14517 19.4478V18.7566C6.14517 18.4653 5.90913 18.2293 5.61783 18.2293H0.527344C0.236039 18.2293 0 18.4653 0 18.7566V33.7128C0 34.0041 0.236039 34.2402 0.527344 34.2402H5.61797C5.90927 34.2402 6.14531 34.0041 6.14531 33.7128V32.3862C7.14691 32.4814 7.87845 32.681 8.58916 33.2258C9.05576 33.5834 9.63091 33.7803 10.2087 33.7803H19.509C19.8889 33.9655 20.3102 34.0637 20.7372 34.0637H30.1127C30.404 34.0637 30.64 33.8276 30.64 33.5363C30.64 33.245 30.404 33.0091 30.1127 33.0091V33.0091ZM9.23077 32.3886C8.23641 31.6266 7.1737 31.4149 6.14531 31.3261V25.1685C6.14531 24.8772 5.90927 24.6412 5.61797 24.6412C5.32666 24.6412 5.09063 24.8772 5.09063 25.1685V33.1855H1.05469V19.2841H5.09063V22.8708C5.09063 23.1621 5.32666 23.3981 5.61797 23.3981C5.90927 23.3981 6.14531 23.1621 6.14531 22.8708V20.946C7.02745 19.9725 7.97203 19.2676 8.88694 18.5849C10.9126 17.0734 12.8258 15.6456 12.6316 11.9119C12.6171 11.6324 12.7152 11.3667 12.908 11.1637C13.1008 10.9605 13.3612 10.8487 13.6413 10.8487C13.8595 10.8487 14.0674 10.9167 14.2427 11.0454C14.4177 11.1738 14.5435 11.3507 14.6065 11.5566C15.4786 14.4173 15.465 16.8241 14.5635 19.131C14.5001 19.2933 14.521 19.4764 14.6192 19.6203C14.7175 19.7642 14.8804 19.8503 15.0547 19.8503H21.4228C22.092 19.8503 22.6365 20.395 22.6365 21.0646C22.6365 21.3884 22.5101 21.6933 22.2815 21.9225C22.0516 22.1518 21.7467 22.2782 21.4228 22.2782H19.2565C18.9652 22.2782 18.7291 22.5142 18.7291 22.8055C18.7291 23.0968 18.9652 23.3329 19.2565 23.3329H20.8329C21.5021 23.3329 22.0465 23.8776 22.0465 24.5472C22.0465 24.8716 21.9203 25.1764 21.6911 25.4055C21.462 25.6347 21.1572 25.7608 20.8329 25.7608H19.2565C18.9652 25.7608 18.7291 25.9969 18.7291 26.2882C18.7291 26.5795 18.9652 26.8155 19.2565 26.8155H20.2541C20.9234 26.8155 21.4678 27.3599 21.4678 28.0291C21.4678 28.3534 21.3416 28.6583 21.1125 28.8874C20.8829 29.117 20.578 29.2434 20.2541 29.2434H19.5482H18.6777C18.3864 29.2434 18.1504 29.4794 18.1504 29.7707C18.1504 30.062 18.3864 30.2981 18.6777 30.2981H19.5482C20.2174 30.2981 20.7619 30.8425 20.7619 31.5117C20.7619 31.836 20.6355 32.1411 20.407 32.3702C20.1928 32.5839 19.8545 32.7202 19.6013 32.7247C19.5838 32.725 10.2087 32.726 10.2087 32.726C9.86161 32.7256 9.51427 32.606 9.23077 32.3886V32.3886Z" fill="#455A64"/>
<path d="M28.9051 9.09952C28.9051 7.99139 28.0035 7.08984 26.8954 7.08984C25.7873 7.08984 24.8857 7.99139 24.8857 9.09952C24.8857 10.2076 25.7873 11.1092 26.8954 11.1092C28.0035 11.1092 28.9051 10.2076 28.9051 9.09952ZM25.9404 9.09952C25.9404 8.57295 26.3688 8.14453 26.8954 8.14453C27.422 8.14453 27.8504 8.57295 27.8504 9.09952C27.8504 9.62609 27.422 10.0545 26.8954 10.0545C26.3688 10.0545 25.9404 9.62616 25.9404 9.09952Z" fill="#455A64"/>
<path d="M26.5561 17.8008C27.1378 17.8008 27.5816 17.969 27.8878 18.3055C28.0714 18.5052 28.2092 18.7786 28.301 19.1255C28.4031 19.462 28.4541 19.9404 28.4541 20.5607V21.7593H33.75V22.8948H28.4541V27.2476C28.4541 27.7418 28.5153 28.0782 28.6378 28.257C28.7704 28.4357 29.0255 28.5251 29.4031 28.5251C29.8214 28.5251 30.2296 28.4094 30.6276 28.1781C31.0255 27.9363 31.352 27.6261 31.6071 27.2476C31.8724 26.8691 32.0051 26.4696 32.0051 26.049C32.0051 25.5233 31.7143 25.2605 31.1327 25.2605C30.8571 25.2605 30.602 25.292 30.3673 25.3551L30.2143 24.2827C30.3878 24.2301 30.5714 24.1933 30.7653 24.1723C30.9694 24.1407 31.1735 24.125 31.3776 24.125C31.9184 24.125 32.3571 24.2669 32.6939 24.5508C33.0408 24.8241 33.2143 25.271 33.2143 25.8913C33.2143 26.375 33.102 26.8428 32.8776 27.2949C32.6633 27.7365 32.3724 28.1361 32.0051 28.4935C31.6378 28.8405 31.2245 29.1139 30.7653 29.3136C30.3061 29.5134 29.8367 29.6133 29.3571 29.6133C28.9796 29.6133 28.6684 29.5712 28.4235 29.4871C28.1786 29.3925 27.9745 29.2663 27.8112 29.1086C27.6582 28.9614 27.5306 28.7669 27.4286 28.5251C27.3265 28.2833 27.2755 27.8785 27.2755 27.3107V22.8948H25.7908V21.7593H27.2755V20.6238C27.2755 20.0771 27.2143 19.6618 27.0918 19.3779C26.9694 19.0835 26.6786 18.9363 26.2194 18.9363C26.0255 18.9363 25.8316 18.9678 25.6378 19.0309C25.4541 19.0835 25.2959 19.1361 25.1633 19.1886L24.75 18.2108C25.0561 18.0741 25.352 17.9743 25.6378 17.9112C25.9337 17.8376 26.2398 17.8008 26.5561 17.8008Z" fill="#455A64"/>
</g>
<defs>
<clipPath id="clip0_102_2342">
<rect width="36" height="36" fill="white" transform="translate(0 0.925781)"/>
</clipPath>
</defs>
</svg>
