<svg width="88" height="88" viewBox="0 0 88 88" fill="none" xmlns="http://www.w3.org/2000/svg">
<path fill-rule="evenodd" clip-rule="evenodd" d="M39.2099 32.5566C39.4418 32.2089 39.8321 32 40.25 32H47.75C48.1679 32 48.5582 32.2089 48.7901 32.5566L50.919 35.75H55.25C56.2446 35.75 57.1984 36.1451 57.9017 36.8483C58.6049 37.5516 59 38.5054 59 39.5V53.25C59 54.2446 58.6049 55.1984 57.9017 55.9017C57.1984 56.6049 56.2446 57 55.25 57H32.75C31.7554 57 30.8016 56.6049 30.0983 55.9017C29.3951 55.1984 29 54.2446 29 53.25V39.5C29 38.5054 29.3951 37.5516 30.0983 36.8483C30.8016 36.1451 31.7554 35.75 32.75 35.75H37.081L39.2099 32.5566ZM40.919 34.5L38.7901 37.6934C38.5582 38.0411 38.1679 38.25 37.75 38.25H32.75C32.4185 38.25 32.1005 38.3817 31.8661 38.6161C31.6317 38.8505 31.5 39.1685 31.5 39.5V53.25C31.5 53.5815 31.6317 53.8995 31.8661 54.1339C32.1005 54.3683 32.4185 54.5 32.75 54.5H55.25C55.5815 54.5 55.8995 54.3683 56.1339 54.1339C56.3683 53.8995 56.5 53.5815 56.5 53.25V39.5C56.5 39.1685 56.3683 38.8505 56.1339 38.6161C55.8995 38.3817 55.5815 38.25 55.25 38.25H50.25C49.8321 38.25 49.4418 38.0411 49.2099 37.6934L47.081 34.5H40.919Z" fill="#00A4CF"/>
<path fill-rule="evenodd" clip-rule="evenodd" d="M44 42C41.9289 42 40.25 43.6789 40.25 45.75C40.25 47.8211 41.9289 49.5 44 49.5C46.0711 49.5 47.75 47.8211 47.75 45.75C47.75 43.6789 46.0711 42 44 42ZM37.75 45.75C37.75 42.2982 40.5482 39.5 44 39.5C47.4518 39.5 50.25 42.2982 50.25 45.75C50.25 49.2018 47.4518 52 44 52C40.5482 52 37.75 49.2018 37.75 45.75Z" fill="#00A4CF"/>
<rect x="0.5" y="0.5" width="87" height="87" rx="7.5" stroke="#00A4CF" stroke-dasharray="5 5"/>
</svg>
