<svg width="24" height="24" viewBox="0 0 24 24" fill="none" xmlns="http://www.w3.org/2000/svg">
<path d="M23.0488 17.4702H9.90792C9.11741 17.4668 8.35163 17.1943 7.7368 16.6974C7.12197 16.2005 6.6948 15.5089 6.52569 14.7367L3.69831 1.56924H0.951246C0.787376 1.56924 0.630218 1.50414 0.514344 1.38827C0.398471 1.2724 0.333374 1.11524 0.333374 0.951367C0.333374 0.787498 0.398471 0.63034 0.514344 0.514467C0.630218 0.398594 0.787376 0.333496 0.951246 0.333496H4.19817C4.33953 0.333454 4.47664 0.381889 4.58661 0.470719C4.69657 0.559549 4.77276 0.683402 4.80244 0.821615L7.73425 14.4766C7.84309 14.9729 8.11775 15.4173 8.51299 15.7366C8.90822 16.0559 9.40044 16.2311 9.90854 16.2332H23.0488C23.2127 16.2332 23.3699 16.2983 23.4857 16.4141C23.6016 16.53 23.6667 16.6872 23.6667 16.851C23.6667 17.0149 23.6016 17.1721 23.4857 17.288C23.3699 17.4038 23.2127 17.4702 23.0488 17.4702Z" fill="#2E353A"/>
<path d="M20.0219 13.2217H6.6963C6.53243 13.2217 6.37528 13.1566 6.2594 13.0408C6.14353 12.9249 6.07843 12.7677 6.07843 12.6039C6.07843 12.44 6.14353 12.2828 6.2594 12.167C6.37528 12.0511 6.53243 11.986 6.6963 11.986H20.0219C20.3187 11.9876 20.6061 11.8823 20.8316 11.6894C21.0572 11.4966 21.2058 11.229 21.2503 10.9356L22.1913 4.85697H4.90139C4.73752 4.85697 4.58036 4.79187 4.46449 4.676C4.34861 4.56012 4.28351 4.40297 4.28351 4.2391C4.28351 4.07523 4.34861 3.91807 4.46449 3.80219C4.58036 3.68632 4.73752 3.62122 4.90139 3.62122H22.9123C23.0015 3.62124 23.0895 3.64054 23.1705 3.6778C23.2514 3.71505 23.3234 3.76938 23.3814 3.83706C23.4394 3.90473 23.482 3.98415 23.5064 4.06986C23.5309 4.15558 23.5364 4.24556 23.5228 4.33363L22.4724 11.1247C22.3838 11.7102 22.0875 12.2443 21.6376 12.6294C21.1876 13.0144 20.6141 13.2247 20.0219 13.2217Z" fill="#2E353A"/>
<path d="M19.8439 23.5791C19.3447 23.5789 18.8568 23.4308 18.4418 23.1534C18.0268 22.876 17.7034 22.4817 17.5125 22.0205C17.3215 21.5593 17.2716 21.0518 17.3691 20.5623C17.4666 20.0727 17.707 19.623 18.06 19.2701C18.413 18.9172 18.8628 18.6768 19.3524 18.5795C19.8419 18.4822 20.3494 18.5322 20.8106 18.7232C21.2717 18.9143 21.6659 19.2378 21.9432 19.6529C22.2205 20.0679 22.3685 20.5559 22.3685 21.0551C22.3677 21.7243 22.1014 22.3659 21.6281 22.8391C21.1549 23.3123 20.5132 23.5784 19.8439 23.5791ZM19.8439 19.7662C19.5891 19.7663 19.3401 19.842 19.1284 19.9836C18.9166 20.1252 18.7516 20.3265 18.6542 20.5619C18.5568 20.7973 18.5313 21.0563 18.5811 21.3061C18.6309 21.556 18.7536 21.7855 18.9338 21.9656C19.114 22.1457 19.3436 22.2683 19.5934 22.318C19.8433 22.3676 20.1023 22.3421 20.3377 22.2446C20.573 22.1471 20.7742 21.9819 20.9157 21.7701C21.0573 21.5582 21.1328 21.3092 21.1328 21.0544C21.1323 20.7128 20.9963 20.3853 20.7547 20.1438C20.5131 19.9023 20.1855 19.7665 19.8439 19.7662Z" fill="#2E353A"/>
<path d="M11.2234 23.579C10.7242 23.579 10.2362 23.431 9.82116 23.1537C9.40609 22.8763 9.08259 22.4821 8.89155 22.0209C8.70051 21.5597 8.65053 21.0522 8.74792 20.5626C8.84531 20.073 9.0857 19.6233 9.43868 19.2703C9.79167 18.9173 10.2414 18.6769 10.731 18.5795C11.2206 18.4822 11.7281 18.5321 12.1893 18.7232C12.6505 18.9142 13.0447 19.2377 13.322 19.6528C13.5994 20.0679 13.7474 20.5558 13.7474 21.055C13.7466 21.7242 13.4804 22.3657 13.0073 22.8389C12.5341 23.312 11.8926 23.5782 11.2234 23.579ZM11.2234 19.7662C10.9686 19.7662 10.7196 19.8417 10.5077 19.9833C10.2958 20.1248 10.1307 20.326 10.0332 20.5614C9.93572 20.7968 9.91021 21.0559 9.95992 21.3057C10.0096 21.5556 10.1323 21.7852 10.3125 21.9654C10.4926 22.1455 10.7222 22.2682 10.9721 22.3179C11.222 22.3676 11.481 22.3421 11.7164 22.2446C11.9518 22.1471 12.153 21.982 12.2946 21.7701C12.4361 21.5583 12.5117 21.3092 12.5117 21.0544C12.5112 20.7129 12.3753 20.3855 12.1338 20.144C11.8923 19.9025 11.5649 19.7667 11.2234 19.7662Z" fill="#2E353A"/>
</svg>
