<svg width="18" height="18" viewBox="0 0 18 18" fill="none" xmlns="http://www.w3.org/2000/svg">
<path fill-rule="evenodd" clip-rule="evenodd" d="M0.666656 8.09426C0.666656 7.49396 1.1533 7.00732 1.7536 7.00732C4.20395 7.00732 6.55393 7.98071 8.28658 9.71337C10.0192 11.446 10.9926 13.796 10.9926 16.2463C10.9926 16.8467 10.506 17.3333 9.90569 17.3333C9.30539 17.3333 8.81874 16.8467 8.81874 16.2463C8.81874 14.3726 8.07438 12.5755 6.74941 11.2505C5.42444 9.92557 3.62739 9.18121 1.7536 9.18121C1.1533 9.18121 0.666656 8.69456 0.666656 8.09426Z" fill="#00A4CF"/>
<path fill-rule="evenodd" clip-rule="evenodd" d="M0.666656 1.75357C0.666656 1.15327 1.1533 0.666626 1.7536 0.666626C5.88555 0.666626 9.84827 2.30804 12.77 5.22977C15.6917 8.1515 17.3331 12.1142 17.3331 16.2462C17.3331 16.8465 16.8465 17.3331 16.2462 17.3331C15.6459 17.3331 15.1593 16.8465 15.1593 16.2462C15.1593 12.6908 13.7469 9.28099 11.2328 6.76694C8.71878 4.25289 5.309 2.84052 1.7536 2.84052C1.1533 2.84052 0.666656 2.35387 0.666656 1.75357Z" fill="#00A4CF"/>
<path fill-rule="evenodd" clip-rule="evenodd" d="M2.65939 15.5216C2.75944 15.5216 2.84055 15.4405 2.84055 15.3405C2.84055 15.2404 2.75944 15.1593 2.65939 15.1593C2.55934 15.1593 2.47823 15.2404 2.47823 15.3405C2.47823 15.4405 2.55934 15.5216 2.65939 15.5216ZM0.666656 15.3405C0.666656 14.2399 1.55883 13.3477 2.65939 13.3477C3.75994 13.3477 4.65212 14.2399 4.65212 15.3405C4.65212 16.441 3.75994 17.3332 2.65939 17.3332C1.55883 17.3332 0.666656 16.441 0.666656 15.3405Z" fill="#00A4CF"/>
</svg>
