<svg width="18" height="18" viewBox="0 0 18 18" fill="none" xmlns="http://www.w3.org/2000/svg">
<path fill-rule="evenodd" clip-rule="evenodd" d="M17.3333 8.99998C17.3333 9.81216 16.6748 10.4706 15.8627 10.4706L2.13717 10.4706C1.32499 10.4706 0.666585 9.81216 0.666585 8.99998C0.666585 8.18779 1.32499 7.52939 2.13717 7.52939L15.8627 7.52939C16.6748 7.52939 17.3333 8.1878 17.3333 8.99998Z" fill="#455A64"/>
<path fill-rule="evenodd" clip-rule="evenodd" d="M10.0398 16.9026C9.46548 17.4769 8.53436 17.4769 7.96006 16.9026L1.09731 10.0398C0.523011 9.46554 0.523011 8.53442 1.09731 7.96011L7.96006 1.09737C8.53436 0.523071 9.46548 0.523071 10.0398 1.09737C10.6141 1.67167 10.6141 2.6028 10.0398 3.1771L4.2169 8.99998L10.0398 14.8229C10.6141 15.3972 10.6141 16.3283 10.0398 16.9026Z" fill="#455A64"/>
</svg>
