<svg width="22" height="22" viewBox="0 0 22 22" fill="none" xmlns="http://www.w3.org/2000/svg">
<path d="M7.46647 18.6593C6.59143 18.6593 5.87956 19.3712 5.87956 20.2463C5.87956 21.1213 6.59143 21.8332 7.46647 21.8332C8.34152 21.8332 9.05339 21.1213 9.05339 20.2463C9.05339 19.3712 8.34152 18.6593 7.46647 18.6593ZM7.46647 21.1984C6.94148 21.1984 6.51432 20.7713 6.51432 20.2463C6.51432 19.7213 6.94148 19.2941 7.46647 19.2941C7.99147 19.2941 8.41862 19.7213 8.41862 20.2463C8.41862 20.7713 7.99147 21.1984 7.46647 21.1984Z" fill="#455A64"/>
<path d="M7.46647 20.5636C7.64176 20.5636 7.78385 20.4215 7.78385 20.2463C7.78385 20.071 7.64176 19.9289 7.46647 19.9289C7.29119 19.9289 7.14909 20.071 7.14909 20.2463C7.14909 20.4215 7.29119 20.5636 7.46647 20.5636Z" fill="#455A64"/>
<path d="M18.3421 20.5636C18.5174 20.5636 18.6595 20.4215 18.6595 20.2463C18.6595 20.071 18.5174 19.9289 18.3421 19.9289C18.1668 19.9289 18.0247 20.071 18.0247 20.2463C18.0247 20.4215 18.1668 20.5636 18.3421 20.5636Z" fill="#455A64"/>
<path d="M18.3421 18.6593C17.4671 18.6593 16.7552 19.3712 16.7552 20.2463C16.7552 21.1213 17.4671 21.8332 18.3421 21.8332C19.2172 21.8332 19.929 21.1213 19.929 20.2463C19.929 19.3712 19.2172 18.6593 18.3421 18.6593ZM18.3421 21.1984C17.8171 21.1984 17.39 20.7713 17.39 20.2463C17.39 19.7213 17.8171 19.2941 18.3421 19.2941C18.8671 19.2941 19.2943 19.7213 19.2943 20.2463C19.2943 20.7713 18.8671 21.1984 18.3421 21.1984Z" fill="#455A64"/>
<path d="M5.40755 15.5259L7.71776 14.216H12.9043C13.6706 14.216 14.3119 13.6699 14.4593 12.9465H17.7648C18.7805 12.9465 19.6656 12.2592 19.9172 11.2752L21.8234 3.82102C21.8477 3.72602 21.8267 3.62517 21.7666 3.54773C21.7065 3.47029 21.614 3.42497 21.516 3.42497H5.93296L5.7711 2.79211C5.37627 1.2462 3.98525 0.166504 2.38835 0.166504H1.11882C0.593822 0.166504 0.166667 0.593659 0.166667 1.11865C0.166667 1.64365 0.593822 2.0708 1.11882 2.0708H2.38835C3.11439 2.0708 3.7467 2.56126 3.92609 3.26361L6.36376 12.7946L4.46877 13.8691C3.77286 14.263 3.3405 15.0041 3.3405 15.8029C3.3405 17.0279 4.33716 18.0246 5.56218 18.0246H19.6117C20.1367 18.0246 20.5638 17.5974 20.5638 17.0724C20.5638 16.5474 20.1367 16.1203 19.6117 16.1203H5.56218C5.38715 16.1203 5.24479 15.9779 5.24479 15.8029C5.24479 15.6889 5.30708 15.5828 5.40755 15.5259ZM17.1717 9.34945H15.2214L15.3404 7.02197H17.5288L17.1717 9.34945ZM18.171 7.02197H20.3497L19.7545 9.34945H17.8139L18.171 7.02197ZM17.0743 9.98421L16.7173 12.3117H15.0699L15.1889 9.98421H17.0743ZM14.5858 9.34945H12.6321L12.513 7.02197H14.7047L14.5858 9.34945ZM15.3728 6.38721L15.4918 4.05973H17.9833L17.6262 6.38721H15.3728ZM14.7372 6.38721H12.4805L12.3614 4.05973H14.8562L14.7372 6.38721ZM11.8449 6.38721H10.5886C10.4133 6.38721 10.2712 6.52927 10.2712 6.70459C10.2712 6.87991 10.4133 7.02197 10.5886 7.02197H11.8774L11.9965 9.34945H10.0461L9.23434 4.05973H11.7258L11.8449 6.38721ZM9.40395 9.34945H7.44819L6.85291 7.02197H9.04674L9.40395 9.34945ZM9.50136 9.98421L9.85857 12.3117H8.20585L7.61056 9.98421H9.50136ZM10.5007 12.3117L10.1435 9.98421H12.029L12.148 12.3117H10.5007ZM12.7837 12.3117L12.6646 9.98421H14.5533L14.4343 12.3117H12.7837ZM19.3022 11.1179C19.1225 11.8208 18.4903 12.3117 17.7648 12.3117H17.3594L17.7165 9.98421H19.5921L19.3022 11.1179ZM20.512 6.38721H18.2684L18.6255 4.05973H21.1072L20.512 6.38721ZM8.59217 4.05973L8.94937 6.38721H6.69062L6.09534 4.05973H8.59217ZM2.38835 1.43604H1.11882C0.943789 1.43604 0.801433 1.29368 0.801433 1.11865C0.801433 0.943626 0.943789 0.80127 1.11882 0.80127H2.38835C3.05549 0.80127 3.67836 1.03194 4.17153 1.42563L3.71903 1.87817C3.34481 1.59858 2.88219 1.43604 2.38835 1.43604ZM5.56218 16.755H19.6117C19.7867 16.755 19.929 16.8974 19.929 17.0724C19.929 17.2475 19.7867 17.3898 19.6117 17.3898H5.56218C4.68713 17.3898 3.97526 16.6779 3.97526 15.8029C3.97526 15.2323 4.28422 14.703 4.78171 14.4213L6.8879 13.2271C7.01249 13.1564 7.07431 13.0111 7.03881 12.8724L4.54105 3.10644C4.46729 2.81758 4.33852 2.55462 4.1681 2.32687L4.62073 1.87424C4.86774 2.18324 5.05335 2.54683 5.1561 2.94927L7.65195 12.7077C7.68788 12.8482 7.81441 12.9465 7.95943 12.9465H13.8021C13.6711 13.3159 13.3181 13.5813 12.9043 13.5813H7.63405C7.57916 13.5813 7.52525 13.5955 7.47752 13.6226L5.09465 14.9736C4.79576 15.1427 4.61003 15.4605 4.61003 15.8029C4.61003 16.3279 5.03718 16.755 5.56218 16.755Z" fill="#455A64"/>
</svg>
