<svg width="16" height="17" viewBox="0 0 16 17" fill="none" xmlns="http://www.w3.org/2000/svg">
<path fill-rule="evenodd" clip-rule="evenodd" d="M5.0613 3.07579C5.85704 2.28005 6.93629 1.83301 8.06164 1.83301C9.18698 1.83301 10.2662 2.28005 11.062 3.07579C11.8577 3.87152 12.3047 4.95078 12.3047 6.07612C12.3047 8.10836 12.7394 9.37037 13.14 10.1047C13.3411 10.4735 13.5369 10.7153 13.673 10.8589C13.7411 10.9309 13.7947 10.9786 13.827 11.0055C13.8431 11.019 13.8539 11.0272 13.8586 11.0307C13.8593 11.0312 13.8599 11.0316 13.8603 11.032C14.0776 11.1812 14.1738 11.4543 14.0972 11.7072C14.0198 11.9629 13.7842 12.1377 13.5171 12.1377H2.60621C2.33909 12.1377 2.10346 11.9629 2.02606 11.7072C1.94947 11.4543 2.04563 11.1812 2.26293 11.032C2.26336 11.0316 2.26394 11.0312 2.26466 11.0307C2.26933 11.0272 2.28015 11.019 2.29629 11.0055C2.32855 10.9786 2.38212 10.9309 2.4503 10.8589C2.58634 10.7153 2.78218 10.4735 2.9833 10.1047C3.38387 9.37037 3.81852 8.10836 3.81852 6.07612C3.81852 4.95078 4.26556 3.87152 5.0613 3.07579ZM3.90904 10.9254H12.2142C12.1681 10.8498 12.1218 10.7698 12.0757 10.6853C11.567 9.7527 11.0924 8.28699 11.0924 6.07612C11.0924 5.2723 10.7731 4.50141 10.2047 3.93302C9.63635 3.36464 8.86545 3.04533 8.06164 3.04533C7.25782 3.04533 6.48692 3.36464 5.91854 3.93302C5.35016 4.50141 5.03084 5.2723 5.03084 6.07612C5.03084 8.28699 4.55626 9.7527 4.04759 10.6853C4.00146 10.7698 3.95516 10.8498 3.90904 10.9254Z" fill="#00A4CF"/>
<path fill-rule="evenodd" clip-rule="evenodd" d="M6.70884 13.4318C6.99841 13.2639 7.36934 13.3624 7.53732 13.652C7.5906 13.7439 7.66708 13.8201 7.7591 13.8731C7.85112 13.9261 7.95545 13.954 8.06164 13.954C8.16784 13.954 8.27217 13.9261 8.36419 13.8731C8.45621 13.8201 8.53269 13.7439 8.58597 13.652C8.75395 13.3624 9.12487 13.2639 9.41445 13.4318C9.70403 13.5998 9.80261 13.9707 9.63463 14.2603C9.47477 14.5359 9.24533 14.7646 8.96927 14.9236C8.69321 15.0826 8.38022 15.1663 8.06164 15.1663C7.74307 15.1663 7.43008 15.0826 7.15402 14.9236C6.87796 14.7646 6.64852 14.5359 6.48866 14.2603C6.32068 13.9707 6.41926 13.5998 6.70884 13.4318Z" fill="#00A4CF"/>
</svg>
