<svg width="30" height="28" viewBox="0 0 30 28" fill="none" xmlns="http://www.w3.org/2000/svg">
<path d="M29.5714 6.92857H0.428577C0.35666 6.92857 0.285899 6.91047 0.222812 6.87594C0.159725 6.84142 0.106342 6.79157 0.0675795 6.73099C0.0288171 6.67041 0.00592209 6.60106 0.00100357 6.52931C-0.00391496 6.45756 0.00930119 6.38573 0.0394345 6.32043L2.61086 0.749C2.64517 0.674661 2.70005 0.611703 2.76901 0.567576C2.83797 0.523449 2.91813 0.499999 3 0.5H27C27.0819 0.499999 27.162 0.523449 27.231 0.567576C27.2999 0.611703 27.3548 0.674661 27.3891 0.749L29.9606 6.32043C29.9907 6.38573 30.0039 6.45756 29.999 6.52931C29.9941 6.60106 29.9712 6.67041 29.9324 6.73099C29.8937 6.79157 29.8403 6.84142 29.7772 6.87594C29.7141 6.91047 29.6433 6.92857 29.5714 6.92857ZM1.09843 6.07143H28.9016L26.7257 1.35714H3.27429L1.09843 6.07143Z" fill="#455A64"/>
<path d="M2.51015 12.0714C1.84466 12.0706 1.20666 11.8059 0.736088 11.3353C0.265517 10.8648 0.000801497 10.2268 7.56138e-06 9.56128V6.5C7.56138e-06 6.38633 0.0451604 6.27732 0.125533 6.19695C0.205906 6.11658 0.314915 6.07142 0.428579 6.07142H4.59172C4.70538 6.07142 4.81439 6.11658 4.89477 6.19695C4.97514 6.27732 5.02029 6.38633 5.02029 6.5V9.56128C5.0195 10.2268 4.75478 10.8648 4.28421 11.3353C3.81364 11.8059 3.17564 12.0706 2.51015 12.0714ZM0.85715 6.92857V9.56128C0.85715 9.99968 1.0313 10.4201 1.3413 10.7301C1.6513 11.0401 2.07175 11.2143 2.51015 11.2143C2.94855 11.2143 3.369 11.0401 3.679 10.7301C3.98899 10.4201 4.16315 9.99968 4.16315 9.56128V6.92857H0.85715Z" fill="#455A64"/>
<path d="M6.67329 12.0714C6.0078 12.0706 5.3698 11.8059 4.89923 11.3353C4.42865 10.8648 4.16394 10.2268 4.16315 9.56128L4.16315 6.5C4.16315 6.38633 4.2083 6.27732 4.28867 6.19695C4.36904 6.11658 4.47806 6.07142 4.59172 6.07142H8.75486C8.86852 6.07142 8.97753 6.11658 9.0579 6.19695C9.13828 6.27732 9.18343 6.38633 9.18343 6.5V9.56128C9.18263 10.2268 8.91792 10.8648 8.44735 11.3353C7.97678 11.8059 7.33877 12.0706 6.67329 12.0714ZM5.02029 6.92857L5.02029 9.56128C5.02029 9.99968 5.19444 10.4201 5.50444 10.7301C5.81444 11.0401 6.23488 11.2143 6.67329 11.2143C7.11169 11.2143 7.53214 11.0401 7.84213 10.7301C8.15213 10.4201 8.32629 9.99968 8.32629 9.56128V6.92857H5.02029Z" fill="#455A64"/>
<path d="M10.8369 12.0714C10.1714 12.0706 9.53337 11.8059 9.0628 11.3353C8.59223 10.8648 8.32708 10.2268 8.32629 9.56128L8.32672 6.5C8.32672 6.38633 8.37187 6.27732 8.45224 6.19695C8.53262 6.11658 8.64119 6.07142 8.75486 6.07142H12.9184C13.0321 6.07142 13.1411 6.11658 13.2215 6.19695C13.3018 6.27732 13.347 6.38633 13.347 6.5V9.56128C13.3462 10.2268 13.0815 10.8648 12.6109 11.3353C12.1403 11.8059 11.5023 12.0706 10.8369 12.0714ZM9.18386 6.92857L9.18343 9.56128C9.18343 9.99968 9.35801 10.4201 9.66801 10.7301C9.97801 11.0401 10.3985 11.2143 10.8369 11.2143C11.2753 11.2143 11.6957 11.0401 12.0057 10.7301C12.3157 10.4201 12.4899 9.99968 12.4899 9.56128V6.92857H9.18386Z" fill="#455A64"/>
<path d="M15 12.0714C14.3345 12.0706 13.6965 11.8059 13.2259 11.3353C12.7554 10.8648 12.4907 10.2268 12.4899 9.56128V6.5C12.4899 6.38633 12.535 6.27732 12.6154 6.19695C12.6958 6.11658 12.8048 6.07142 12.9184 6.07142H17.0816C17.1952 6.07142 17.3042 6.11658 17.3846 6.19695C17.465 6.27732 17.5101 6.38633 17.5101 6.5V9.56128C17.5093 10.2268 17.2446 10.8648 16.7741 11.3353C16.3035 11.8059 15.6655 12.0706 15 12.0714ZM13.347 6.92857L13.347 9.56128C13.347 9.99968 13.5212 10.4201 13.8312 10.7301C14.1412 11.0401 14.5616 11.2143 15 11.2143C15.4384 11.2143 15.8589 11.0401 16.1688 10.7301C16.4788 10.4201 16.653 9.99968 16.653 9.56128V6.92857H13.347Z" fill="#455A64"/>
<path d="M19.1631 12.0714C18.4977 12.0706 17.8596 11.8059 17.3891 11.3353C16.9185 10.8648 16.6538 10.2268 16.653 9.56128L16.653 6.5C16.653 6.38633 16.6982 6.27732 16.7785 6.19695C16.8589 6.11658 16.9679 6.07142 17.0816 6.07142H21.2447C21.3584 6.07142 21.4674 6.11658 21.5478 6.19695C21.6281 6.27732 21.6733 6.38633 21.6733 6.5V9.56128C21.6725 10.2268 21.4078 10.8648 20.9372 11.3353C20.4666 11.8059 19.8286 12.0706 19.1631 12.0714ZM17.5101 6.92857L17.5101 9.56128C17.5101 9.99968 17.6843 10.4201 17.9943 10.7301C18.3043 11.0401 18.7247 11.2143 19.1631 11.2143C19.6015 11.2143 20.022 11.0401 20.332 10.7301C20.642 10.4201 20.8161 9.99968 20.8161 9.56128V6.92857H17.5101Z" fill="#455A64"/>
<path d="M23.3267 12.0714C22.6612 12.0706 22.0232 11.8059 21.5526 11.3353C21.0821 10.8648 20.8169 10.2268 20.8161 9.56128L20.8166 6.5C20.8166 6.38633 20.8617 6.27732 20.9421 6.19695C21.0225 6.11658 21.131 6.07142 21.2447 6.07142H25.4083C25.5219 6.07142 25.631 6.11658 25.7113 6.19695C25.7917 6.27732 25.8368 6.38633 25.8368 6.5V9.56128C25.8361 10.2268 25.5713 10.8648 25.1008 11.3353C24.6302 11.8059 23.9922 12.0706 23.3267 12.0714ZM21.6733 6.92857V9.56128C21.6733 9.99968 21.8474 10.4201 22.1574 10.7301C22.4674 11.0401 22.8879 11.2143 23.3263 11.2143C23.7647 11.2143 24.1851 11.0401 24.4951 10.7301C24.8051 10.4201 24.9793 9.99968 24.9793 9.56128V6.92857H21.6733Z" fill="#455A64"/>
<path d="M27.4899 12.0714C26.8244 12.0706 26.1864 11.8059 25.7158 11.3353C25.2452 10.8648 24.9801 10.2268 24.9793 9.56128L24.9797 6.5C24.9797 6.38633 25.0249 6.27732 25.1052 6.19695C25.1856 6.11658 25.2946 6.07142 25.4083 6.07142H29.5714C29.6851 6.07142 29.7941 6.11658 29.8745 6.19695C29.9548 6.27732 30 6.38633 30 6.5V9.56128C29.9992 10.2268 29.7345 10.8648 29.2639 11.3353C28.7933 11.8059 28.1553 12.0706 27.4899 12.0714ZM25.8369 6.92857L25.8368 9.56128C25.8368 9.99968 26.011 10.4201 26.321 10.7301C26.631 11.0401 27.0515 11.2143 27.4899 11.2143C27.9283 11.2143 28.3487 11.0401 28.6587 10.7301C28.9687 10.4201 29.1429 9.99968 29.1429 9.56128V6.92857H25.8369Z" fill="#455A64"/>
<path d="M28.2857 27.5H1.67572C1.56206 27.5 1.45305 27.4548 1.37267 27.3745C1.2923 27.2941 1.24715 27.1851 1.24715 27.0714V11.2143H2.10429V26.6428H27.8571V11.2143H28.7143V27.0714C28.7143 27.1851 28.6691 27.2941 28.5888 27.3745C28.5084 27.4548 28.3994 27.5 28.2857 27.5Z" fill="#455A64"/>
<path d="M24.8571 27.5H17.5714C17.4578 27.5 17.3488 27.4548 17.2684 27.3745C17.188 27.2941 17.1429 27.1851 17.1429 27.0714V15.0714C17.1429 14.9578 17.188 14.8487 17.2684 14.7684C17.3488 14.688 17.4578 14.6429 17.5714 14.6429H24.8571C24.9708 14.6429 25.0798 14.688 25.1602 14.7684C25.2406 14.8487 25.2857 14.9578 25.2857 15.0714V27.0714C25.2857 27.1851 25.2406 27.2941 25.1602 27.3745C25.0798 27.4548 24.9708 27.5 24.8571 27.5ZM18 26.6428H24.4286V15.5H18V26.6428Z" fill="#455A64"/>
<path d="M15 23.8571H4.28572C4.17206 23.8571 4.06305 23.812 3.98267 23.7316C3.9023 23.6512 3.85715 23.5422 3.85715 23.4286V14.8571C3.85715 14.7435 3.9023 14.6345 3.98267 14.5541C4.06305 14.4737 4.17206 14.4286 4.28572 14.4286H15C15.1137 14.4286 15.2227 14.4737 15.303 14.5541C15.3834 14.6345 15.4286 14.7435 15.4286 14.8571V23.4286C15.4286 23.5422 15.3834 23.6512 15.303 23.7316C15.2227 23.812 15.1137 23.8571 15 23.8571ZM4.71429 23H14.5714V15.2857H4.71429V23Z" fill="#455A64"/>
</svg>
