<svg width="20" height="17" viewBox="0 0 20 17" fill="none" xmlns="http://www.w3.org/2000/svg">
<path d="M19.8665 11.3125C19.5172 10.5057 18.883 9.89678 18.0323 9.55163C17.3439 9.27233 16.558 9.18831 15.7951 9.30803L15.4904 8.65667V7.74702C15.654 7.80717 15.8279 7.83897 16.0053 7.83897H17.0408C17.4074 7.83897 17.7056 7.54096 17.7056 7.17456V5.50483C17.7056 5.13846 17.4074 4.84042 17.0408 4.84042H16.0053C15.8279 4.84042 15.654 4.87221 15.4904 4.93233V3.92042C15.4904 3.75815 15.4542 3.60944 15.383 3.47811C15.2608 3.20999 15.0207 3.01878 14.7399 2.9553L14.2895 1.92983C14.4411 1.81245 14.5392 1.62948 14.5392 1.42362V0.9203C14.5392 0.604284 14.3024 0.348581 13.9507 0.284128L12.4735 0.00916716C12.4732 0.0091281 12.473 0.00908898 12.4727 0.00901085C12.3107 -0.0206766 12.1488 0.0235421 12.0169 0.133542C11.8673 0.25823 11.778 0.449948 11.778 0.646433V1.42366C11.778 1.77717 12.0658 2.06475 12.4195 2.06475H13.7039L14.0842 2.93077L12.5939 2.92565C12.5923 2.92561 12.5907 2.92561 12.589 2.92561C12.0367 2.92561 11.7349 3.33253 11.7223 3.73569C11.7091 4.15417 11.9945 4.5953 12.5654 4.6287L13.748 4.69784V5.64639C13.5134 5.48003 13.2133 5.34401 12.8549 5.24585C11.3999 4.84737 9.36077 5.12585 8.59823 6.1387H6.28999C6.12694 6.1387 5.99475 6.27085 5.99475 6.43389C5.99475 6.59694 6.12694 6.72909 6.28999 6.72909H8.45854V8.26405H5.0703H3.66972H1.32468C0.932723 8.26405 0.698739 8.07307 0.698739 7.75323V6.51702C0.698739 6.36651 0.736122 6.25499 0.809872 6.18553C0.896239 6.1042 1.04741 6.06401 1.22479 6.0744C1.23112 6.07479 1.23768 6.0751 1.24378 6.07495L1.7739 6.07272C1.88788 6.07327 1.98972 6.16518 2.14651 6.31506C2.331 6.49151 2.56057 6.71104 2.90667 6.7287C2.91167 6.72897 2.91671 6.72909 2.92175 6.72909H5.00378C5.16682 6.72909 5.29901 6.59694 5.29901 6.43389C5.29901 6.27085 5.16682 6.1387 5.00378 6.1387H2.93073C2.81487 6.12987 2.71073 6.03776 2.55452 5.88838C2.36612 5.70823 2.13163 5.48397 1.77401 5.48233L1.25026 5.48452C0.910301 5.46608 0.610458 5.56237 0.405067 5.75569C0.269638 5.88319 0.108231 6.11878 0.108231 6.51702V7.75323C0.108231 8.40159 0.608427 8.85444 1.3246 8.85444H3.30557L3.22143 9.25276C1.87772 9.27639 0.425692 9.92721 0.0806532 11.2044C-0.0477843 11.6812 -0.0230187 12.0207 0.156356 12.2422C0.201825 12.2983 0.268075 12.3588 0.361161 12.4037C0.32163 12.6023 0.301356 12.805 0.301356 13.0096C0.301356 14.7112 1.6869 16.0955 3.38999 16.0955C4.84182 16.0955 6.09444 15.0737 6.40444 13.6798L7.73964 13.6785C7.90268 13.6783 8.03471 13.546 8.03456 13.383C8.0344 13.22 7.90225 13.0881 7.73932 13.0881C7.73925 13.0881 7.73913 13.0881 7.73901 13.0881L4.31952 13.0916C4.35284 13.0152 4.37971 12.932 4.3971 12.8401L4.47995 12.4767H8.90925C8.90964 12.4767 8.91003 12.4767 8.91042 12.4767C8.91081 12.4767 8.9112 12.4767 8.91159 12.4767H9.50608C9.95952 12.4767 10.1761 12.369 10.4327 12.0161L12.0618 9.78096C12.0633 9.77881 12.065 9.77674 12.0665 9.77452L12.7371 8.85448H13.6914L10.8298 12.5941C10.8262 12.5987 10.8228 12.6035 10.8196 12.6083C10.4956 13.0881 10.1726 13.0881 10.051 13.0881H8.89897C8.73592 13.0881 8.60374 13.2202 8.60374 13.3833C8.60374 13.5463 8.73592 13.6785 8.89897 13.6785H10.051C10.5516 13.6785 10.9731 13.4321 11.3038 12.9462L13.973 9.45807L14.1967 9.92409C13.6711 10.2841 13.2893 10.7655 13.0851 11.3293C12.9252 11.7712 12.9296 12.1171 13.0981 12.3573C13.1559 12.4396 13.2501 12.5313 13.3998 12.5916C13.3812 12.7289 13.3715 12.8687 13.3715 13.0096C13.3715 14.7112 14.7571 16.0955 16.4601 16.0955C18.1632 16.0955 19.5488 14.7112 19.5488 13.0096C19.5488 12.8749 19.5396 12.7399 19.5219 12.6056C19.7058 12.5422 19.8157 12.4323 19.8799 12.3344C20.1137 11.9783 19.9483 11.5008 19.8665 11.3125ZM15.4904 5.59202C15.6416 5.48741 15.8205 5.43085 16.0053 5.43085H17.0408C17.0811 5.43085 17.1151 5.46475 17.1151 5.50483V7.17456C17.1151 7.21463 17.0811 7.24854 17.0408 7.24854H16.0053C15.8206 7.24854 15.6416 7.19194 15.4904 7.08733V5.59202ZM13.9488 1.4237C13.9488 1.45116 13.9249 1.4744 13.8967 1.4744H13.8952C13.8938 1.4744 13.8924 1.47436 13.891 1.4744H12.4195C12.3919 1.4744 12.3685 1.45116 12.3685 1.4237V0.646472C12.3685 0.626628 12.379 0.605534 12.3883 0.593933L13.8435 0.864792C13.9028 0.875651 13.9488 0.903581 13.9488 0.920339V1.4237ZM0.721669 11.8808C0.716864 11.8808 0.712059 11.8809 0.707255 11.8812C0.637489 11.8849 0.615614 11.871 0.615614 11.871C0.598427 11.854 0.55413 11.7171 0.650809 11.3582C0.877098 10.5205 1.89722 9.90608 3.09604 9.84706L2.66647 11.8807H0.72452C0.723544 11.8807 0.722606 11.8808 0.721669 11.8808ZM3.27198 13.6624C3.29819 13.6671 3.32472 13.6705 3.35139 13.6729C3.37546 13.6792 3.40061 13.683 3.42667 13.683H3.42698L4.26382 13.6821C4.05909 13.9466 3.73897 14.1126 3.39003 14.1126C2.78112 14.1126 2.28577 13.6178 2.28577 13.0097C2.28577 12.8188 2.33487 12.6353 2.42737 12.4712H2.54179L2.53741 12.4919C2.53667 12.4955 2.53597 12.4991 2.53534 12.5027C2.42237 13.1576 2.82038 13.5819 3.27198 13.6624ZM4.94514 13.6814L5.79632 13.6805C5.49983 14.7412 4.51932 15.5051 3.39003 15.5051C2.01253 15.5051 0.891825 14.3856 0.891825 13.0097C0.891825 12.8273 0.911669 12.647 0.950301 12.4712H1.78292C1.72514 12.643 1.69534 12.8242 1.69534 13.0097C1.69534 13.9434 2.45557 14.703 3.39003 14.703C4.07034 14.703 4.68057 14.2926 4.94514 13.6814ZM4.48757 9.78737L3.95745 12.1128C3.9571 12.1144 3.95663 12.1161 3.95628 12.1178L3.82026 12.7145C3.81936 12.7185 3.8185 12.7226 3.81776 12.7267C3.75682 13.0578 3.51104 13.1051 3.37561 13.0811C3.29835 13.0673 3.05225 12.9926 3.11636 12.6081L3.19347 12.243C3.19448 12.2385 3.19546 12.2341 3.19632 12.2296L3.90913 8.85452H4.70026L4.49073 9.7737C4.48956 9.77827 4.48843 9.7828 4.48757 9.78737ZM5.91116 11.8807C5.90979 11.8807 5.90846 11.8807 5.9071 11.8807H4.61593L4.98116 10.2786C5.42975 10.547 5.76526 10.9278 5.96112 11.3953C5.96175 11.3967 5.96233 11.3981 5.96296 11.3996C6.02495 11.5411 6.07827 11.7521 6.09069 11.8832L5.91116 11.8807ZM5.11772 9.67948L5.30581 8.85452H8.07807L6.30331 10.7712C6.02319 10.3123 5.62073 9.94174 5.11772 9.67948ZM6.57354 11.3483L8.88276 8.85448H12.0066L11.6708 9.31514H9.87245C9.7094 9.31514 9.57721 9.44729 9.57721 9.61034C9.57721 9.77338 9.7094 9.90553 9.87245 9.90553H11.2405L10.4813 10.9473C10.271 10.7283 9.97639 10.5968 9.65608 10.5968C9.34288 10.5968 9.05003 10.7196 8.8321 10.942C8.63682 11.1401 8.51975 11.4017 8.50245 11.6784C8.49803 11.7483 8.50065 11.8177 8.50862 11.8862H6.68132C6.6746 11.6915 6.62042 11.4895 6.57354 11.3483ZM9.50624 11.8863H9.10682C9.09335 11.831 9.08803 11.7735 9.09171 11.7154C9.1001 11.5807 9.15725 11.4532 9.25319 11.3559C9.35975 11.2472 9.5028 11.1873 9.65604 11.1873C9.85241 11.1873 10.0238 11.2831 10.1223 11.4398L9.95553 11.6686C9.81514 11.8617 9.78104 11.8863 9.50624 11.8863ZM13.748 8.26409H9.04901V6.52034C9.61374 5.70913 11.444 5.47159 12.6989 5.81534C13.0143 5.90174 13.748 6.15811 13.748 6.6712V8.26409H13.748ZM14.0604 4.12471L12.5999 4.03932C12.3815 4.02655 12.3085 3.87776 12.3124 3.75428C12.3147 3.68253 12.3462 3.51608 12.5894 3.51608H12.5917L14.5358 3.52276C14.6714 3.52339 14.7939 3.60393 14.8481 3.72807C14.8522 3.73745 14.8567 3.74667 14.8618 3.75553C14.8872 3.80034 14.9 3.85585 14.9 3.92049V5.45049V7.22889V8.72233C14.9 8.76557 14.9095 8.80831 14.9278 8.84741L15.3507 9.75124C15.3544 9.76018 15.3585 9.76885 15.3629 9.77729L16.7202 12.678C16.7985 12.8452 16.7696 12.9582 16.6317 13.0236C16.536 13.069 16.3679 13.0814 16.3115 12.9639L14.3384 8.85463V8.55928V6.6712V4.41944C14.3384 4.26307 14.2165 4.13381 14.0604 4.12471ZM17.3336 12.6585H17.5064C17.544 12.7707 17.5635 12.8882 17.5635 13.0096C17.5635 13.6178 17.0686 14.1125 16.4603 14.1125C15.8515 14.1125 15.3561 13.6178 15.3561 13.0096C15.3561 12.8888 15.3758 12.7713 15.414 12.6585H15.5098L15.7792 13.2196C15.9212 13.5151 16.2016 13.6468 16.4849 13.6468C16.6227 13.6468 16.7612 13.6156 16.8848 13.5571C17.1865 13.4139 17.4246 13.0843 17.3336 12.6585ZM13.5816 12.0181C13.5528 11.9771 13.5327 11.828 13.6405 11.5303C13.7922 11.1112 14.0718 10.7475 14.4563 10.4644L15.2263 12.0681H13.7801C13.6793 12.0681 13.6032 12.0489 13.5816 12.0181ZM16.4603 15.5051C15.0828 15.5051 13.9622 14.3856 13.9622 13.0097C13.9622 12.8909 13.9705 12.7735 13.9867 12.6585H14.803C14.7787 12.7731 14.7656 12.8903 14.7656 13.0097C14.7656 13.9434 15.5259 14.703 16.4603 14.703C17.3942 14.703 18.1539 13.9433 18.1539 13.0097C18.1539 12.89 18.1411 12.7728 18.1171 12.6585H18.9327C18.9492 12.7753 18.9585 12.8926 18.9585 13.0097C18.9585 14.3856 17.8378 15.5051 16.4603 15.5051ZM19.3864 12.0106C19.3628 12.0466 19.285 12.0681 19.1783 12.0681H17.0866L16.0573 9.86819C17.2875 9.73354 18.7331 10.1806 19.3248 11.5474C19.4194 11.7651 19.4271 11.9485 19.3864 12.0106Z" fill="#455A64"/>
</svg>
