<svg width="20" height="16" viewBox="0 0 20 16" fill="none" xmlns="http://www.w3.org/2000/svg">
<path d="M14.569 8.431L13.569 7.431C13.5065 7.3685 13.4218 7.33334 13.3333 7.33334H6.66667C6.57825 7.33334 6.4935 7.3685 6.431 7.431L5.431 8.431C5.3395 8.52263 5.30934 8.659 5.35367 8.78067L6.687 12.4473C6.73492 12.579 6.85996 12.6666 7 12.6667H13C13.14 12.6666 13.2651 12.5789 13.313 12.4473L14.6463 8.78067C14.6907 8.659 14.6605 8.52263 14.569 8.431ZM7.23334 12L6.05234 8.75234L6.74367 8.061L7.58767 12H7.23334ZM8.26933 12L7.41234 8H8.35633L8.642 12H8.26933ZM9.66667 12H9.31033L9.02467 8H9.66667V12ZM10.6897 12H10.3333V8H10.9753L10.6897 12ZM11.358 12L11.6437 8H12.5877L11.7307 12H11.358ZM12.7667 12H12.4123L13.2563 8.061L13.9477 8.75234L12.7667 12Z" fill="#455A64"/>
<path d="M5.97634 12.2097L5.30967 10.543C5.25909 10.4163 5.13642 10.3333 5 10.3333H1.66667C1.48259 10.3333 1.33334 10.4826 1.33334 10.6667V12.3333C1.33334 12.5174 1.48259 12.6667 1.66667 12.6667H5.66667C5.85075 12.6668 6.00004 12.5175 6.00013 12.3335C6.00013 12.291 5.99209 12.249 5.97634 12.2097ZM2 12V11H4.77434L5.17434 12H2Z" fill="#455A64"/>
<path d="M18.3333 10.3333H15C14.8636 10.3333 14.7409 10.4163 14.6903 10.543L14.0237 12.2097C13.9554 12.3806 14.0386 12.5746 14.2095 12.6429C14.2489 12.6586 14.2909 12.6667 14.3333 12.6667H18.3333C18.5174 12.6667 18.6667 12.5174 18.6667 12.3333V10.6667C18.6667 10.4826 18.5174 10.3333 18.3333 10.3333ZM18 12H14.8257L15.2257 11H18V12Z" fill="#455A64"/>
<path d="M18.3333 7.33334H16.9027C16.2203 7.33096 15.6061 7.74684 15.355 8.38134L15.0237 9.20967C14.9554 9.38063 15.0386 9.57458 15.2095 9.64288C15.2489 9.65863 15.2909 9.66667 15.3333 9.66667H17.6667C18.219 9.66667 18.6667 9.21896 18.6667 8.66667V7.66667C18.6667 7.48259 18.5174 7.33334 18.3333 7.33334ZM18 8.66667C18 8.85075 17.8507 9 17.6667 9H15.8257L15.9743 8.62867C16.125 8.24813 16.4934 7.99867 16.9027 8H18V8.66667Z" fill="#455A64"/>
<path d="M4.97634 9.20967L4.645 8.38134C4.39388 7.74684 3.77971 7.33096 3.09734 7.33334H1.66667C1.48259 7.33334 1.33334 7.48259 1.33334 7.66667V8.66667C1.33334 9.21896 1.78105 9.66667 2.33334 9.66667H4.66667C4.85075 9.66675 5.00004 9.51754 5.00013 9.33346C5.00013 9.29104 4.99209 9.24904 4.97634 9.20967ZM2.33334 9C2.14925 9 2 8.85075 2 8.66667V8H3.09734C3.50663 7.99867 3.87496 8.24813 4.02567 8.62867L4.17434 9H2.33334Z" fill="#455A64"/>
<path d="M16.3097 4.87634L14.9763 1.543C14.9258 1.41634 14.8031 1.3333 14.6667 1.33334H5.33334C5.19692 1.3333 5.07425 1.41634 5.02367 1.543L3.69034 4.87634C3.62205 5.0473 3.70525 5.24125 3.87621 5.30955C3.91559 5.32529 3.95759 5.33334 4 5.33334H16C16.1841 5.33342 16.3334 5.18421 16.3335 5.00013C16.3335 4.95771 16.3254 4.91571 16.3097 4.87634ZM4.49234 4.66667L5.559 2H14.441L15.5077 4.66667H4.49234Z" fill="#455A64"/>
<path d="M18.1383 5H19C19.5523 5 20 4.55229 20 4C20 3.44771 19.5523 3 19 3H18.3333C17.9007 3.0015 17.5182 3.28163 17.3863 3.69367L15.8157 0.552671C15.6472 0.21313 15.3004 -0.00116193 14.9213 4.73975e-06H4.77267C4.37284 0.000171406 4.01154 0.238505 3.854 0.606004L2.57567 3.58834C2.41425 3.23096 2.05884 3.00092 1.66667 3H1C0.447712 3 3.97162e-06 3.44771 3.97162e-06 4C3.97162e-06 4.55229 0.447712 5 1 5H1.86167L0.293004 6.569C0.104754 6.75604 -0.000746028 7.01063 3.97162e-06 7.276V12.3333C0.00100397 13.125 0.557879 13.8072 1.33334 13.9667V15C1.33334 15.5523 1.78105 16 2.33334 16H3.66667C4.21896 16 4.66667 15.5523 4.66667 15V14H15.3333V15C15.3333 15.5523 15.781 16 16.3333 16H17.6667C18.219 16 18.6667 15.5523 18.6667 15V13.9667C19.4421 13.8072 19.999 13.125 20 12.3333V7.276C20.0006 7.01067 19.8951 6.75613 19.707 6.569L18.1383 5ZM18 4C18 3.81592 18.1492 3.66667 18.3333 3.66667H19C19.1841 3.66667 19.3333 3.81592 19.3333 4C19.3333 4.18409 19.1841 4.33334 19 4.33334H18V4ZM1 4.33334C0.81592 4.33334 0.66667 4.18409 0.66667 4C0.66667 3.81592 0.81592 3.66667 1 3.66667H1.66667C1.85075 3.66667 2 3.81592 2 4V4.33334H1ZM4 15C4 15.1841 3.85075 15.3333 3.66667 15.3333H2.33334C2.14925 15.3333 2 15.1841 2 15V14H4V15ZM18 15C18 15.1841 17.8507 15.3333 17.6667 15.3333H16.3333C16.1492 15.3333 16 15.1841 16 15V14H18V15ZM19.3333 12.3333C19.3333 12.8856 18.8856 13.3333 18.3333 13.3333H1.66667C1.11438 13.3333 0.66667 12.8856 0.66667 12.3333V7.276C0.66667 7.18759 0.701837 7.10284 0.764337 7.04034L2.61467 5.19034L4.46667 0.868671C4.51917 0.746255 4.63946 0.666838 4.77267 0.666671H14.9213C15.0477 0.666171 15.1633 0.737713 15.2193 0.851005L17.3927 5.19767L19.2357 7.04034C19.2982 7.10284 19.3333 7.18759 19.3333 7.276V12.3333Z" fill="#455A64"/>
</svg>
