<svg width="60" height="60" viewBox="0 0 60 60" fill="none" xmlns="http://www.w3.org/2000/svg">
<path fill-rule="evenodd" clip-rule="evenodd" d="M30 5.45455C16.4439 5.45455 5.45455 16.4439 5.45455 30C5.45455 43.5561 16.4439 54.5455 30 54.5455C43.5561 54.5455 54.5455 43.5561 54.5455 30C54.5455 16.4439 43.5561 5.45455 30 5.45455ZM0 30C0 13.4315 13.4315 0 30 0C46.5685 0 60 13.4315 60 30C60 46.5685 46.5685 60 30 60C13.4315 60 0 46.5685 0 30Z" fill="#E87C28"/>
<path fill-rule="evenodd" clip-rule="evenodd" d="M20.3844 35.9762C22.5606 34.3935 25.8394 32.7273 29.9999 32.7273C34.1604 32.7273 37.4392 34.3935 39.6154 35.9762C40.7087 36.7713 41.5539 37.5663 42.1323 38.1698C42.4226 38.4727 42.649 38.7309 42.8089 38.9214C42.889 39.0168 42.9527 39.0956 42.9997 39.155L43.0578 39.2293L43.0774 39.255L43.0849 39.2649L43.088 39.2691C43.0887 39.27 43.0908 39.2727 40.9496 40.8786L43.0908 39.2727C43.9945 40.4777 43.7503 42.1872 42.5453 43.0909C41.3442 43.9918 39.6417 43.752 38.7357 42.5568L38.7231 42.5407C38.7068 42.5202 38.676 42.4818 38.6309 42.428C38.5405 42.3203 38.3939 42.1523 38.1942 41.9438C37.7925 41.5246 37.1888 40.9559 36.4072 40.3875C34.8334 39.2429 32.6575 38.1818 29.9999 38.1818C27.3423 38.1818 25.1664 39.2429 23.5926 40.3875C22.811 40.9559 22.2073 41.5246 21.8056 41.9438C21.6059 42.1523 21.4593 42.3203 21.3689 42.428C21.3238 42.4818 21.293 42.5202 21.2767 42.5407M19.0908 40.9091C16.909 39.2727 16.9096 39.2719 16.9103 39.271L16.9149 39.2649L16.9224 39.255L16.942 39.2293L17.0001 39.155C17.0471 39.0956 17.1108 39.0168 17.1909 38.9214C17.3508 38.7309 17.5772 38.4727 17.8675 38.1698C18.4459 37.5663 19.2911 36.7713 20.3844 35.9762" fill="#E87C28"/>
<path fill-rule="evenodd" clip-rule="evenodd" d="M19.0909 21.8182C19.0909 20.312 20.312 19.0909 21.8182 19.0909H21.8455C23.3517 19.0909 24.5727 20.312 24.5727 21.8182C24.5727 23.3244 23.3517 24.5455 21.8455 24.5455H21.8182C20.312 24.5455 19.0909 23.3244 19.0909 21.8182Z" fill="#E87C28"/>
<path fill-rule="evenodd" clip-rule="evenodd" d="M35.4545 21.8182C35.4545 20.312 36.6756 19.0909 38.1818 19.0909H38.2091C39.7153 19.0909 40.9364 20.312 40.9364 21.8182C40.9364 23.3244 39.7153 24.5455 38.2091 24.5455H38.1818C36.6756 24.5455 35.4545 23.3244 35.4545 21.8182Z" fill="#E87C28"/>
</svg>
