<svg width="16" height="17" viewBox="0 0 16 17" fill="none" xmlns="http://www.w3.org/2000/svg">
<path d="M4.00035 5.1669C4.55241 5.1669 5.0003 4.719 5.0003 4.16695C5.0003 3.61489 4.55241 3.16699 4.00035 3.16699C3.44829 3.16699 3.0004 3.61489 3.0004 4.16695C3.0004 4.719 3.44829 5.1669 4.00035 5.1669ZM12 5.1669C12.552 5.1669 12.9999 4.719 12.9999 4.16695C12.9999 3.61489 12.552 3.16699 12 3.16699C11.4479 3.16699 11 3.61489 11 4.16695C11 4.719 11.4479 5.1669 12 5.1669ZM14.6186 12.9186L13.702 10.6271L12.8458 11.5937L12.8041 11.9728L13.3812 13.4144C13.4853 13.6748 13.7353 13.8332 13.9999 13.8332C14.0832 13.8332 14.1665 13.8186 14.2478 13.7852C14.5894 13.6478 14.7561 13.2603 14.6186 12.9186V12.9186ZM13.9061 8.54799L13.5207 6.87723C13.4249 6.46059 13.1333 6.1106 12.7395 5.94186C12.3541 5.7752 11.9271 5.80229 11.5708 6.01061C11.0979 6.28976 10.7438 6.72932 10.5688 7.24805L10.3334 7.95427L10.0001 8.16676V6.16685C10.0001 5.98353 9.85008 5.83353 9.66675 5.83353H6.33357C6.15025 5.83353 6.00026 5.98353 6.00026 6.16685V8.16676L5.66486 7.95427L5.42945 7.24805C5.25654 6.72724 4.90031 6.28976 4.42741 6.01061C4.0691 5.80229 3.64412 5.7752 3.25872 5.94186C2.86499 6.1106 2.57333 6.46059 2.4775 6.87723L2.09419 8.54799C1.99836 8.96464 2.10877 9.40628 2.39418 9.72918L3.79411 11.3104L4.00452 13.2394C4.04201 13.579 4.3295 13.8332 4.66699 13.8332C4.69198 13.8332 4.7149 13.8311 4.7399 13.829C5.10655 13.7894 5.36904 13.4603 5.32945 13.0936L5.11905 11.1604C5.0878 10.8895 4.9753 10.6375 4.79406 10.4312L3.89202 9.41045L4.25867 7.94593L4.40033 8.37091C4.48574 8.63132 4.64824 8.85839 4.91072 9.05005L5.97526 9.7271C6.07109 9.78751 6.22733 9.82293 6.33357 9.83126H9.66675C9.773 9.82293 9.92924 9.78751 10.0251 9.7271L11.0896 9.05005C11.3521 8.85839 11.5146 8.6334 11.6 8.37091L11.7417 7.94593L12.1083 9.41045L11.2063 10.4312C11.025 10.6375 10.9125 10.8895 10.8813 11.1604L10.6709 13.0936C10.6313 13.4603 10.8959 13.7894 11.2604 13.829C11.2854 13.8311 11.3083 13.8332 11.3333 13.8332C11.6687 13.8332 11.9583 13.5811 11.9958 13.2394L12.2062 11.3104L13.6061 9.72918C13.8895 9.40628 14.002 8.96464 13.9061 8.54799ZM2.29835 10.6271L1.38172 12.9186C1.24423 13.2603 1.41089 13.6478 1.75254 13.7852C2.10252 13.9227 2.48375 13.7498 2.61916 13.4144L3.19622 11.9728L3.15456 11.5937L2.29835 10.6271V10.6271Z" fill="#00A4CF"/>
</svg>
