<svg width="54" height="47" viewBox="0 0 54 47" fill="none" xmlns="http://www.w3.org/2000/svg">
<path fill-rule="evenodd" clip-rule="evenodd" d="M23.5717 0.898767C24.6182 0.309545 25.799 0 27 0C28.201 0 29.3818 0.309545 30.4284 0.898767C31.4749 1.48799 32.3519 2.337 32.9748 3.36388L32.9815 3.37494L52.7113 36.3122L52.7302 36.3444C53.3404 37.4011 53.6632 38.5991 53.6666 39.8193C53.6701 41.0395 53.3539 42.2393 52.7497 43.2994C52.1454 44.3595 51.2741 45.2429 50.2225 45.8617C49.1708 46.4805 47.9755 46.8132 46.7554 46.8266L46.7298 46.8269L7.24464 46.8267C6.0245 46.8133 4.82916 46.4805 3.77752 45.8617C2.72587 45.2429 1.85458 44.3595 1.25033 43.2994C0.646086 42.2393 0.329945 41.0395 0.333361 39.8193C0.336778 38.5991 0.659634 37.4011 1.26981 36.3444L1.28873 36.3122L21.0185 3.37496L23.0167 4.57193L21.0252 3.36388C21.6481 2.337 22.5251 1.48799 23.5717 0.898767ZM25.0112 5.7754L5.29654 38.6875C5.09813 39.0364 4.99321 39.4308 4.99208 39.8324C4.99094 40.2391 5.09632 40.639 5.29774 40.9924C5.49916 41.3458 5.78959 41.6402 6.14013 41.8465C6.48762 42.051 6.88215 42.1617 7.28514 42.168H46.7149C47.1178 42.1617 47.5124 42.051 47.8599 41.8465C48.2104 41.6402 48.5008 41.3458 48.7023 40.9924C48.9037 40.639 49.0091 40.2391 49.0079 39.8324C49.0068 39.4308 48.9019 39.0365 48.7035 38.6876L28.9916 5.78003L28.9888 5.7754C28.7813 5.43518 28.4901 5.15385 28.1428 4.95833C27.7939 4.76192 27.4003 4.65874 27 4.65874C26.5997 4.65874 26.2061 4.76192 25.8572 4.95833C25.5099 5.15385 25.2187 5.43518 25.0112 5.7754Z" fill="#E87C28"/>
<path fill-rule="evenodd" clip-rule="evenodd" d="M27 14.2155C28.2864 14.2155 29.3293 15.2584 29.3293 16.5449V25.8623C29.3293 27.1488 28.2864 28.1917 27 28.1917C25.7135 28.1917 24.6706 27.1488 24.6706 25.8623V16.5449C24.6706 15.2584 25.7135 14.2155 27 14.2155Z" fill="#E87C28"/>
<path fill-rule="evenodd" clip-rule="evenodd" d="M24.6706 35.1798C24.6706 33.8933 25.7135 32.8505 27 32.8505H27.0232C28.3097 32.8505 29.3526 33.8933 29.3526 35.1798C29.3526 36.4663 28.3097 37.5092 27.0232 37.5092H27C25.7135 37.5092 24.6706 36.4663 24.6706 35.1798Z" fill="#E87C28"/>
</svg>
