<svg width="18" height="18" viewBox="0 0 18 18" fill="none" xmlns="http://www.w3.org/2000/svg">
<path fill-rule="evenodd" clip-rule="evenodd" d="M16.9845 1.01534C17.4494 1.48025 17.4494 2.23402 16.9845 2.69893L2.69877 16.9846C2.23386 17.4496 1.4801 17.4496 1.01519 16.9846C0.550276 16.5197 0.550276 15.766 1.01519 15.3011L15.3009 1.01534C15.7658 0.550429 16.5196 0.550429 16.9845 1.01534Z" fill="#455A64"/>
<path fill-rule="evenodd" clip-rule="evenodd" d="M1.01519 1.01534C1.4801 0.550429 2.23386 0.550429 2.69877 1.01534L16.9845 15.3011C17.4494 15.766 17.4494 16.5197 16.9845 16.9846C16.5196 17.4496 15.7658 17.4496 15.3009 16.9846L1.01519 2.69893C0.550276 2.23402 0.550276 1.48025 1.01519 1.01534Z" fill="#455A64"/>
</svg>
