<svg width="20" height="21" viewBox="0 0 20 21" fill="none" xmlns="http://www.w3.org/2000/svg">
<path d="M17.0968 20.3306C16.9892 20.3306 16.8817 20.3306 16.8817 20.3306C13.9785 20.008 11.0753 19.0402 8.70968 17.4273C6.45161 16.0295 4.4086 13.9865 3.01075 11.7284C1.29032 9.2553 0.322581 6.35207 0 3.44885C0 3.01874 0 2.58863 0.107527 2.26605C0.215054 1.83594 0.430108 1.51336 0.752688 1.29831C0.967742 0.975728 1.29032 0.760674 1.72043 0.653147C2.04301 0.438093 2.47312 0.330566 2.90323 0.330566H5.5914C6.34409 0.330566 6.98925 0.54562 7.52688 0.975728C8.06452 1.40584 8.3871 2.051 8.49462 2.69616C8.49462 3.55637 8.70968 4.30906 9.03226 5.06175C9.24731 5.59938 9.24731 6.13702 9.13979 6.67465C9.03226 7.21229 8.70968 7.74992 8.3871 8.0725L7.74194 8.61014C8.70968 10.1155 10.1075 11.5134 11.6129 12.4811L12.1505 11.9435C12.5806 11.5134 13.0108 11.2983 13.5484 11.1908C14.086 11.0833 14.6237 11.0833 15.1613 11.2983C15.914 11.6209 16.6667 11.7284 17.4194 11.8359C18.172 11.9435 18.7097 12.266 19.2473 12.8037C19.6774 13.3413 19.8925 13.9865 19.8925 14.7392V17.4273C19.8925 17.8574 19.7849 18.18 19.6774 18.6101C19.5699 18.9327 19.2473 19.2553 19.0323 19.5779C18.7097 19.9005 18.3871 20.008 18.0645 20.223C17.7419 20.3306 17.4194 20.3306 17.0968 20.3306ZM5.5914 2.4811H2.90323C2.7957 2.4811 2.68817 2.4811 2.58065 2.58863C2.47312 2.58863 2.36559 2.69616 2.36559 2.80368C2.25806 2.80368 2.25806 2.91121 2.15054 3.01874C2.15054 3.12627 2.15054 3.23379 2.15054 3.34132C2.47312 5.92196 3.33333 8.39508 4.73118 10.6531C6.02151 12.6962 7.74194 14.4166 9.78495 15.7069C11.9355 17.1048 14.5161 17.965 17.0968 18.2876C17.2043 18.2876 17.3118 18.2876 17.4194 18.2876C17.5269 18.2876 17.6344 18.18 17.6344 18.18C17.7419 18.0725 17.7419 18.0725 17.8495 17.965C17.8495 17.8574 17.957 17.7499 17.957 17.6424V14.9542C17.957 14.7392 17.8495 14.6316 17.7419 14.5241C17.6344 14.4166 17.4194 14.3091 17.3118 14.3091C16.3441 14.2015 15.4839 13.9865 14.5161 13.6639C14.4086 13.6639 14.1935 13.5564 14.086 13.6639C13.9785 13.6639 13.871 13.7714 13.7634 13.879L12.5806 15.0617C12.2581 15.3843 11.7204 15.4919 11.2903 15.2768C8.92473 13.879 6.88172 11.9435 5.48387 9.47035C5.26882 8.61014 5.37634 8.0725 5.69893 7.74992L6.88172 6.56713C6.98925 6.4596 6.98925 6.35207 7.09677 6.24454C7.09677 6.13702 7.09677 5.92196 7.09677 5.81444C6.66667 4.95422 6.45161 3.98648 6.23656 3.12627C6.23656 2.91121 6.12903 2.80368 6.02151 2.69616C5.91398 2.58863 5.69892 2.4811 5.5914 2.4811Z" fill="#455A64"/>
</svg>
