<svg width="14" height="15" viewBox="0 0 14 15" fill="none" xmlns="http://www.w3.org/2000/svg">
<path d="M13.4954 5.70497L5.20546 13.9949C5.2022 13.9982 5.19786 14.0014 5.19244 14.0036C5.13818 14.0557 5.07634 14.0947 5.01123 14.1219C4.93962 14.1512 4.86258 14.1663 4.78662 14.1663C4.71067 14.1663 4.63363 14.1522 4.56201 14.1219C4.49257 14.0936 4.42855 14.0513 4.37213 13.9949L3.28272 12.9055C3.24799 12.8708 3.22846 12.8252 3.22412 12.7775C3.21978 12.7319 3.23063 12.6841 3.25559 12.6429L3.25776 12.6386C3.32178 12.5398 3.36735 12.4335 3.39448 12.3228C3.4216 12.21 3.4292 12.0939 3.41835 11.9788V11.9778C3.40641 11.8649 3.37603 11.7521 3.32612 11.6468C3.27837 11.5459 3.21219 11.4515 3.12864 11.3669C3.04508 11.2833 2.9496 11.2171 2.84869 11.1694C2.74344 11.1195 2.63059 11.088 2.51774 11.0771C2.40598 11.0652 2.29096 11.0739 2.18028 11.0999C2.07178 11.126 1.96653 11.1705 1.86995 11.2323C1.82872 11.2638 1.77772 11.2768 1.7289 11.2735C1.68007 11.2703 1.63341 11.2497 1.59652 11.2139C1.50103 11.126 0.504937 10.1331 0.504937 10.1223C0.448513 10.0659 0.406196 10.0018 0.377984 9.9324C0.347602 9.86296 0.333496 9.78592 0.333496 9.70996C0.333496 9.63292 0.347602 9.55697 0.377984 9.48535C0.406196 9.41699 0.447428 9.35406 0.502767 9.29764L8.79487 1.00445C8.85129 0.948025 8.9164 0.905707 8.98476 0.877496C9.05637 0.847114 9.13341 0.833008 9.21045 0.833008C9.28749 0.833008 9.36344 0.847114 9.43506 0.877496C9.5045 0.905707 9.56852 0.948025 9.62495 1.00445L10.722 2.10145C10.7545 2.13401 10.7751 2.17849 10.7805 2.22407C10.786 2.26855 10.7773 2.31521 10.7534 2.35645L10.7512 2.3597C10.6916 2.45519 10.6493 2.55935 10.6265 2.66678C10.6026 2.77745 10.5972 2.89138 10.6102 3.00315V3.00423C10.6243 3.11382 10.6558 3.22233 10.7057 3.32433C10.7534 3.42198 10.8185 3.51421 10.901 3.59668C10.9813 3.67915 11.0724 3.74316 11.1701 3.79091C11.2721 3.84082 11.3817 3.87229 11.4924 3.88639C11.6019 3.89941 11.7126 3.89507 11.8211 3.87229C11.9285 3.8495 12.0316 3.81044 12.1282 3.75402C12.1705 3.72689 12.2204 3.71495 12.2693 3.71929C12.3148 3.72363 12.3604 3.74208 12.3962 3.7768C12.4917 3.86469 13.4954 4.86621 13.4954 4.87598C13.5518 4.9324 13.5941 4.99642 13.6223 5.06586C13.6516 5.13748 13.6668 5.21452 13.6668 5.29047C13.6668 5.36751 13.6527 5.44347 13.6223 5.51508C13.5941 5.58236 13.5529 5.64638 13.4976 5.7028L13.4954 5.70497ZM8.70481 6.78027L9.02273 7.0982C9.03901 7.11448 9.03901 7.14052 9.02273 7.15679C9.01731 7.16222 9.00971 7.16656 9.00212 7.16764L5.33567 8.25597C5.32048 8.26031 5.30528 8.25597 5.29443 8.24512L4.97651 7.92719C4.96023 7.91092 4.96023 7.88487 4.97651 7.8686C4.98193 7.86317 4.98953 7.85883 4.99712 7.85775L8.66357 6.76942C8.67877 6.76508 8.69504 6.77051 8.70481 6.78027ZM6.16683 5.46734C6.22 5.41417 6.27859 5.36751 6.34261 5.32737C6.40555 5.2883 6.47282 5.25575 6.54443 5.23079C6.61822 5.20475 6.692 5.19173 6.76687 5.19065C6.84174 5.18956 6.91661 5.20041 6.99148 5.22211L6.99365 5.2232C7.06744 5.2449 7.14014 5.27854 7.20958 5.32194C7.28011 5.36643 7.34739 5.42068 7.41249 5.48579C7.50906 5.58236 7.58176 5.68218 7.63059 5.78635C7.67942 5.8916 7.70546 6.00119 7.70546 6.11404C7.70654 6.22689 7.68267 6.33431 7.6371 6.43739C7.59044 6.53939 7.52208 6.63705 7.42985 6.72819C7.33762 6.82042 7.23996 6.88987 7.13688 6.93652C7.0338 6.98318 6.92529 7.00597 6.81245 7.00597C6.6996 7.00488 6.59109 6.97993 6.48476 6.9311C6.38059 6.88227 6.27968 6.80957 6.18419 6.713C6.11909 6.6479 6.06375 6.57954 6.02035 6.51009C5.97586 6.43956 5.94331 6.36686 5.92052 6.29199C5.89773 6.21712 5.88688 6.14225 5.88905 6.06738C5.89014 5.99251 5.90424 5.91873 5.9292 5.84494L5.93029 5.84277C5.95524 5.77116 5.98671 5.70497 6.02686 5.64204C6.06483 5.58019 6.11258 5.52159 6.16683 5.46734ZM6.64752 5.95562C6.58675 6.01638 6.54009 6.07281 6.50646 6.12489C6.4739 6.17589 6.45437 6.22255 6.44786 6.26487C6.44352 6.28982 6.44569 6.31369 6.45329 6.3354C6.46088 6.35818 6.47607 6.37988 6.49669 6.4005C6.51731 6.42112 6.53901 6.43522 6.56071 6.44282C6.58241 6.45041 6.6052 6.4515 6.62907 6.44716H6.63124C6.67356 6.44065 6.71913 6.42112 6.77013 6.38856C6.8233 6.35493 6.87972 6.30827 6.9394 6.24751C6.99908 6.18783 7.04574 6.1314 7.07937 6.07932C7.11193 6.02832 7.13146 5.98166 7.13905 5.93826C7.14339 5.91439 7.14122 5.8916 7.13363 5.87099C7.12603 5.84928 7.11084 5.82758 7.09022 5.80588C7.06852 5.78418 7.04682 5.77007 7.02512 5.76139C7.00342 5.7538 6.98063 5.75163 6.95568 5.75488C6.91336 5.76139 6.8667 5.78093 6.8157 5.81348C6.7647 5.8482 6.70828 5.89486 6.64752 5.95562ZM6.56831 8.28093C6.62256 8.22667 6.68115 8.18001 6.74409 8.13987C6.80702 8.09972 6.8743 8.06717 6.94591 8.04221C7.01861 8.01725 7.09239 8.00315 7.16726 8.00206C7.24213 8.00098 7.317 8.01074 7.39296 8.03353C7.46783 8.05632 7.54161 8.08887 7.61106 8.13336C7.68159 8.17676 7.74886 8.23101 7.81397 8.29612C7.91054 8.39269 7.98324 8.4936 8.03315 8.59885C8.08306 8.7041 8.10802 8.81369 8.10802 8.92763C8.10802 9.04047 8.08523 9.14898 8.03858 9.25206C7.99192 9.35406 7.92247 9.45172 7.83133 9.54395C7.7391 9.63618 7.64144 9.70562 7.53944 9.75119C7.43636 9.79785 7.32785 9.82064 7.21501 9.82064C7.10216 9.82064 6.99257 9.79568 6.88623 9.74577C6.78098 9.69694 6.68007 9.62424 6.5835 9.52659L6.58133 9.52441C6.51731 9.45931 6.46305 9.39312 6.42074 9.32368C6.37733 9.25315 6.3437 9.18045 6.32091 9.10558L6.31982 9.10232C6.29812 9.02745 6.28836 8.95367 6.28944 8.87988C6.29053 8.80501 6.30463 8.73123 6.32959 8.65853C6.35455 8.58692 6.3871 8.51964 6.42725 8.45671C6.46739 8.39377 6.51405 8.33518 6.56831 8.28093ZM7.04899 8.76921C6.98823 8.82997 6.94048 8.88748 6.90685 8.93956C6.8743 8.99056 6.85476 9.03722 6.84717 9.08062C6.84283 9.10449 6.845 9.12728 6.85259 9.1479C6.86019 9.1696 6.87538 9.1913 6.896 9.213C6.91661 9.23362 6.93831 9.24881 6.9611 9.2564C6.9828 9.264 7.00559 9.26617 7.03055 9.26291C7.07395 9.25532 7.12061 9.23579 7.1716 9.20323C7.22477 9.1696 7.2812 9.12185 7.34196 9.06109C7.40272 9.00033 7.44938 8.9439 7.4841 8.89073C7.51666 8.83974 7.53727 8.79199 7.54487 8.74859V8.74642C7.54812 8.72363 7.54595 8.70085 7.53836 8.68023C7.53076 8.65744 7.51557 8.63574 7.49496 8.61513C7.47434 8.59451 7.45264 8.57932 7.42985 8.57172C7.40815 8.56413 7.38536 8.56304 7.36149 8.56738H7.36041C7.317 8.57498 7.27035 8.59451 7.22043 8.62598C7.16618 8.66178 7.10976 8.70953 7.04899 8.76921ZM2.43853 7.963L6.54118 12.0656L11.564 7.04286L7.46132 2.94021L2.43853 7.963ZM6.24713 12.3597L2.14448 8.25705L0.805501 9.59603C0.79031 9.61122 0.778375 9.62967 0.770779 9.6492C0.762099 9.6709 0.757758 9.6926 0.757758 9.7143C0.757758 9.73709 0.762099 9.75879 0.769694 9.77941C0.77729 9.79785 0.78814 9.81521 0.803331 9.8304L1.78206 10.8091C1.89817 10.7516 2.02186 10.7093 2.14665 10.6854C2.28337 10.6594 2.42334 10.6529 2.56114 10.667C2.72282 10.6811 2.88124 10.7245 3.02881 10.7939C3.17421 10.8623 3.30984 10.9567 3.42811 11.0761C3.54639 11.1943 3.63862 11.3289 3.70589 11.4721C3.77642 11.6229 3.82091 11.7824 3.83719 11.9441C3.85129 12.0819 3.84587 12.2219 3.81874 12.3575C3.79487 12.4834 3.75364 12.606 3.69504 12.7232L4.6716 13.6998C4.6868 13.715 4.70524 13.7269 4.72477 13.7345C4.74539 13.7432 4.76818 13.7475 4.78988 13.7475C4.81266 13.7475 4.83436 13.7432 4.85498 13.7356C4.87451 13.728 4.89187 13.716 4.90815 13.6998L6.24713 12.3597ZM7.75537 2.64616L11.858 6.74881L13.1992 5.40766C13.2035 5.40332 13.2089 5.40007 13.2154 5.3979C13.2252 5.38596 13.2328 5.37294 13.2382 5.35883C13.2469 5.33713 13.2512 5.31543 13.2512 5.29373C13.2512 5.27094 13.2469 5.24924 13.2393 5.22862C13.2317 5.21018 13.2209 5.19282 13.2057 5.17763L12.2183 4.19021C12.1022 4.2423 11.9795 4.27919 11.8558 4.29981C11.7224 4.32151 11.5857 4.32476 11.4511 4.30849C11.2927 4.29004 11.1397 4.24555 10.9943 4.17502C10.8543 4.10666 10.7241 4.01552 10.6069 3.89833C10.4908 3.78223 10.3997 3.65093 10.3313 3.51204C10.2608 3.36665 10.2163 3.21148 10.1979 3.05523C10.1816 2.92068 10.1848 2.78396 10.2065 2.6505C10.2272 2.5268 10.2641 2.40419 10.3161 2.28809L9.33089 1.30284C9.3157 1.28765 9.29726 1.27572 9.27772 1.26812C9.25711 1.25944 9.23432 1.2551 9.21262 1.2551C9.18983 1.2551 9.16813 1.25944 9.14752 1.26704C9.12799 1.27463 9.11062 1.28657 9.09435 1.30284L7.75537 2.64616Z" fill="#00A4CF"/>
</svg>
