<svg width="24" height="21" viewBox="0 0 24 21" fill="none" xmlns="http://www.w3.org/2000/svg">
<path d="M22.8889 4.77834H6.94445C6.72967 4.77834 6.55556 4.95245 6.55556 5.16723C6.55556 5.38201 6.72967 5.55612 6.94445 5.55612H9.29528C7.56943 6.65432 6.53335 8.56616 6.55556 10.6117C6.53335 12.6572 7.56943 14.569 9.29528 15.6672H1.11111V5.55612H5C5.21478 5.55612 5.38889 5.38201 5.38889 5.16723C5.38889 4.95245 5.21478 4.77834 5 4.77834H1.11111C0.681559 4.77834 0.333336 5.12657 0.333336 5.55612V15.6672C0.333336 16.0968 0.681559 16.445 1.11111 16.445H22.8889C23.3184 16.445 23.6667 16.0968 23.6667 15.6672V5.55612C23.6667 5.12657 23.3184 4.77834 22.8889 4.77834ZM7.33334 10.6117C7.33334 7.82412 9.42673 5.55612 12 5.55612C14.5733 5.55612 16.6667 7.82412 16.6667 10.6117C16.6667 13.3992 14.5733 15.6672 12 15.6672C9.42673 15.6672 7.33334 13.3992 7.33334 10.6117ZM22.8889 15.6672H14.7047C16.4306 14.569 17.4667 12.6572 17.4444 10.6117C17.4667 8.56616 16.4306 6.65432 14.7047 5.55612H22.8889V15.6672Z" fill="#2E353A"/>
<path d="M20.8418 0.582237C20.6577 0.490101 20.4445 0.474718 20.2491 0.539459L11.8724 3.34685C11.6684 3.41515 11.5584 3.63592 11.6267 3.83996C11.695 4.044 11.9157 4.15404 12.1198 4.08574L20.4941 1.27835L21.3535 3.84074C21.3977 3.97273 21.5088 4.07116 21.6452 4.09895C21.7816 4.12674 21.9224 4.07967 22.0146 3.97548C22.1069 3.87128 22.1366 3.72578 22.0924 3.59379L21.2326 1.03296C21.1685 0.836104 21.0276 0.673534 20.8418 0.582237Z" fill="#2E353A"/>
<path d="M11.8802 17.138L3.50588 19.945L2.64644 17.3826C2.57824 17.1786 2.35756 17.0685 2.15352 17.1367C1.94948 17.2048 1.83935 17.4255 1.90755 17.6296L2.76582 20.1896C2.82943 20.3861 2.96965 20.5486 3.15471 20.6403C3.26238 20.6939 3.38096 20.7218 3.50121 20.722C3.58481 20.7221 3.66789 20.709 3.74738 20.6831L12.124 17.8757C12.3281 17.8074 12.4381 17.5867 12.3698 17.3826C12.3015 17.1786 12.0808 17.0685 11.8767 17.1368L11.8802 17.138Z" fill="#2E353A"/>
<path d="M20.1667 14.8895H21.7222C21.937 14.8895 22.1111 14.7153 22.1111 14.5006V12.945C22.1111 12.7302 21.937 12.5561 21.7222 12.5561C21.5075 12.5561 21.3334 12.7302 21.3334 12.945V14.1117H20.1667C19.9519 14.1117 19.7778 14.2858 19.7778 14.5006C19.7778 14.7153 19.9519 14.8895 20.1667 14.8895Z" fill="#2E353A"/>
<path d="M2.27777 12.5561C2.063 12.5561 1.88888 12.7302 1.88888 12.945V14.5006C1.88888 14.7153 2.063 14.8895 2.27777 14.8895H3.83333C4.04811 14.8895 4.22222 14.7153 4.22222 14.5006C4.22222 14.2858 4.04811 14.1117 3.83333 14.1117H2.66666V12.945C2.66666 12.7302 2.49255 12.5561 2.27777 12.5561Z" fill="#2E353A"/>
<path d="M3.83333 6.3339H2.27777C2.063 6.3339 1.88888 6.50801 1.88888 6.72279V8.27834C1.88888 8.49312 2.063 8.66723 2.27777 8.66723C2.49255 8.66723 2.66666 8.49312 2.66666 8.27834V7.11168H3.83333C4.04811 7.11168 4.22222 6.93756 4.22222 6.72279C4.22222 6.50801 4.04811 6.3339 3.83333 6.3339Z" fill="#2E353A"/>
<path d="M20.1667 7.11168H21.3334V8.27834C21.3334 8.49312 21.5075 8.66723 21.7222 8.66723C21.937 8.66723 22.1111 8.49312 22.1111 8.27834V6.72279C22.1111 6.50801 21.937 6.3339 21.7222 6.3339H20.1667C19.9519 6.3339 19.7778 6.50801 19.7778 6.72279C19.7778 6.93756 19.9519 7.11168 20.1667 7.11168Z" fill="#2E353A"/>
<path d="M10.8708 7.5C11.2585 7.5 11.5544 7.59969 11.7585 7.79907C11.881 7.91745 11.9728 8.07944 12.034 8.28505C12.102 8.48442 12.1361 8.76791 12.1361 9.13551V9.84579H15.6667V10.5187H12.1361V13.0981C12.1361 13.391 12.1769 13.5903 12.2585 13.6963C12.3469 13.8022 12.517 13.8551 12.7687 13.8551C13.0476 13.8551 13.3197 13.7866 13.585 13.6495C13.8503 13.5062 14.068 13.3224 14.2381 13.0981C14.415 12.8738 14.5034 12.6371 14.5034 12.3879C14.5034 12.0763 14.3095 11.9206 13.9218 11.9206C13.7381 11.9206 13.568 11.9393 13.4116 11.9766L13.3095 11.3411C13.4252 11.31 13.5476 11.2882 13.6769 11.2757C13.8129 11.257 13.949 11.2477 14.085 11.2477C14.4456 11.2477 14.7381 11.3318 14.9626 11.5C15.1939 11.662 15.3095 11.9268 15.3095 12.2944C15.3095 12.581 15.2347 12.8583 15.085 13.1262C14.9422 13.3878 14.7483 13.6246 14.5034 13.8364C14.2585 14.0421 13.983 14.2041 13.6769 14.3224C13.3708 14.4408 13.0578 14.5 12.7381 14.5C12.4864 14.5 12.2789 14.4751 12.1156 14.4252C11.9524 14.3692 11.8163 14.2944 11.7075 14.2009C11.6054 14.1137 11.5204 13.9984 11.4524 13.8551C11.3844 13.7118 11.3503 13.472 11.3503 13.1355V10.5187H10.3605V9.84579H11.3503V9.1729C11.3503 8.84891 11.3095 8.6028 11.2279 8.43458C11.1463 8.26012 10.9524 8.1729 10.6463 8.1729C10.517 8.1729 10.3878 8.19159 10.2585 8.22897C10.1361 8.26012 10.0306 8.29128 9.94218 8.32243L9.66667 7.74299C9.87075 7.66199 10.068 7.6028 10.2585 7.56542C10.4558 7.52181 10.6599 7.5 10.8708 7.5Z" fill="#2E353A"/>
</svg>
