<svg width="24" height="25" viewBox="0 0 24 25" fill="none" xmlns="http://www.w3.org/2000/svg">
<path d="M12 2.92578L6.5 11.9258H17.5L12 2.92578ZM12 6.76578L13.93 9.92578H10.06L12 6.76578ZM17.5 13.9258C15.01 13.9258 13 15.9358 13 18.4258C13 20.9158 15.01 22.9258 17.5 22.9258C19.99 22.9258 22 20.9158 22 18.4258C22 15.9358 19.99 13.9258 17.5 13.9258ZM17.5 20.9258C16.12 20.9258 15 19.8058 15 18.4258C15 17.0458 16.12 15.9258 17.5 15.9258C18.88 15.9258 20 17.0458 20 18.4258C20 19.8058 18.88 20.9258 17.5 20.9258ZM3 22.4258H11V14.4258H3V22.4258ZM5 16.4258H9V20.4258H5V16.4258Z" fill="#403E99"/>
</svg>
