<svg width="14" height="15" viewBox="0 0 14 15" fill="none" xmlns="http://www.w3.org/2000/svg">
<path fill-rule="evenodd" clip-rule="evenodd" d="M0.696116 2.72741C1.03522 2.3883 1.49515 2.1978 1.97471 2.1978H6.19387C6.52675 2.1978 6.7966 2.46765 6.7966 2.80053C6.7966 3.13342 6.52675 3.40327 6.19387 3.40327H1.97471C1.81486 3.40327 1.66155 3.46677 1.54851 3.57981C1.43548 3.69284 1.37198 3.84615 1.37198 4.00601V12.4443C1.37198 12.6042 1.43548 12.7575 1.54851 12.8705C1.66155 12.9835 1.81486 13.0471 1.97471 13.0471H10.413C10.5729 13.0471 10.7262 12.9835 10.8392 12.8705C10.9523 12.7575 11.0158 12.6042 11.0158 12.4443V8.22516C11.0158 7.89228 11.2856 7.62242 11.6185 7.62242C11.9514 7.62242 12.2212 7.89228 12.2212 8.22516V12.4443C12.2212 12.9239 12.0307 13.3838 11.6916 13.7229C11.3525 14.062 10.8926 14.2525 10.413 14.2525H1.97471C1.49515 14.2525 1.03522 14.062 0.696116 13.7229C0.357011 13.3838 0.166504 12.9239 0.166504 12.4443V4.00601C0.166504 3.52644 0.357011 3.06651 0.696116 2.72741Z" fill="#00A4CF"/>
<path fill-rule="evenodd" clip-rule="evenodd" d="M11.6185 2.12466C11.4392 2.12466 11.2673 2.19587 11.1406 2.32262L5.53265 7.93056L5.21404 9.20498L6.48846 8.88637L12.0964 3.27843C12.2232 3.15168 12.2944 2.97977 12.2944 2.80052C12.2944 2.62127 12.2232 2.44937 12.0964 2.32262C11.9697 2.19587 11.7977 2.12466 11.6185 2.12466ZM10.2882 1.47022C10.641 1.1174 11.1195 0.919189 11.6185 0.919189C12.1175 0.919189 12.596 1.1174 12.9488 1.47022C13.3016 1.82304 13.4998 2.30156 13.4998 2.80052C13.4998 3.29948 13.3016 3.77801 12.9488 4.13083L7.22281 9.85682C7.14556 9.93407 7.04877 9.98887 6.94279 10.0154L4.53185 10.6181C4.32645 10.6694 4.10917 10.6093 3.95946 10.4596C3.80975 10.3098 3.74957 10.0926 3.80092 9.88717L4.40366 7.47623C4.43015 7.37025 4.48495 7.27346 4.5622 7.19621L10.2882 1.47022Z" fill="#00A4CF"/>
</svg>
