<svg width="18" height="16" viewBox="0 0 18 16" fill="none" xmlns="http://www.w3.org/2000/svg">
<path fill-rule="evenodd" clip-rule="evenodd" d="M0.736879 0.938729C0.861014 0.671181 1.12915 0.5 1.42409 0.5H16.5756C16.8705 0.5 17.1387 0.671181 17.2628 0.938729C17.3869 1.20628 17.3445 1.52155 17.154 1.74676L11.2726 8.70162V14.8939C11.2726 15.1565 11.1366 15.4003 10.9133 15.5384C10.6899 15.6764 10.411 15.6889 10.1762 15.5715L7.14589 14.0564C6.88924 13.928 6.72711 13.6657 6.72711 13.3788V8.70162L0.845627 1.74676C0.655175 1.52155 0.612744 1.20628 0.736879 0.938729ZM3.05689 2.01515L8.06315 7.93505C8.1788 8.07181 8.24226 8.24512 8.24226 8.42423V12.9106L9.75741 13.6681V8.42423C9.75741 8.24512 9.82087 8.07181 9.93653 7.93505L14.9428 2.01515H3.05689Z" fill="#455A64"/>
</svg>
