<svg width="17" height="30" viewBox="0 0 17 30" fill="none" xmlns="http://www.w3.org/2000/svg">
<path d="M16.1485 6.68233C16.1485 7.75376 15.9605 8.7218 15.5846 9.58647C15.2086 10.4323 14.7293 11.2406 14.1466 12.0113C13.5827 12.782 12.9624 13.5338 12.2857 14.2669C11.609 15 10.9699 15.7801 10.3684 16.6071C9.78572 17.4342 9.28759 18.3365 8.87406 19.3139C8.46053 20.2914 8.22556 21.4098 8.16917 22.6692H7.29511C7.3515 20.9586 7.63346 19.3421 8.14098 17.8195C8.6485 16.2782 9.33459 14.7744 10.1992 13.3083C10.7632 12.3496 11.2237 11.344 11.5808 10.2914C11.9568 9.23872 12.1447 8.1297 12.1447 6.96429C12.1447 6.21241 12.0414 5.48872 11.8346 4.79323C11.6466 4.09774 11.3459 3.47744 10.9323 2.93233C10.5376 2.38722 10.0301 1.95489 9.40977 1.63534C8.80827 1.29699 8.08459 1.12782 7.23872 1.12782C6.84399 1.12782 6.41165 1.18421 5.94173 1.29699C5.4718 1.39098 5.03008 1.55075 4.61654 1.77632C4.2218 2.00188 3.88346 2.29323 3.6015 2.65038C3.33835 3.00752 3.20677 3.43045 3.20677 3.91917C3.20677 4.20113 3.27256 4.51128 3.40414 4.84962C3.55451 5.18797 3.70489 5.52632 3.85526 5.86466C4.02444 6.18421 4.17481 6.50376 4.30639 6.82331C4.45677 7.12406 4.53196 7.38722 4.53196 7.61278C4.53196 8.08271 4.37218 8.49624 4.05263 8.85338C3.75188 9.21053 3.35714 9.3891 2.86842 9.3891C2.45489 9.3891 2.09774 9.28571 1.79699 9.07895C1.49624 8.85338 1.24248 8.58083 1.03571 8.26128C0.847744 7.92293 0.706767 7.55639 0.612782 7.16165C0.537594 6.76692 0.5 6.40038 0.5 6.06203C0.5 5.0094 0.725564 4.09774 1.17669 3.32707C1.62782 2.55639 2.21053 1.92669 2.92481 1.43797C3.65789 0.949248 4.47556 0.592105 5.37782 0.366541C6.29887 0.12218 7.22932 0 8.16917 0C9.20301 0 10.1992 0.131579 11.1579 0.394737C12.1165 0.657895 12.9624 1.06203 13.6955 1.60714C14.4474 2.15226 15.0395 2.84774 15.4718 3.69361C15.9229 4.52068 16.1485 5.51692 16.1485 6.68233ZM10.2556 27.6598C10.2556 28.3177 10.0207 28.8722 9.55075 29.3233C9.09962 29.7744 8.54511 30 7.88722 30C7.22932 30 6.65602 29.7838 6.16729 29.3515C5.69737 28.9192 5.46241 28.3553 5.46241 27.6598C5.46241 27.3214 5.5282 27.0019 5.65977 26.7011C5.79135 26.4004 5.96992 26.1466 6.19549 25.9398C6.42105 25.7143 6.67481 25.5357 6.95677 25.4041C7.25752 25.2726 7.56767 25.2068 7.88722 25.2068C8.54511 25.2068 9.09962 25.4511 9.55075 25.9398C10.0207 26.4098 10.2556 26.9831 10.2556 27.6598Z" fill="#455A64"/>
</svg>
