<svg width="24" height="25" viewBox="0 0 24 25" fill="none" xmlns="http://www.w3.org/2000/svg">
<path fill-rule="evenodd" clip-rule="evenodd" d="M10.3249 3.92817C11.3478 2.90524 12.7352 2.33057 14.1818 2.33057H16.9091C17.4112 2.33057 17.8182 2.73758 17.8182 3.23966V6.87602C17.8182 7.3781 17.4112 7.78511 16.9091 7.78511H14.1818V9.60329H16.9091C17.189 9.60329 17.4534 9.73227 17.6256 9.95292C17.7979 10.1736 17.8589 10.4613 17.791 10.7329L16.8819 14.3692C16.7808 14.7739 16.4172 15.0578 16 15.0578H14.1818V21.4215C14.1818 21.9236 13.7748 22.3306 13.2727 22.3306H9.63636C9.13429 22.3306 8.72727 21.9236 8.72727 21.4215V15.0578H6.90909C6.40701 15.0578 6 14.6508 6 14.1487V10.5124C6 10.0103 6.40701 9.60329 6.90909 9.60329H8.72727V7.78511C8.72727 6.33848 9.30195 4.95109 10.3249 3.92817ZM14.1818 4.14875C13.2174 4.14875 12.2925 4.53186 11.6105 5.21381C10.9286 5.89577 10.5455 6.82069 10.5455 7.78511V10.5124C10.5455 11.0145 10.1384 11.4215 9.63636 11.4215H7.81818V13.2397H9.63636C10.1384 13.2397 10.5455 13.6467 10.5455 14.1487V20.5124H12.3636V14.1487C12.3636 13.6467 12.7707 13.2397 13.2727 13.2397H15.2902L15.7447 11.4215H13.2727C12.7707 11.4215 12.3636 11.0145 12.3636 10.5124V7.78511C12.3636 7.3029 12.5552 6.84044 12.8962 6.49946C13.2371 6.15849 13.6996 5.96693 14.1818 5.96693H16V4.14875H14.1818Z" fill="#455A64"/>
</svg>
