<svg width="30" height="29" viewBox="0 0 30 29" fill="none" xmlns="http://www.w3.org/2000/svg">
<path d="M28.4981 25.0616C28.4989 25.0404 28.4992 25.0194 28.4992 24.9986C28.4986 24.4684 28.2877 23.96 27.9128 23.5851C27.5379 23.2102 27.0296 22.9993 26.4993 22.9987V13.7492L28.2992 12.3993C28.3618 12.3524 28.4124 12.2915 28.4471 12.2215C28.4819 12.1515 28.4997 12.0744 28.4992 11.9962C28.4987 11.9181 28.4799 11.8411 28.4443 11.7716C28.4087 11.702 28.3573 11.6418 28.2942 11.5957L23.9995 8.45714V2.99983C24.1321 2.99983 24.2593 2.94715 24.353 2.85339C24.4468 2.75963 24.4995 2.63246 24.4995 2.49986V0.499972C24.4995 0.367371 24.4468 0.240201 24.353 0.146438C24.2593 0.0526754 24.1321 0 23.9995 0H18.9998C18.8672 0 18.74 0.0526754 18.6462 0.146438C18.5525 0.240201 18.4998 0.367371 18.4998 0.499972V2.49986C18.4998 2.63246 18.5525 2.75963 18.6462 2.85339C18.74 2.94715 18.8672 2.99983 18.9998 2.99983V4.80354L15.295 2.09619C15.2094 2.03362 15.1061 1.9999 15 1.9999C14.894 1.9999 14.7906 2.03362 14.705 2.09619L1.70576 11.5957C1.64267 11.6418 1.59126 11.702 1.55566 11.7716C1.52007 11.8411 1.50127 11.9181 1.50079 11.9962C1.5003 12.0744 1.51814 12.1515 1.55287 12.2215C1.58759 12.2915 1.63824 12.3524 1.70076 12.3993L3.50065 13.7492V22.9987C2.97043 22.9993 2.4621 23.2102 2.08718 23.5851C1.71226 23.96 1.50136 24.4684 1.50077 24.9986C1.50077 25.0194 1.50114 25.0404 1.50189 25.0616C1.03023 25.1828 0.619019 25.4721 0.345424 25.875C0.0718282 26.2778 -0.0453517 26.7667 0.0158697 27.2499C0.0770911 27.733 0.312506 28.1772 0.677945 28.4991C1.04338 28.821 1.51373 28.9986 2.00074 28.9984H26.4993H27.9993C28.4863 28.9986 28.9566 28.821 29.3221 28.4991C29.6875 28.1772 29.9229 27.733 29.9841 27.2499C30.0454 26.7667 29.9282 26.2778 29.6546 25.875C29.381 25.4721 28.9698 25.1828 28.4981 25.0616ZM19.4997 0.999943H23.4995V1.99989H19.4997V0.999943ZM19.9997 5.49969V2.99983H22.9995V7.72644L19.9524 5.49969H19.9997ZM15 3.11907L27.159 12.0046L25.9948 12.8777L15.2941 5.09534C15.2086 5.03317 15.1057 4.99968 15 4.99968C14.8943 4.99968 14.7914 5.03317 14.7059 5.09534L4.00519 12.8777L2.841 12.0046L15 3.11907ZM1.0008 26.9985C1.00107 26.7359 1.10446 26.484 1.28869 26.297C1.47292 26.1099 1.72324 26.0028 1.98574 25.9985C2.0113 26.0021 2.03805 26.0051 2.06411 26.0068C2.14696 26.0121 2.22981 25.9966 2.30519 25.9618C2.38056 25.927 2.44608 25.874 2.49583 25.8075C2.54559 25.741 2.57801 25.6632 2.59018 25.5811C2.60234 25.499 2.59387 25.4151 2.56552 25.3371C2.52414 25.229 2.5022 25.1144 2.50071 24.9986C2.50103 24.7335 2.60648 24.4793 2.79394 24.2919C2.98139 24.1044 3.23555 23.9989 3.50065 23.9986V27.9984H2.00074C1.73564 27.9981 1.48148 27.8926 1.29402 27.7052C1.10656 27.5177 1.00111 27.2636 1.0008 26.9985ZM22.4996 27.9984H16.4999V16.999H22.4996V27.9984ZM23.4995 27.9984V16.4991C23.4995 16.3665 23.4468 16.2393 23.3531 16.1455C23.2593 16.0518 23.1321 15.9991 22.9995 15.9991H15.9999C15.8673 15.9991 15.7402 16.0518 15.6464 16.1455C15.5526 16.2393 15.5 16.3665 15.5 16.4991V27.9984H4.5006V13.7538L15 6.1179L25.4994 13.7538V27.9984H23.4995ZM27.9993 27.9984H26.4993V23.9986C26.7645 23.9989 27.0186 24.1044 27.2061 24.2919C27.3935 24.4793 27.499 24.7335 27.4993 24.9986C27.4978 25.1144 27.4759 25.2291 27.4345 25.3374C27.4061 25.4154 27.3977 25.4993 27.4098 25.5814C27.422 25.6635 27.4544 25.7413 27.5042 25.8078C27.5539 25.8742 27.6194 25.9272 27.6948 25.962C27.7702 25.9968 27.853 26.0123 27.9359 26.0071C27.962 26.0054 27.9875 26.0023 28.0131 25.9988C28.2783 26.0008 28.533 26.108 28.7191 26.2969C28.9053 26.4859 29.0087 26.741 29.0067 27.0062C29.0047 27.2714 28.8975 27.525 28.7085 27.7111C28.5196 27.8972 28.2645 28.0004 27.9993 27.9984Z" fill="white"/>
<path d="M13 15.9991H7.00038C6.86778 15.9991 6.74061 16.0518 6.64685 16.1455C6.55309 16.2393 6.50041 16.3665 6.50041 16.4991V23.4987C6.50041 23.6313 6.55309 23.7584 6.64685 23.8522C6.74061 23.946 6.86778 23.9986 7.00038 23.9986H13C13.1326 23.9986 13.2598 23.946 13.3536 23.8522C13.4473 23.7584 13.5 23.6313 13.5 23.4987V16.4991C13.5 16.3665 13.4473 16.2393 13.3536 16.1455C13.2598 16.0518 13.1326 15.9991 13 15.9991ZM12.5001 19.4989H10.5002V16.999H12.5001V19.4989ZM9.50024 16.999V19.4989H7.50035V16.999H9.50024ZM7.50035 20.4988H9.50024V22.9987H7.50035V20.4988ZM10.5002 22.9987V20.4988H12.5001V22.9987H10.5002Z" fill="white"/>
<path d="M18.4618 22.1901C18.5675 21.935 18.4464 21.6425 18.1913 21.5368C17.9361 21.4312 17.6437 21.5523 17.538 21.8074C17.4323 22.0625 17.5535 22.355 17.8086 22.4607C18.0637 22.5663 18.3562 22.4452 18.4618 22.1901Z" fill="white"/>
</svg>
