<svg width="18" height="18" viewBox="0 0 18 18" fill="none" xmlns="http://www.w3.org/2000/svg">
<path fill-rule="evenodd" clip-rule="evenodd" d="M9.00008 2.18184C5.2345 2.18184 2.1819 5.23444 2.1819 9.00002C2.1819 12.7656 5.2345 15.8182 9.00008 15.8182C12.7657 15.8182 15.8183 12.7656 15.8183 9.00002C15.8183 5.23444 12.7657 2.18184 9.00008 2.18184ZM0.666748 9.00002C0.666748 4.39765 4.39771 0.666687 9.00008 0.666687C13.6025 0.666687 17.3334 4.39765 17.3334 9.00002C17.3334 13.6024 13.6025 17.3334 9.00008 17.3334C4.39771 17.3334 0.666748 13.6024 0.666748 9.00002Z" fill="#00A4CF"/>
<path fill-rule="evenodd" clip-rule="evenodd" d="M9.00008 8.24244C9.41848 8.24244 9.75766 8.58162 9.75766 9.00002V12.0303C9.75766 12.4487 9.41848 12.7879 9.00008 12.7879C8.58168 12.7879 8.24251 12.4487 8.24251 12.0303V9.00002C8.24251 8.58162 8.58168 8.24244 9.00008 8.24244Z" fill="#00A4CF"/>
<path fill-rule="evenodd" clip-rule="evenodd" d="M8.24251 5.96972C8.24251 5.55132 8.58168 5.21214 9.00008 5.21214H9.00766C9.42606 5.21214 9.76523 5.55132 9.76523 5.96972C9.76523 6.38812 9.42606 6.72729 9.00766 6.72729H9.00008C8.58168 6.72729 8.24251 6.38812 8.24251 5.96972Z" fill="#00A4CF"/>
</svg>
