<svg width="24" height="25" viewBox="0 0 24 25" fill="none" xmlns="http://www.w3.org/2000/svg">
<path fill-rule="evenodd" clip-rule="evenodd" d="M7.45455 4.14875C5.44624 4.14875 3.81818 5.7768 3.81818 7.78511V16.876C3.81818 18.8843 5.44624 20.5124 7.45455 20.5124H16.5455C18.5538 20.5124 20.1818 18.8843 20.1818 16.876V7.78511C20.1818 5.7768 18.5538 4.14875 16.5455 4.14875H7.45455ZM2 7.78511C2 4.77265 4.44208 2.33057 7.45455 2.33057H16.5455C19.5579 2.33057 22 4.77265 22 7.78511V16.876C22 19.8885 19.5579 22.3306 16.5455 22.3306H7.45455C4.44208 22.3306 2 19.8885 2 16.876V7.78511Z" fill="#455A64"/>
<path fill-rule="evenodd" clip-rule="evenodd" d="M12.4394 9.59337C11.8719 9.50923 11.2924 9.60615 10.7832 9.87036C10.274 10.1346 9.86114 10.5526 9.60324 11.065C9.34533 11.5774 9.25556 12.1581 9.3467 12.7244C9.43783 13.2908 9.70523 13.814 10.1109 14.2196C10.5165 14.6252 11.0397 14.8926 11.606 14.9838C12.1724 15.0749 12.7531 14.9851 13.2655 14.7272C13.7779 14.4693 14.1959 14.0564 14.4601 13.5472C14.7243 13.0381 14.8212 12.4585 14.7371 11.8911C14.6513 11.3123 14.3816 10.7764 13.9678 10.3627C13.554 9.94892 13.0182 9.67921 12.4394 9.59337ZM9.94583 8.2565C10.7945 7.81616 11.7603 7.65462 12.7061 7.79486C13.6708 7.93791 14.5639 8.38743 15.2535 9.07703C15.943 9.76662 16.3926 10.6597 16.5356 11.6244C16.6759 12.5701 16.5143 13.536 16.074 14.3846C15.6336 15.2333 14.9369 15.9215 14.0829 16.3513C13.2289 16.7811 12.2611 16.9308 11.3172 16.7789C10.3733 16.627 9.50126 16.1813 8.82521 15.5053C8.14916 14.8292 7.7035 13.9572 7.55161 13.0133C7.39971 12.0694 7.54933 11.1016 7.97917 10.2476C8.40901 9.39356 9.0972 8.69684 9.94583 8.2565Z" fill="#455A64"/>
<path fill-rule="evenodd" clip-rule="evenodd" d="M16.0909 7.33057C16.0909 6.82849 16.4979 6.42148 17 6.42148H17.0091C17.5112 6.42148 17.9182 6.82849 17.9182 7.33057C17.9182 7.83264 17.5112 8.23966 17.0091 8.23966H17C16.4979 8.23966 16.0909 7.83264 16.0909 7.33057Z" fill="#455A64"/>
</svg>
