<svg width="24" height="25" viewBox="0 0 24 25" fill="none" xmlns="http://www.w3.org/2000/svg">
<path fill-rule="evenodd" clip-rule="evenodd" d="M15.6364 9.60329C14.4308 9.60329 13.2747 10.0822 12.4222 10.9346C11.5698 11.7871 11.0909 12.9432 11.0909 14.1487V19.6033H12.9091V14.1487C12.9091 13.4254 13.1964 12.7317 13.7079 12.2203C14.2194 11.7088 14.913 11.4215 15.6364 11.4215C16.3597 11.4215 17.0534 11.7088 17.5648 12.2203C18.0763 12.7317 18.3636 13.4254 18.3636 14.1487V19.6033H20.1818V14.1487C20.1818 12.9432 19.7029 11.7871 18.8505 10.9346C17.998 10.0822 16.8419 9.60329 15.6364 9.60329ZM15.6364 7.78511C13.9486 7.78511 12.33 8.45557 11.1366 9.64898C9.94318 10.8424 9.27273 12.461 9.27273 14.1487V20.5124C9.27273 21.0145 9.67974 21.4215 10.1818 21.4215H13.8182C14.3203 21.4215 14.7273 21.0145 14.7273 20.5124V14.1487C14.7273 13.9076 14.8231 13.6764 14.9935 13.5059C15.164 13.3354 15.3953 13.2397 15.6364 13.2397C15.8775 13.2397 16.1087 13.3354 16.2792 13.5059C16.4497 13.6764 16.5455 13.9076 16.5455 14.1487V20.5124C16.5455 21.0145 16.9525 21.4215 17.4545 21.4215H21.0909C21.593 21.4215 22 21.0145 22 20.5124V14.1487C22 12.461 21.3295 10.8424 20.1361 9.64898C18.9427 8.45557 17.3241 7.78511 15.6364 7.78511Z" fill="#455A64"/>
<path fill-rule="evenodd" clip-rule="evenodd" d="M2 9.60329C2 9.10122 2.40701 8.6942 2.90909 8.6942H6.54545C7.04753 8.6942 7.45455 9.10122 7.45455 9.60329V20.5124C7.45455 21.0145 7.04753 21.4215 6.54545 21.4215H2.90909C2.40701 21.4215 2 21.0145 2 20.5124V9.60329ZM3.81818 10.5124V19.6033H5.63636V10.5124H3.81818Z" fill="#455A64"/>
<path fill-rule="evenodd" clip-rule="evenodd" d="M4.72727 4.14875C4.2252 4.14875 3.81818 4.55576 3.81818 5.05784C3.81818 5.55992 4.2252 5.96693 4.72727 5.96693C5.22935 5.96693 5.63636 5.55992 5.63636 5.05784C5.63636 4.55576 5.22935 4.14875 4.72727 4.14875ZM2 5.05784C2 3.55161 3.22104 2.33057 4.72727 2.33057C6.2335 2.33057 7.45455 3.55161 7.45455 5.05784C7.45455 6.56407 6.2335 7.78511 4.72727 7.78511C3.22104 7.78511 2 6.56407 2 5.05784Z" fill="#455A64"/>
</svg>
