<svg width="12" height="14" viewBox="0 0 12 14" fill="none" xmlns="http://www.w3.org/2000/svg">
<path fill-rule="evenodd" clip-rule="evenodd" d="M5.5556 1.11112C4.37685 1.11112 3.24638 1.57938 2.41288 2.41288C1.57938 3.24638 1.11112 4.37685 1.11112 5.5556C1.11112 7.27675 2.23098 8.94687 3.45889 10.243C4.06148 10.8791 4.66596 11.3998 5.12041 11.7617C5.28955 11.8963 5.43728 12.0085 5.5556 12.096C5.67392 12.0085 5.82165 11.8963 5.99078 11.7617C6.44523 11.3998 7.04971 10.8791 7.65231 10.243C8.88021 8.94687 10.0001 7.27675 10.0001 5.5556C10.0001 4.37685 9.53182 3.24638 8.69832 2.41288C7.86482 1.57938 6.73435 1.11112 5.5556 1.11112ZM5.5556 12.7779C5.24743 13.2401 5.24729 13.24 5.24713 13.2399L5.24554 13.2389L5.24184 13.2364L5.22911 13.2278C5.21829 13.2204 5.20286 13.2099 5.18313 13.1962C5.14367 13.1689 5.08696 13.1291 5.01548 13.0774C4.87256 12.9742 4.67024 12.8236 4.42827 12.6309C3.94521 12.2462 3.29969 11.6905 2.65227 11.0072C1.38016 9.66438 0 7.72336 0 5.5556C3.31139e-08 4.08216 0.58532 2.66907 1.6272 1.6272C2.66907 0.58532 4.08216 0 5.5556 0C7.02903 0 8.44212 0.58532 9.484 1.6272C10.5259 2.66907 11.1112 4.08216 11.1112 5.5556C11.1112 7.72336 9.73104 9.66438 8.45893 11.0072C7.81151 11.6905 7.16598 12.2462 6.68293 12.6309C6.44096 12.8236 6.23863 12.9742 6.09572 13.0774C6.02423 13.1291 5.96753 13.1689 5.92807 13.1962C5.90834 13.2099 5.89291 13.2204 5.88209 13.2278L5.86936 13.2364L5.86566 13.2389L5.86448 13.2397C5.86432 13.2398 5.86377 13.2401 5.5556 12.7779ZM5.5556 12.7779L5.86377 13.2401C5.67715 13.3645 5.43374 13.3643 5.24713 13.2399L5.5556 12.7779Z" fill="#00A4CF"/>
<path fill-rule="evenodd" clip-rule="evenodd" d="M5.55574 4.44413C4.94208 4.44413 4.44462 4.94159 4.44462 5.55525C4.44462 6.1689 4.94208 6.66637 5.55574 6.66637C6.16939 6.66637 6.66685 6.1689 6.66685 5.55525C6.66685 4.94159 6.16939 4.44413 5.55574 4.44413ZM3.3335 5.55525C3.3335 4.32794 4.32843 3.33301 5.55574 3.33301C6.78304 3.33301 7.77797 4.32794 7.77797 5.55525C7.77797 6.78256 6.78304 7.77749 5.55574 7.77749C4.32843 7.77749 3.3335 6.78256 3.3335 5.55525Z" fill="#00A4CF"/>
</svg>
