<svg width="30" height="30" viewBox="0 0 30 30" fill="none" xmlns="http://www.w3.org/2000/svg">
<path fill-rule="evenodd" clip-rule="evenodd" d="M4.70587 3.52941C4.39386 3.52941 4.09462 3.65335 3.87399 3.87399C3.65335 4.09462 3.52941 4.39386 3.52941 4.70587V23.9749L6.39921 21.1051C6.73016 20.7741 7.17902 20.5882 7.64705 20.5882H25.2941C25.6061 20.5882 25.9053 20.4643 26.126 20.2436C26.3466 20.023 26.4705 19.7237 26.4705 19.4117V4.70587C26.4705 4.39386 26.3466 4.09462 26.126 3.87399C25.9053 3.65335 25.6061 3.52941 25.2941 3.52941H4.70587ZM1.37832 1.37832C2.26084 0.495796 3.4578 0 4.70587 0H25.2941C26.5422 0 27.7391 0.495796 28.6216 1.37832C29.5042 2.26084 30 3.4578 30 4.70587V19.4117C30 20.6598 29.5042 21.8568 28.6216 22.7393C27.7391 23.6218 26.5422 24.1176 25.2941 24.1176H8.37801L3.01254 29.4831C2.50783 29.9878 1.7488 30.1388 1.08938 29.8656C0.429956 29.5925 0 28.949 0 28.2352V4.70587C0 3.4578 0.495796 2.26084 1.37832 1.37832Z" fill="#455A64"/>
</svg>
