<svg width="21" height="19" viewBox="0 0 21 19" fill="none" xmlns="http://www.w3.org/2000/svg">
<path d="M18.7046 11.924C18.6506 11.6661 18.4994 11.4388 18.2823 11.2894C18.3792 11.1941 18.4561 11.0806 18.5086 10.9552C18.5611 10.8299 18.5881 10.6954 18.5881 10.5595V1.35074C18.5877 1.06987 18.476 0.800599 18.2774 0.601997C18.0788 0.403396 17.8095 0.291688 17.5287 0.291382H2.86213C2.58125 0.291688 2.31198 0.403396 2.11337 0.601997C1.91476 0.800599 1.80304 1.06987 1.80272 1.35074V10.5595C1.80265 10.6954 1.82966 10.8299 1.88216 10.9552C1.93466 11.0806 2.0116 11.1941 2.1085 11.2894C1.89143 11.4388 1.74021 11.6661 1.68619 11.924L0.206468 16.6727C0.199069 16.6961 0.195307 16.7204 0.195313 16.7449V16.9962C0.195639 17.277 0.307361 17.5463 0.505968 17.7449C0.704575 17.9435 0.973848 18.0552 1.25471 18.0555H19.1359C19.4168 18.0552 19.6861 17.9435 19.8847 17.7449C20.0833 17.5463 20.195 17.277 20.1953 16.9962V16.7449C20.1953 16.7204 20.1916 16.6961 20.1842 16.6727L18.7046 11.924ZM2.28081 1.35074C2.28099 1.19663 2.34229 1.04888 2.45127 0.939905C2.56025 0.830932 2.70801 0.769638 2.86213 0.769469H17.5285C17.6826 0.769638 17.8304 0.830932 17.9394 0.939905C18.0483 1.04888 18.1096 1.19663 18.1098 1.35074V10.5595C18.1096 10.7048 18.0518 10.8441 17.9491 10.9468C17.8464 11.0495 17.7071 11.1073 17.5618 11.1075H2.82878C2.68349 11.1074 2.5442 11.0496 2.44145 10.9469C2.33871 10.8441 2.28091 10.7048 2.28073 10.5595L2.28081 1.35074ZM2.15256 12.029C2.17701 11.9043 2.24399 11.7919 2.34208 11.711C2.44017 11.6301 2.56329 11.5858 2.69041 11.5856H17.7001C17.8273 11.5858 17.9504 11.6301 18.0485 11.711C18.1466 11.7919 18.2135 11.9043 18.238 12.029L19.6313 16.5059H13.1199L12.7834 15.4882C12.7677 15.4404 12.7372 15.3989 12.6964 15.3694C12.6557 15.34 12.6066 15.3241 12.5563 15.3242H7.83412C7.78382 15.3241 7.7348 15.34 7.69403 15.3694C7.65325 15.3989 7.62281 15.4404 7.60703 15.4882L7.27053 16.5059H0.759217L2.15256 12.029ZM12.6165 16.5059H7.77416L8.00687 15.8022H12.3838L12.6165 16.5059ZM19.7172 16.9962C19.717 17.1503 19.6557 17.298 19.5468 17.407C19.4378 17.516 19.29 17.5773 19.1359 17.5774H1.25471C1.1006 17.5773 0.952844 17.516 0.843864 17.407C0.734884 17.298 0.673579 17.1503 0.6734 16.9962V16.984H19.7172V16.9962Z" fill="#455A64"/>
<path d="M15.2551 14.6523C15.2551 14.5889 15.2299 14.5281 15.1851 14.4833C15.1402 14.4384 15.0794 14.4132 15.016 14.4132H3.01834L3.45961 12.4908H16.931L17.3723 14.4132H16.6097C16.5463 14.4132 16.4855 14.4384 16.4406 14.4833C16.3958 14.5281 16.3706 14.5889 16.3706 14.6523C16.3706 14.7157 16.3958 14.7765 16.4406 14.8213C16.4855 14.8661 16.5463 14.8913 16.6097 14.8913H17.6664C17.7117 14.8921 17.7563 14.8804 17.7953 14.8575C17.8386 14.8315 17.8726 14.7925 17.8923 14.746C17.9121 14.6995 17.9166 14.648 17.9054 14.5988L17.3544 12.1983C17.3423 12.1455 17.3127 12.0985 17.2704 12.0648C17.228 12.0311 17.1755 12.0127 17.1214 12.0127H3.26918C3.21508 12.0127 3.16258 12.0311 3.12027 12.0648C3.07796 12.0985 3.04833 12.1455 3.03623 12.1983L2.48527 14.5988C2.47398 14.648 2.47854 14.6995 2.4983 14.746C2.51807 14.7925 2.55202 14.8315 2.59531 14.8575C2.63438 14.8804 2.67897 14.8921 2.72424 14.8913H15.016C15.0794 14.8913 15.1402 14.8661 15.1851 14.8213C15.2299 14.7765 15.2551 14.7157 15.2551 14.6523Z" fill="#455A64"/>
<path d="M6.26002 6.77277H14.1306C14.194 6.77277 14.2548 6.74758 14.2997 6.70275C14.3445 6.65792 14.3697 6.59712 14.3697 6.53373C14.3697 6.47033 14.3445 6.40952 14.2997 6.3647C14.2548 6.31987 14.194 6.29468 14.1306 6.29468H6.26002C6.19662 6.29468 6.13582 6.31987 6.09099 6.3647C6.04616 6.40952 6.02098 6.47033 6.02098 6.53373C6.02098 6.59712 6.04616 6.65792 6.09099 6.70275C6.13582 6.74758 6.19662 6.77277 6.26002 6.77277Z" fill="#455A64"/>
<path d="M6.26002 8.34685H14.1306C14.194 8.34685 14.2548 8.32166 14.2997 8.27683C14.3445 8.232 14.3697 8.1712 14.3697 8.1078C14.3697 8.04441 14.3445 7.9836 14.2997 7.93877C14.2548 7.89394 14.194 7.86876 14.1306 7.86876H6.26002C6.19662 7.86876 6.13582 7.89394 6.09099 7.93877C6.04616 7.9836 6.02098 8.04441 6.02098 8.1078C6.02098 8.1712 6.04616 8.232 6.09099 8.27683C6.13582 8.32166 6.19662 8.34685 6.26002 8.34685Z" fill="#455A64"/>
<path d="M6.26002 5.19863H8.62118C8.68458 5.19863 8.74538 5.17344 8.79021 5.12861C8.83504 5.08378 8.86022 5.02298 8.86022 4.95958C8.86022 4.89619 8.83504 4.83538 8.79021 4.79055C8.74538 4.74572 8.68458 4.72054 8.62118 4.72054H6.26002C6.19662 4.72054 6.13582 4.74572 6.09099 4.79055C6.04616 4.83538 6.02098 4.89619 6.02098 4.95958C6.02098 5.02298 6.04616 5.08378 6.09099 5.12861C6.13582 5.17344 6.19662 5.19863 6.26002 5.19863Z" fill="#455A64"/>
<path d="M3.75037 10.6408H4.66639C4.72979 10.6408 4.79059 10.6157 4.83542 10.5708C4.88025 10.526 4.90543 10.4652 4.90543 10.4018C4.90543 10.3384 4.88025 10.2776 4.83542 10.2328C4.79059 10.1879 4.72979 10.1628 4.66639 10.1628H3.75037C3.69789 10.1628 3.64591 10.1524 3.59742 10.1324C3.54892 10.1123 3.50486 10.0828 3.46775 10.0457C3.43063 10.0086 3.40119 9.96456 3.38111 9.91607C3.36102 9.86758 3.35069 9.81561 3.35069 9.76312V2.14089C3.35069 2.08486 3.36173 2.02938 3.38317 1.97762C3.40462 1.92586 3.43605 1.87883 3.47567 1.83921C3.5153 1.7996 3.56234 1.76818 3.61411 1.74675C3.66587 1.72532 3.72136 1.7143 3.77739 1.71432H16.6133C16.6693 1.7143 16.7248 1.72532 16.7765 1.74675C16.8283 1.76818 16.8753 1.7996 16.915 1.83921C16.9546 1.87883 16.986 1.92586 17.0075 1.97762C17.0289 2.02938 17.0399 2.08486 17.0399 2.14089V9.76312C17.0399 9.86909 16.9979 9.97073 16.9229 10.0457C16.848 10.1206 16.7464 10.1627 16.6404 10.1627H6.26002C6.19662 10.1627 6.13582 10.1879 6.09099 10.2327C6.04616 10.2776 6.02097 10.3384 6.02097 10.4018C6.02097 10.4652 6.04616 10.526 6.09099 10.5708C6.13582 10.6156 6.19662 10.6408 6.26002 10.6408H16.6403C16.7555 10.6408 16.8697 10.6181 16.9762 10.574C17.0827 10.5299 17.1794 10.4653 17.2609 10.3838C17.3425 10.3023 17.4071 10.2055 17.4512 10.099C17.4953 9.99253 17.518 9.87839 17.518 9.76312V2.14089C17.518 2.02208 17.4946 1.90443 17.4492 1.79466C17.4037 1.6849 17.337 1.58516 17.253 1.50115C17.169 1.41715 17.0693 1.35051 16.9595 1.30506C16.8497 1.2596 16.7321 1.23621 16.6133 1.23623H3.77739C3.65857 1.23621 3.54092 1.2596 3.43115 1.30506C3.32138 1.35051 3.22163 1.41715 3.13762 1.50115C3.0536 1.58516 2.98695 1.6849 2.94148 1.79466C2.89601 1.90443 2.8726 2.02208 2.8726 2.14089V9.76312C2.8726 9.87839 2.8953 9.99253 2.93941 10.099C2.98352 10.2055 3.04818 10.3023 3.12969 10.3838C3.2112 10.4653 3.30796 10.53 3.41446 10.5741C3.52096 10.6182 3.6351 10.6409 3.75037 10.6408Z" fill="#455A64"/>
</svg>
