<svg width="18" height="18" viewBox="0 0 18 18" fill="none" xmlns="http://www.w3.org/2000/svg">
<path fill-rule="evenodd" clip-rule="evenodd" d="M3.28103 2.62741C3.10769 2.62741 2.94144 2.69627 2.81887 2.81884C2.6963 2.94141 2.62744 3.10766 2.62744 3.281V13.986L4.22177 12.3917C4.40563 12.2078 4.655 12.1045 4.91502 12.1045H14.7189C14.8923 12.1045 15.0585 12.0357 15.1811 11.9131C15.3037 11.7905 15.3725 11.6243 15.3725 11.4509V3.281C15.3725 3.10766 15.3037 2.94141 15.1811 2.81884C15.0585 2.69627 14.8923 2.62741 14.7189 2.62741H3.28103ZM1.43239 1.43236C1.92268 0.942068 2.58766 0.666626 3.28103 0.666626H14.7189C15.4123 0.666626 16.0773 0.942068 16.5676 1.43236C17.0579 1.92265 17.3333 2.58762 17.3333 3.281V11.4509C17.3333 12.1443 17.0579 12.8093 16.5676 13.2996C16.0773 13.7899 15.4123 14.0653 14.7189 14.0653H5.32111L2.34029 17.0461C2.0599 17.3265 1.63821 17.4104 1.27187 17.2586C0.905521 17.1069 0.666656 16.7494 0.666656 16.3529V3.281C0.666656 2.58763 0.942099 1.92265 1.43239 1.43236Z" fill="#00A4CF"/>
</svg>
