<svg width="24" height="25" viewBox="0 0 24 25" fill="none" xmlns="http://www.w3.org/2000/svg">
<path fill-rule="evenodd" clip-rule="evenodd" d="M5.33326 6.66406C4.96887 6.66406 4.66659 6.96635 4.66659 7.33073V17.3307C4.66659 17.6951 4.96887 17.9974 5.33326 17.9974H18.6666C19.031 17.9974 19.3333 17.6951 19.3333 17.3307V7.33073C19.3333 6.96635 19.031 6.66406 18.6666 6.66406H5.33326ZM2.66659 7.33073C2.66659 5.86178 3.86431 4.66406 5.33326 4.66406H18.6666C20.1355 4.66406 21.3333 5.86178 21.3333 7.33073V17.3307C21.3333 18.7997 20.1355 19.9974 18.6666 19.9974H5.33326C3.86431 19.9974 2.66659 18.7997 2.66659 17.3307V7.33073Z" fill="#455A64"/>
<path fill-rule="evenodd" clip-rule="evenodd" d="M2.84736 6.75727C3.16407 6.30482 3.7876 6.19478 4.24005 6.5115L11.9999 11.9434L19.7598 6.5115C20.2122 6.19478 20.8358 6.30482 21.1525 6.75727C21.4692 7.20972 21.3592 7.83325 20.9067 8.14996L12.5734 13.9833C12.2291 14.2243 11.7708 14.2243 11.4265 13.9833L3.09313 8.14996C2.64068 7.83325 2.53064 7.20972 2.84736 6.75727Z" fill="#455A64"/>
</svg>
