<svg width="22" height="22" viewBox="0 0 22 22" fill="none" xmlns="http://www.w3.org/2000/svg">
<path d="M11 21.8332C8.85738 21.8332 6.76287 21.1978 4.98133 20.0074C3.1998 18.817 1.81127 17.1251 0.991315 15.1456C0.171366 13.166 -0.0431706 10.9878 0.374836 8.88636C0.792843 6.7849 1.82462 4.85459 3.33969 3.33952C4.85476 1.82445 6.78507 0.792675 8.88653 0.374668C10.988 -0.0433383 13.1662 0.171198 15.1458 0.991147C17.1253 1.8111 18.8172 3.19963 20.0076 4.98116C21.198 6.7627 21.8334 8.85721 21.8334 10.9998C21.8301 13.872 20.6877 16.6256 18.6567 18.6565C16.6258 20.6875 13.8722 21.8299 11 21.8332ZM11 0.785556C8.97982 0.785556 7.00499 1.38461 5.32526 2.50697C3.64553 3.62933 2.33634 5.22459 1.56324 7.091C0.790146 8.95742 0.587869 11.0112 0.981989 12.9925C1.37611 14.9739 2.34893 16.7939 3.77742 18.2224C5.20591 19.6509 7.02593 20.6237 9.00731 21.0179C10.9887 21.412 13.0424 21.2097 14.9089 20.4366C16.7753 19.6635 18.3705 18.3543 19.4929 16.6746C20.6152 14.9949 21.2143 13.02 21.2143 10.9998C21.2112 8.2918 20.134 5.69556 18.2192 3.78069C16.3043 1.86581 13.7081 0.788669 11 0.785556Z" fill="#455A64"/>
<path d="M5.98575 18.2118C5.92124 18.2117 5.85837 18.1914 5.80592 18.1539C5.54463 17.9666 5.29557 17.7629 5.06028 17.5438C5.03053 17.5161 5.00652 17.4828 4.98963 17.4458C4.97275 17.4089 4.96331 17.3689 4.96186 17.3283C4.9604 17.2877 4.96697 17.2472 4.98118 17.2091C4.99538 17.171 5.01695 17.1361 5.04465 17.1063C5.07235 17.0765 5.10564 17.0525 5.14262 17.0357C5.1796 17.0188 5.21954 17.0093 5.26017 17.0079C5.3008 17.0064 5.34131 17.013 5.3794 17.0272C5.41749 17.0414 5.45241 17.063 5.48216 17.0907C5.69798 17.2917 5.92646 17.4788 6.16621 17.6506C6.21951 17.6888 6.25932 17.7429 6.27988 17.8051C6.30045 17.8674 6.30072 17.9346 6.28064 17.997C6.26057 18.0594 6.2212 18.1138 6.1682 18.1524C6.11521 18.191 6.05132 18.2118 5.98575 18.2118Z" fill="#455A64"/>
<path d="M10.9999 19.846C9.92715 19.8486 8.86316 19.6527 7.86166 19.2682C7.82309 19.254 7.78772 19.2324 7.75762 19.2044C7.72751 19.1765 7.70327 19.1428 7.6863 19.1054C7.66933 19.068 7.65998 19.0276 7.65879 18.9865C7.65759 18.9455 7.66459 18.9046 7.67935 18.8663C7.69412 18.8279 7.71637 18.7929 7.74481 18.7633C7.77324 18.7336 7.80729 18.71 7.84497 18.6936C7.88266 18.6773 7.92322 18.6686 7.96429 18.668C8.00536 18.6675 8.04612 18.6752 8.08421 18.6906C9.01472 19.0476 10.0033 19.2295 10.9999 19.227C12.6271 19.227 14.2177 18.7445 15.5707 17.8405C16.9236 16.9365 17.9781 15.6516 18.6008 14.1482C19.2235 12.6449 19.3864 10.9907 19.069 9.39481C18.7515 7.7989 17.968 6.33297 16.8174 5.18238C15.6668 4.03179 14.2009 3.24823 12.605 2.93079C11.009 2.61334 9.35484 2.77626 7.85153 3.39896C6.34821 4.02165 5.06331 5.07614 4.1593 6.42909C3.25529 7.78204 2.77277 9.37267 2.77277 10.9999C2.77185 11.5098 2.81973 12.0187 2.91577 12.5196C2.93141 12.6002 2.91439 12.6838 2.86844 12.7518C2.8225 12.8199 2.7514 12.8669 2.67079 12.8825C2.59017 12.8982 2.50665 12.8811 2.43859 12.8352C2.37053 12.7893 2.32351 12.7182 2.30787 12.6375C2.2044 12.0978 2.15278 11.5494 2.15373 10.9999C2.15373 9.25024 2.67255 7.53992 3.64458 6.08517C4.61661 4.63042 5.9982 3.49658 7.61463 2.82703C9.23106 2.15748 11.0097 1.9823 12.7257 2.32363C14.4417 2.66496 16.018 3.50748 17.2551 4.74465C18.4923 5.98181 19.3348 7.55805 19.6761 9.27404C20.0175 10.99 19.8423 12.7687 19.1727 14.3851C18.5032 16.0016 17.3694 17.3832 15.9146 18.3552C14.4599 19.3272 12.7495 19.846 10.9999 19.846Z" fill="#455A64"/>
<path d="M3.85636 15.977C3.80517 15.9771 3.75477 15.9644 3.70966 15.9402C3.66456 15.916 3.62616 15.881 3.5979 15.8383C3.42033 15.5697 3.25899 15.2906 3.11474 15.0026C3.09619 14.9662 3.08504 14.9265 3.08191 14.8858C3.07879 14.8451 3.08376 14.8041 3.09653 14.7653C3.10931 14.7265 3.12964 14.6906 3.15635 14.6597C3.18306 14.6288 3.21563 14.6035 3.25217 14.5852C3.28871 14.567 3.3285 14.5561 3.36926 14.5533C3.41001 14.5505 3.45092 14.5558 3.48962 14.5689C3.52832 14.582 3.56405 14.6026 3.59474 14.6295C3.62544 14.6565 3.6505 14.6892 3.66848 14.7259C3.80131 14.992 3.95004 15.2499 4.11388 15.4982C4.14473 15.5448 4.16239 15.5989 4.16498 15.6547C4.16757 15.7105 4.15499 15.766 4.12858 15.8153C4.10218 15.8645 4.06292 15.9057 4.01499 15.9345C3.96707 15.9632 3.91225 15.9785 3.85636 15.9786V15.977Z" fill="#455A64"/>
<path d="M9.34918 10.2778H6.66653C6.50235 10.2778 6.34489 10.2125 6.2288 10.0964C6.1127 9.98034 6.04748 9.82289 6.04748 9.6587V6.97606C6.04748 6.81187 6.1127 6.65442 6.2288 6.53832C6.34489 6.42223 6.50235 6.35701 6.66653 6.35701H9.34918C9.51336 6.35701 9.67082 6.42223 9.78691 6.53832C9.90301 6.65442 9.96823 6.81187 9.96823 6.97606V9.6587C9.96823 9.82289 9.90301 9.98034 9.78691 10.0964C9.67082 10.2125 9.51336 10.2778 9.34918 10.2778ZM6.66653 6.97606V9.6587H9.34918V6.97606H6.66653Z" fill="#455A64"/>
<path d="M15.3334 10.2778H12.6507C12.4865 10.2778 12.3291 10.2125 12.213 10.0964C12.0969 9.98034 12.0317 9.82289 12.0317 9.6587V6.97606C12.0317 6.81187 12.0969 6.65442 12.213 6.53832C12.3291 6.42223 12.4865 6.35701 12.6507 6.35701H15.3334C15.4976 6.35701 15.655 6.42223 15.7711 6.53832C15.8872 6.65442 15.9524 6.81187 15.9524 6.97606V9.6587C15.9524 9.82289 15.8872 9.98034 15.7711 10.0964C15.655 10.2125 15.4976 10.2778 15.3334 10.2778ZM15.3334 6.97606H12.6507V9.6587H15.3334V6.97606Z" fill="#455A64"/>
<path d="M15.3334 15.875H12.6507C12.4865 15.875 12.3291 15.8098 12.213 15.6937C12.0969 15.5776 12.0317 15.4201 12.0317 15.2559V12.5733C12.0317 12.4091 12.0969 12.2516 12.213 12.1356C12.3291 12.0195 12.4865 11.9542 12.6507 11.9542H15.3334C15.4976 11.9542 15.655 12.0195 15.7711 12.1356C15.8872 12.2516 15.9524 12.4091 15.9524 12.5733V15.2559C15.9524 15.4201 15.8872 15.5776 15.7711 15.6937C15.655 15.8098 15.4976 15.875 15.3334 15.875ZM15.3334 12.5733H12.6507V15.2559H15.3334V12.5733Z" fill="#455A64"/>
<path d="M9.34925 15.875H6.6666C6.50242 15.875 6.34496 15.8098 6.22887 15.6937C6.11277 15.5776 6.04755 15.4201 6.04755 15.2559V12.5733C6.04755 12.4091 6.11277 12.2516 6.22887 12.1355C6.34496 12.0195 6.50242 11.9542 6.6666 11.9542H9.34925C9.51343 11.9542 9.67089 12.0195 9.78698 12.1355C9.90308 12.2516 9.9683 12.4091 9.9683 12.5733V15.2559C9.9683 15.4201 9.90308 15.5776 9.78698 15.6937C9.67089 15.8098 9.51343 15.875 9.34925 15.875ZM6.6666 12.5733V15.2559H9.34925V12.5733H6.6666Z" fill="#455A64"/>
</svg>
