<svg width="30" height="28" viewBox="0 0 30 28" fill="none" xmlns="http://www.w3.org/2000/svg">
<path fill-rule="evenodd" clip-rule="evenodd" d="M4.09091 3.22727C3.33779 3.22727 2.72727 3.83779 2.72727 4.59091V18.2273C2.72727 18.9804 3.33779 19.5909 4.09091 19.5909H25.9091C26.6622 19.5909 27.2727 18.9804 27.2727 18.2273V4.59091C27.2727 3.83779 26.6622 3.22727 25.9091 3.22727H4.09091ZM0 4.59091C0 2.33156 1.83156 0.5 4.09091 0.5H25.9091C28.1684 0.5 30 2.33156 30 4.59091V18.2273C30 20.4866 28.1684 22.3182 25.9091 22.3182H4.09091C1.83156 22.3182 0 20.4866 0 18.2273V4.59091Z" fill="#455A64"/>
<path fill-rule="evenodd" clip-rule="evenodd" d="M8.18182 26.4091C8.18182 25.656 8.79234 25.0455 9.54545 25.0455H20.4545C21.2077 25.0455 21.8182 25.656 21.8182 26.4091C21.8182 27.1622 21.2077 27.7727 20.4545 27.7727H9.54545C8.79234 27.7727 8.18182 27.1622 8.18182 26.4091Z" fill="#455A64"/>
<path fill-rule="evenodd" clip-rule="evenodd" d="M15 19.5909C15.7531 19.5909 16.3636 20.2014 16.3636 20.9545V26.4091C16.3636 27.1622 15.7531 27.7727 15 27.7727C14.2469 27.7727 13.6364 27.1622 13.6364 26.4091V20.9545C13.6364 20.2014 14.2469 19.5909 15 19.5909Z" fill="#455A64"/>
</svg>
