<svg width="12" height="20" viewBox="0 0 12 20" fill="none" xmlns="http://www.w3.org/2000/svg">
<path d="M7.83336 1H4.50004C4.31606 1 4.16672 1.14934 4.16672 1.33332C4.16672 1.5173 4.31606 1.66664 4.50004 1.66664H7.83336C8.01735 1.66664 8.16668 1.5173 8.16668 1.33332C8.16668 1.14934 8.01735 1 7.83336 1Z" fill="#455A64"/>
<path d="M10.1667 1H9.83336C9.64937 1 9.50004 1.14934 9.50004 1.33332C9.50004 1.5173 9.64937 1.66664 9.83336 1.66664H10.1667C10.3507 1.66664 10.5 1.5173 10.5 1.33332C10.5 1.14934 10.3507 1 10.1667 1Z" fill="#455A64"/>
<path d="M6.58066 17H5.75301C5.24602 17 4.83336 17.4127 4.83336 17.9196V18.0807C4.83336 18.5877 5.24602 19 5.7527 19H6.58035C7.08734 19 7.5 18.5877 7.5 18.0807V17.9196C7.5 17.4127 7.08734 17 6.58066 17ZM6.83336 18.0807C6.83336 18.22 6.72004 18.3333 6.5807 18.3333H5.75301C5.61336 18.3333 5.5 18.22 5.5 18.0807V17.9196C5.5 17.78 5.61332 17.6666 5.75301 17.6666H6.58035C6.72004 17.6666 6.83336 17.78 6.83336 17.9196V18.0807Z" fill="#455A64"/>
<path d="M10.6287 0H1.705C1.04066 0 0.5 0.540664 0.5 1.205V18.795C0.5 19.4593 1.04066 20 1.705 20H10.6283C11.2927 20 11.8333 19.4593 11.8333 18.7954V1.205C11.8334 0.540664 11.2927 0 10.6287 0ZM11.1667 18.795C11.1667 19.0917 10.9254 19.3333 10.6287 19.3333H1.705C1.40801 19.3333 1.16668 19.0916 1.16668 18.7953V1.205C1.16668 0.90832 1.40801 0.66668 1.705 0.66668H10.6283C10.9253 0.66668 11.1666 0.908359 11.1666 1.205V18.795H11.1667Z" fill="#455A64"/>
<path d="M11.5 2H0.83336C0.649375 2 0.500039 2.14934 0.500039 2.33332V16.3333C0.500039 16.5173 0.649375 16.6666 0.83336 16.6666H11.5C11.684 16.6666 11.8334 16.5173 11.8334 16.3333V2.33332C11.8334 2.14934 11.684 2 11.5 2ZM11.1667 16H1.16668V2.66668H11.1667V16Z" fill="#455A64"/>
</svg>
