<svg width="24" height="25" viewBox="0 0 24 25" fill="none" xmlns="http://www.w3.org/2000/svg">
<path fill-rule="evenodd" clip-rule="evenodd" d="M8.23331 3.46016C8.51885 3.297 8.86704 3.28733 9.16119 3.43441L15.2477 6.47768L20.5284 3.46016C20.8328 3.2862 21.2068 3.28745 21.5101 3.46344C21.8134 3.63943 22 3.96355 22 4.31417V17.4289C22 17.7819 21.8109 18.1078 21.5044 18.2829L15.7667 21.5616C15.4812 21.7248 15.133 21.7345 14.8388 21.5874L8.75226 18.5441L3.47161 21.5616C3.16718 21.7356 2.79317 21.7343 2.48991 21.5583C2.18665 21.3824 2 21.0582 2 20.7076V7.59286C2 7.23989 2.18913 6.91398 2.4956 6.73885L8.23331 3.46016ZM8.75226 5.42936L3.96721 8.16367V19.0127L8.23331 16.5749C8.51885 16.4118 8.86704 16.4021 9.16119 16.5492L15.2477 19.5924L20.0328 16.8581V6.0091L15.7667 8.44687C15.4812 8.61004 15.133 8.6197 14.8388 8.47263L8.75226 5.42936Z" fill="#455A64"/>
<path fill-rule="evenodd" clip-rule="evenodd" d="M8.72131 3.33057C9.26454 3.33057 9.70492 3.77094 9.70492 4.31417V17.4289C9.70492 17.9722 9.26454 18.4125 8.72131 18.4125C8.17808 18.4125 7.73771 17.9722 7.73771 17.4289V4.31417C7.73771 3.77094 8.17808 3.33057 8.72131 3.33057Z" fill="#455A64"/>
<path fill-rule="evenodd" clip-rule="evenodd" d="M15.2787 6.60926C15.8219 6.60926 16.2623 7.04963 16.2623 7.59286V20.7076C16.2623 21.2508 15.8219 21.6912 15.2787 21.6912C14.7355 21.6912 14.2951 21.2508 14.2951 20.7076V7.59286C14.2951 7.04963 14.7355 6.60926 15.2787 6.60926Z" fill="#455A64"/>
</svg>
