<svg width="36" height="37" viewBox="0 0 36 37" fill="none" xmlns="http://www.w3.org/2000/svg">
<g clip-path="url(#clip0_737_10333)">
<path d="M33.107 11.0911L28.7227 7.34636C28.6046 7.24529 28.454 7.18976 28.2986 7.18976H21.1218V4.3298C21.1218 4.27567 21.1151 4.22313 21.1021 4.17273C20.9296 2.34294 19.3851 0.926025 17.5359 0.926025C15.6876 0.926025 14.1438 2.34098 13.9698 4.16918C13.9568 4.22061 13.9499 4.27437 13.9499 4.3298V7.18976H10.7614C10.4007 7.18976 10.1081 7.48225 10.1081 7.84305V15.5155C10.1081 15.8763 10.4007 16.1688 10.7614 16.1688H13.9499V17.6022H7.70184C7.57062 17.6022 7.44248 17.6418 7.33403 17.7157L2.94956 20.7025C2.77308 20.8227 2.66668 21.0216 2.66407 21.2351C2.66174 21.4486 2.76375 21.6498 2.93752 21.7739L7.3219 24.9069C7.43278 24.9862 7.56539 25.0287 7.70175 25.0287H13.9498V35.6194H6.94149C6.58059 35.6194 6.2882 35.9118 6.2882 36.2727C6.2882 36.6334 6.58059 36.926 6.94149 36.926H14.6032H20.4685H28.1298C28.4905 36.926 28.7831 36.6334 28.7831 36.2727C28.7831 35.9118 28.4905 35.6194 28.1298 35.6194H21.1218V25.0288H25.2388C25.5997 25.0288 25.8921 24.7363 25.8921 24.3755V18.2556C25.8921 17.8949 25.5997 17.6023 25.2388 17.6023H21.1218V16.1689H28.2986C28.4594 16.1689 28.6147 16.1095 28.7344 16.0022L33.1186 12.0745C33.259 11.9488 33.3383 11.7686 33.3359 11.5802C33.3337 11.3917 33.2503 11.2134 33.107 11.0911ZM15.2565 4.43937C15.2603 4.41669 15.263 4.39355 15.2645 4.37003C15.3383 3.1715 16.3362 2.23262 17.5359 2.23262C18.7356 2.23262 19.7332 3.1715 19.8072 4.37003C19.8087 4.39327 19.8114 4.41613 19.8152 4.43853V7.18966H15.2565V4.43937ZM19.8152 35.6194H15.2565V25.0288H19.8152V35.6194ZM24.5855 18.9089V23.7222H7.91127L4.45905 21.2553L7.90324 18.9088H24.5855V18.9089ZM15.2565 17.6023V16.1689H19.8152V17.6023H15.2565ZM28.0487 14.8622H12.3481H11.4148V8.49635H28.0575L29.1503 9.42964L31.6908 11.5995L28.0487 14.8622Z" fill="#455A64"/>
<path d="M15.5194 10.241C15.4913 10.286 15.4613 10.3198 15.4294 10.3423C15.3994 10.3648 15.36 10.376 15.3113 10.376C15.2682 10.376 15.2213 10.3629 15.1707 10.3367C15.1219 10.3085 15.0657 10.2776 15.0019 10.2438C14.94 10.2101 14.8688 10.1801 14.7882 10.1538C14.7075 10.1257 14.6157 10.1117 14.5125 10.1117C14.3344 10.1117 14.2013 10.1501 14.1132 10.227C14.0269 10.302 13.9838 10.4042 13.9838 10.5335C13.9838 10.616 14.01 10.6845 14.0625 10.7388C14.115 10.7932 14.1835 10.8401 14.2678 10.8795C14.3541 10.9188 14.4516 10.9554 14.5603 10.9892C14.671 11.021 14.7835 11.0576 14.8978 11.0988C15.0122 11.1382 15.1238 11.1851 15.2325 11.2395C15.3432 11.2938 15.4407 11.3632 15.525 11.4476C15.6113 11.532 15.6807 11.6351 15.7332 11.757C15.7857 11.877 15.8119 12.0223 15.8119 12.1929C15.8119 12.3823 15.7791 12.5595 15.7135 12.7245C15.6478 12.8895 15.5522 13.0338 15.4266 13.1576C15.3028 13.2795 15.1491 13.376 14.9653 13.4473C14.7835 13.5167 14.5763 13.5513 14.3438 13.5513C14.2163 13.5513 14.086 13.5382 13.9528 13.512C13.8216 13.4857 13.6941 13.4492 13.5703 13.4023C13.4466 13.3535 13.3303 13.2963 13.2216 13.2307C13.1128 13.1651 13.0182 13.092 12.9375 13.0113L13.2188 12.567C13.2394 12.5332 13.2685 12.506 13.306 12.4854C13.3435 12.4648 13.3838 12.4545 13.4269 12.4545C13.4832 12.4545 13.5394 12.4723 13.5957 12.5079C13.6538 12.5435 13.7185 12.5829 13.7897 12.626C13.8628 12.6692 13.9463 12.7085 14.04 12.7442C14.1338 12.7798 14.2444 12.7976 14.3719 12.7976C14.5444 12.7976 14.6785 12.7601 14.7741 12.6851C14.8697 12.6082 14.9175 12.4873 14.9175 12.3223C14.9175 12.2267 14.8913 12.1488 14.8388 12.0888C14.7863 12.0288 14.7169 11.9792 14.6307 11.9398C14.5463 11.9004 14.4497 11.8657 14.341 11.8357C14.2322 11.8057 14.1207 11.7729 14.0063 11.7373C13.8919 11.6998 13.7803 11.6548 13.6716 11.6023C13.5628 11.5479 13.4653 11.4776 13.3791 11.3913C13.2947 11.3032 13.2263 11.1945 13.1738 11.0651C13.1213 10.9338 13.095 10.7726 13.095 10.5813C13.095 10.4276 13.126 10.2776 13.1878 10.1313C13.2497 9.98509 13.3407 9.85478 13.4607 9.7404C13.5807 9.62603 13.7278 9.53509 13.9022 9.46759C14.0766 9.39821 14.2763 9.36353 14.5013 9.36353C14.6269 9.36353 14.7488 9.37384 14.8669 9.39446C14.9869 9.41321 15.1003 9.44228 15.2072 9.48165C15.3141 9.51915 15.4135 9.56509 15.5053 9.61946C15.5991 9.67196 15.6825 9.73196 15.7557 9.79946L15.5194 10.241Z" fill="#455A64"/>
<path d="M19.5975 9.40853V10.1398H17.9156V11.096H19.2037V11.7992H17.9156V12.7751H19.5975V13.5063H16.9594V9.40853H19.5975Z" fill="#455A64"/>
<path d="M21.7655 12.747H23.2843V13.5063H20.8149V9.40853H21.7655V12.747Z" fill="#455A64"/>
<path d="M25.3574 12.747H26.8761V13.5063H24.4068V9.40853H25.3574V12.747Z" fill="#455A64"/>
<path d="M12.9375 23.3894V20.051H14.2284C14.4709 20.051 14.6772 20.0724 14.8474 20.1152C15.0175 20.158 15.1564 20.2183 15.264 20.2962C15.3716 20.3741 15.4494 20.4688 15.4976 20.5803C15.5474 20.6918 15.5723 20.8163 15.5723 20.9538C15.5723 21.0286 15.561 21.1012 15.5386 21.1714C15.5161 21.2402 15.4808 21.3051 15.4326 21.3662C15.3844 21.4273 15.3226 21.4831 15.2471 21.5335C15.1717 21.5823 15.081 21.6251 14.975 21.6618C15.2062 21.7152 15.3772 21.8023 15.488 21.923C15.5988 22.0421 15.6542 22.1956 15.6542 22.3835C15.6542 22.5256 15.6253 22.6577 15.5675 22.7799C15.5097 22.9021 15.4246 23.009 15.3122 23.1007C15.2014 23.1908 15.0641 23.2618 14.9003 23.3138C14.7366 23.3642 14.5495 23.3894 14.3392 23.3894H12.9375ZM13.7516 21.9734V22.8051H14.3247C14.4323 22.8051 14.5198 22.7921 14.5873 22.7661C14.6563 22.7402 14.7101 22.7066 14.7486 22.6653C14.7871 22.6241 14.8136 22.5775 14.8281 22.5256C14.8425 22.4736 14.8498 22.4209 14.8498 22.3675C14.8498 22.3064 14.8409 22.2514 14.8233 22.2025C14.8072 22.1536 14.7783 22.1124 14.7366 22.0788C14.6964 22.0452 14.6426 22.0192 14.5752 22.0009C14.5078 21.9825 14.4227 21.9734 14.3199 21.9734H13.7516ZM13.7516 21.4556H14.1754C14.2653 21.4556 14.3464 21.4494 14.4187 21.4372C14.4909 21.425 14.5519 21.4036 14.6017 21.3731C14.6531 21.3425 14.6916 21.3005 14.7173 21.2471C14.7446 21.1936 14.7582 21.1264 14.7582 21.0454C14.7582 20.966 14.7478 20.9003 14.7269 20.8484C14.7061 20.7949 14.674 20.7521 14.6306 20.7201C14.5873 20.688 14.5319 20.6651 14.4644 20.6513C14.3986 20.6376 14.3199 20.6307 14.2284 20.6307H13.7516V21.4556Z" fill="#455A64"/>
<path d="M18.0637 22.7776C18.1729 22.7776 18.27 22.7608 18.3551 22.7272C18.4418 22.6921 18.5149 22.6424 18.5743 22.5783C18.6337 22.5141 18.6787 22.4362 18.7092 22.3446C18.7413 22.2514 18.7573 22.146 18.7573 22.0284V20.051H19.5714V22.0284C19.5714 22.2331 19.536 22.4209 19.4654 22.592C19.3963 22.7631 19.2968 22.9105 19.1667 23.0342C19.0367 23.158 18.8785 23.2542 18.6923 23.3229C18.5061 23.3917 18.2965 23.426 18.0637 23.426C17.8293 23.426 17.619 23.3917 17.4327 23.3229C17.2465 23.2542 17.0883 23.158 16.9583 23.0342C16.8282 22.9105 16.7287 22.7631 16.6596 22.592C16.5906 22.4209 16.5561 22.2331 16.5561 22.0284V20.051H17.3701V22.0261C17.3701 22.1437 17.3854 22.2491 17.4159 22.3423C17.448 22.4339 17.4937 22.5126 17.5531 22.5783C17.6126 22.6424 17.6848 22.6921 17.7699 22.7272C17.8566 22.7608 17.9545 22.7776 18.0637 22.7776Z" fill="#455A64"/>
<path d="M22.3534 22.12V23.3894H21.5394V22.12L20.2678 20.051H20.9855C21.0561 20.051 21.1123 20.0671 21.1541 20.0991C21.1958 20.1297 21.2295 20.1694 21.2552 20.2183L21.7513 21.1898C21.7915 21.2677 21.8284 21.3395 21.8621 21.4051C21.8958 21.4708 21.9255 21.5358 21.9512 21.5999C21.9753 21.5342 22.0042 21.4685 22.0379 21.4029C22.0716 21.3372 22.1078 21.2661 22.1463 21.1898L22.6376 20.2183C22.6472 20.1984 22.6601 20.1786 22.6761 20.1587C22.6938 20.1389 22.7131 20.1213 22.7339 20.106C22.7564 20.0892 22.7813 20.0762 22.8086 20.0671C22.8375 20.0564 22.8688 20.051 22.9025 20.051H23.625L22.3534 22.12Z" fill="#455A64"/>
</g>
<defs>
<clipPath id="clip0_737_10333">
<rect width="36" height="36" fill="white" transform="translate(0 0.926025)"/>
</clipPath>
</defs>
</svg>
