<svg width="36" height="37" viewBox="0 0 36 37" fill="none" xmlns="http://www.w3.org/2000/svg">
<g clip-path="url(#clip0_102_2343)">
<path d="M27.4742 24.8044C30.1498 22.282 31.8229 18.7073 31.8229 14.7488C31.8229 11.598 30.7904 8.63037 28.8369 6.16676C26.942 3.77698 24.277 2.05938 21.333 1.33038C20.9565 1.23729 20.5749 1.46693 20.4815 1.84388C20.3882 2.22082 20.6181 2.60206 20.9951 2.69543C26.5424 4.06906 30.4167 9.0256 30.4167 14.7488C30.4167 21.5954 24.8465 27.1656 17.9998 27.1656C11.1532 27.1656 5.58301 21.5954 5.58301 14.7488C5.58301 9.0256 9.45737 4.06906 15.0047 2.69543C15.3816 2.60206 15.6115 2.22082 15.5182 1.84388C15.4248 1.46693 15.0435 1.23694 14.6666 1.33038C11.7226 2.05938 9.05771 3.77698 7.16279 6.16676C5.2093 8.63037 4.17676 11.598 4.17676 14.7488C4.17676 18.7073 5.84984 22.282 8.52538 24.8044L4.84423 31.8446C4.66473 32.1879 4.79677 32.6118 5.13948 32.7924L5.16479 32.8058C5.32201 32.8887 5.50468 32.9089 5.67638 32.8625L10.7781 31.4812L12.5558 36.459C12.6497 36.722 12.8905 36.9046 13.1692 36.924C13.1855 36.9251 13.2019 36.9257 13.2181 36.9257C13.4784 36.9257 13.7191 36.7813 13.841 36.5484L17.9998 28.5946L22.1588 36.5484C22.2805 36.7814 22.5214 36.9257 22.7816 36.9257C22.7979 36.9257 22.8142 36.9251 22.8305 36.924C23.1092 36.9046 23.35 36.722 23.444 36.459L25.2216 31.4812L30.3233 32.8625C30.4948 32.9091 30.6776 32.8888 30.8349 32.8059L30.8602 32.7925C31.2029 32.6119 31.335 32.188 31.1554 31.8447L27.4742 24.8044ZM13.3395 34.4725L11.8839 30.3962C11.7605 30.0507 11.3919 29.8581 11.0379 29.954L6.82297 31.0952L9.62436 25.7376C11.5677 27.2224 13.9145 28.204 16.4694 28.4867L13.3395 34.4725ZM24.9618 29.954C24.6077 29.8582 24.2392 30.0507 24.1158 30.3962L22.6602 34.4725L19.5303 28.4867C22.0851 28.204 24.4319 27.2224 26.3753 25.7376L29.1766 31.0952L24.9618 29.954Z" fill="#455A64"/>
<path d="M18 2.33203C18.3883 2.33203 18.7031 2.01723 18.7031 1.62891C18.7031 1.24058 18.3883 0.925781 18 0.925781C17.6117 0.925781 17.2969 1.24058 17.2969 1.62891C17.2969 2.01723 17.6117 2.33203 18 2.33203Z" fill="#455A64"/>
<path d="M7.69238 14.7489C7.69238 20.4324 12.3163 25.0563 17.9998 25.0563C23.6834 25.0563 28.3073 20.4324 28.3073 14.7489C28.3073 9.0653 23.6834 4.44141 17.9998 4.44141C12.3163 4.44141 7.69238 9.0653 7.69238 14.7489ZM26.9011 14.7489C26.9011 19.657 22.908 23.6501 17.9998 23.6501C13.0917 23.6501 9.09863 19.657 9.09863 14.7489C9.09863 9.8407 13.0917 5.84766 17.9998 5.84766C22.908 5.84766 26.9011 9.8407 26.9011 14.7489Z" fill="#455A64"/>
<path d="M17.3665 10.9656L15.9179 13.9632L12.6712 13.2267C12.4173 13.1693 12.1527 13.2565 11.9829 13.4536C11.8131 13.6507 11.766 13.9255 11.8605 14.1679L13.1691 17.5238H13.0777C12.6894 17.5238 12.3746 17.8386 12.3746 18.2269C12.3746 18.6153 12.6894 18.9301 13.0777 18.9301H22.9215C23.3097 18.9301 23.6246 18.6153 23.6246 18.2269C23.6246 17.8386 23.3097 17.5238 22.9215 17.5238H22.8301L24.1386 14.1679C24.2332 13.9255 24.1862 13.6507 24.0164 13.4536C23.8466 13.2564 23.5819 13.1693 23.3281 13.2267L20.0813 13.9631L18.6327 10.9656C18.5153 10.7227 18.2693 10.5684 17.9996 10.5684C17.7299 10.5684 17.4838 10.7228 17.3665 10.9656V10.9656ZM19.0584 15.0785C19.2009 15.3732 19.5279 15.5307 19.847 15.4582L22.3473 14.8912L21.3208 17.5239H14.6786L13.652 14.8912L16.1523 15.4582C16.4714 15.5305 16.7984 15.3732 16.9409 15.0785L17.9996 12.8875L19.0584 15.0785Z" fill="#455A64"/>
</g>
<defs>
<clipPath id="clip0_102_2343">
<rect width="36" height="36" fill="white" transform="translate(0 0.925781)"/>
</clipPath>
</defs>
</svg>
