<svg width="36" height="37" viewBox="0 0 36 37" fill="none" xmlns="http://www.w3.org/2000/svg">
<path d="M17.9999 32.2747C17.9284 32.2748 17.8578 32.2591 17.793 32.2289C17.7283 32.1986 17.671 32.1544 17.6253 32.0995C17.2069 31.613 7.375 19.5725 7.375 12.5233C7.375 9.70541 8.4944 7.00294 10.487 5.01039C12.4795 3.01784 15.182 1.89844 17.9999 1.89844C20.8178 1.89844 23.5202 3.01784 25.5128 5.01039C27.5053 7.00294 28.6247 9.70541 28.6247 12.5233C28.6247 19.5725 18.7928 31.5936 18.3745 32.0995C18.3287 32.1544 18.2714 32.1986 18.2067 32.2289C18.142 32.2591 18.0713 32.2748 17.9999 32.2747V32.2747ZM17.9999 2.87141C15.4408 2.87399 12.9873 3.89171 11.1778 5.70123C9.36827 7.51075 8.35055 9.96425 8.34797 12.5233C8.34797 18.473 16.1755 28.7087 17.9999 31.0098C19.8242 28.7038 27.6518 18.4682 27.6518 12.5233C27.6492 9.96425 26.6315 7.51075 24.8219 5.70123C23.0124 3.89171 20.5589 2.87399 17.9999 2.87141V2.87141Z" fill="#455A64"/>
<path d="M20.7136 5.98828C17.5575 5.98828 14.9897 8.55601 14.9897 11.7122C14.9897 14.8683 17.5575 17.4361 20.7136 17.4361C23.8698 17.4361 26.4375 14.8683 26.4375 11.7122C26.4375 8.55601 23.8698 5.98828 20.7136 5.98828V5.98828ZM20.7136 16.8988C17.8537 16.8988 15.527 14.5721 15.527 11.7122C15.527 8.85225 17.8537 6.52554 20.7136 6.52554C23.5735 6.52554 25.9002 8.85225 25.9002 11.7122C25.9002 14.5721 23.5735 16.8988 20.7136 16.8988Z" fill="#455A64"/>
<path d="M17.8582 8.85629C19.2814 7.43315 21.5605 7.28164 23.1597 8.50388C23.2775 8.594 23.4461 8.57147 23.5362 8.45359C23.6263 8.33572 23.6038 8.16712 23.4859 8.07704C22.6127 7.40962 21.5255 7.07949 20.4248 7.1474C19.3132 7.21599 18.2668 7.68796 17.4783 8.47637C16.6899 9.26479 16.2179 10.3112 16.1494 11.4228C16.0814 12.5236 16.4116 13.6107 17.079 14.4839C17.1319 14.5531 17.2118 14.5895 17.2926 14.5895C17.3495 14.5895 17.4068 14.5714 17.4555 14.5342C17.5734 14.4441 17.5959 14.2756 17.5058 14.1577C16.2836 12.5586 16.4351 10.2795 17.8582 8.85629V8.85629Z" fill="#455A64"/>
<path d="M24.3483 8.9395C24.2582 8.82163 24.0896 8.7991 23.9718 8.88922C23.8539 8.97933 23.8314 9.14789 23.9215 9.26577C25.1437 10.8649 24.9922 13.144 23.5691 14.5672C22.1459 15.9903 19.8668 16.1418 18.2677 14.9196C18.1499 14.8295 17.9813 14.852 17.8911 14.9699C17.8011 15.0877 17.8236 15.2563 17.9415 15.3464C18.7397 15.9565 19.7167 16.2848 20.7194 16.2848C20.8136 16.2848 20.9081 16.2819 21.0026 16.276C22.1142 16.2075 23.1606 15.7355 23.949 14.9471C24.7374 14.1587 25.2094 13.1122 25.278 12.0006C25.3459 10.8998 25.0158 9.81266 24.3483 8.9395V8.9395Z" fill="#455A64"/>
<path d="M22.483 9.94297C22.3781 9.83802 22.208 9.83802 22.1031 9.94297L21.0887 10.9574C20.9757 10.9011 20.8485 10.8692 20.714 10.8692C20.2492 10.8692 19.8711 11.2473 19.8711 11.712C19.8711 12.0829 20.1119 12.3983 20.4453 12.5108V13.7219C20.4453 13.8702 20.5656 13.9905 20.714 13.9905C20.8623 13.9905 20.9826 13.8702 20.9826 13.7219V12.5108C21.316 12.3983 21.5568 12.0829 21.5568 11.7121C21.5568 11.5775 21.5249 11.4503 21.4686 11.3373L22.483 10.3229C22.588 10.218 22.588 10.0479 22.483 9.94297V9.94297ZM20.7139 12.0177C20.5454 12.0177 20.4083 11.8806 20.4083 11.7121C20.4083 11.5436 20.5454 11.4065 20.7139 11.4065C20.8824 11.4065 21.0195 11.5436 21.0195 11.7121C21.0195 11.8806 20.8824 12.0177 20.7139 12.0177Z" fill="#455A64"/>
<path d="M13.8045 11.712C13.8045 11.5636 13.6843 11.4434 13.5359 11.4434H8.36775C8.2194 11.4434 8.09912 11.5636 8.09912 11.712C8.09912 11.8603 8.2194 11.9806 8.36775 11.9806H13.5359C13.6843 11.9806 13.8045 11.8603 13.8045 11.712Z" fill="#455A64"/>
<path d="M14.6842 7.99805H13.5357C13.3874 7.99805 13.2671 8.11829 13.2671 8.26668C13.2671 8.41503 13.3874 8.53531 13.5357 8.53531H14.6842C14.8325 8.53531 14.9528 8.41503 14.9528 8.26668C14.9528 8.11829 14.8325 7.99805 14.6842 7.99805Z" fill="#455A64"/>
<path d="M12.3873 10.258H14.11C14.2584 10.258 14.3786 10.1377 14.3786 9.98933C14.3786 9.84098 14.2584 9.7207 14.11 9.7207H12.3873C12.2389 9.7207 12.1187 9.84098 12.1187 9.98933C12.1187 10.1377 12.2389 10.258 12.3873 10.258Z" fill="#455A64"/>
<path d="M10.9517 10.258H11.2389C11.3872 10.258 11.5075 10.1377 11.5075 9.98933C11.5075 9.84098 11.3872 9.7207 11.2389 9.7207H10.9517C10.8034 9.7207 10.6831 9.84098 10.6831 9.98933C10.6831 10.1377 10.8034 10.258 10.9517 10.258Z" fill="#455A64"/>
<path d="M14.6842 14.8887H13.5357C13.3874 14.8887 13.2671 15.0089 13.2671 15.1573C13.2671 15.3057 13.3874 15.4259 13.5357 15.4259H14.6842C14.8325 15.4259 14.9528 15.3057 14.9528 15.1573C14.9528 15.009 14.8325 14.8887 14.6842 14.8887Z" fill="#455A64"/>
<path d="M14.3786 13.4346C14.3786 13.2863 14.2584 13.166 14.11 13.166H12.3873C12.2389 13.166 12.1187 13.2863 12.1187 13.4346C12.1187 13.583 12.2389 13.7033 12.3873 13.7033H14.11C14.2584 13.7033 14.3786 13.583 14.3786 13.4346Z" fill="#455A64"/>
<path d="M11.2389 13.166H10.9517C10.8034 13.166 10.6831 13.2863 10.6831 13.4346C10.6831 13.583 10.8034 13.7033 10.9517 13.7033H11.2389C11.3872 13.7033 11.5075 13.583 11.5075 13.4346C11.5075 13.2863 11.3872 13.166 11.2389 13.166Z" fill="#455A64"/>
<path d="M23.8721 11.9806C24.0205 11.9806 24.1408 11.8604 24.1408 11.712C24.1408 11.5636 24.0205 11.4434 23.8721 11.4434C23.7238 11.4434 23.6035 11.5636 23.6035 11.712C23.6035 11.8604 23.7238 11.9806 23.8721 11.9806Z" fill="#455A64"/>
<path d="M17.5553 11.9806C17.7036 11.9806 17.8239 11.8604 17.8239 11.712C17.8239 11.5636 17.7036 11.4434 17.5553 11.4434C17.4069 11.4434 17.2866 11.5636 17.2866 11.712C17.2866 11.8604 17.4069 11.9806 17.5553 11.9806Z" fill="#455A64"/>
<path d="M20.7139 15.1388C20.8623 15.1388 20.9826 15.0186 20.9826 14.8702C20.9826 14.7218 20.8623 14.6016 20.7139 14.6016C20.5656 14.6016 20.4453 14.7218 20.4453 14.8702C20.4453 15.0186 20.5656 15.1388 20.7139 15.1388Z" fill="#455A64"/>
<path d="M20.7139 8.82242C20.8623 8.82242 20.9826 8.70215 20.9826 8.55379C20.9826 8.40543 20.8623 8.28516 20.7139 8.28516C20.5656 8.28516 20.4453 8.40543 20.4453 8.55379C20.4453 8.70215 20.5656 8.82242 20.7139 8.82242Z" fill="#455A64"/>
<path d="M18.2113 10.2672C18.2854 10.1388 18.2414 9.97447 18.1129 9.90029C17.9845 9.82611 17.8202 9.87013 17.746 9.99861C17.6718 10.1271 17.7158 10.2914 17.8443 10.3656C17.9728 10.4397 18.1371 10.3957 18.2113 10.2672Z" fill="#455A64"/>
<path d="M23.5832 13.0585C23.4547 12.9843 23.2904 13.0283 23.2162 13.1568C23.142 13.2853 23.1861 13.4496 23.3145 13.5238C23.443 13.5979 23.6073 13.5539 23.6815 13.4254C23.7557 13.2969 23.7116 13.1327 23.5832 13.0585Z" fill="#455A64"/>
<path d="M22.5257 9.11099C22.5999 8.98251 22.5559 8.81822 22.4274 8.74404C22.2989 8.66986 22.1346 8.71388 22.0604 8.84236C21.9863 8.97084 22.0303 9.13513 22.1588 9.20931C22.2872 9.28349 22.4515 9.23947 22.5257 9.11099Z" fill="#455A64"/>
<path d="M19.2687 14.2147C19.1402 14.1406 18.9759 14.1846 18.9018 14.3131C18.8276 14.4415 18.8716 14.6058 19.0001 14.68C19.1286 14.7542 19.2928 14.7102 19.367 14.5817C19.4412 14.4532 19.3972 14.2889 19.2687 14.2147Z" fill="#455A64"/>
<path d="M23.3145 9.90029C23.1861 9.97447 23.142 10.1388 23.2162 10.2672C23.2904 10.3957 23.4547 10.4397 23.5832 10.3656C23.7116 10.2914 23.7557 10.1271 23.6815 9.99861C23.6073 9.87013 23.443 9.82611 23.3145 9.90029Z" fill="#455A64"/>
<path d="M18.1129 13.5238C18.2414 13.4496 18.2854 13.2853 18.2113 13.1568C18.1371 13.0283 17.9728 12.9843 17.8443 13.0585C17.7158 13.1327 17.6718 13.297 17.746 13.4254C17.8201 13.5539 17.9844 13.5979 18.1129 13.5238Z" fill="#455A64"/>
<path d="M19.367 8.84236C19.2928 8.71388 19.1286 8.66986 19.0001 8.74404C18.8716 8.81822 18.8276 8.98251 18.9018 9.11099C18.9759 9.23947 19.1402 9.28349 19.2687 9.20931C19.3972 9.13513 19.4412 8.97084 19.367 8.84236Z" fill="#455A64"/>
<path d="M22.1588 14.2147C22.0303 14.2889 21.9863 14.4532 22.0604 14.5817C22.1346 14.7102 22.2989 14.7542 22.4274 14.68C22.5559 14.6058 22.5999 14.4415 22.5257 14.3131C22.4515 14.1846 22.2872 14.1406 22.1588 14.2147Z" fill="#455A64"/>
<path d="M27.4522 35.953H8.54738C8.47349 35.9534 8.40048 35.9369 8.33388 35.9049C8.26729 35.8729 8.20887 35.8261 8.16306 35.7681C8.11757 35.7096 8.08604 35.6415 8.07086 35.569C8.05569 35.4965 8.05727 35.4215 8.07549 35.3497L10.4398 25.8973C10.4665 25.7893 10.5293 25.6938 10.6178 25.6265C10.7063 25.5592 10.8152 25.5243 10.9263 25.5276H13.7625C13.8915 25.5276 14.0153 25.5788 14.1065 25.67C14.1978 25.7613 14.249 25.885 14.249 26.014C14.249 26.1431 14.1978 26.2668 14.1065 26.358C14.0153 26.4493 13.8915 26.5005 13.7625 26.5005H11.2912L9.17009 34.98H26.8295L24.7085 26.5005H22.276C22.147 26.5005 22.0233 26.4493 21.932 26.358C21.8408 26.2668 21.7895 26.1431 21.7895 26.014C21.7895 25.885 21.8408 25.7613 21.932 25.67C22.0233 25.5788 22.147 25.5276 22.276 25.5276H25.1122C25.2234 25.5243 25.3323 25.5592 25.4208 25.6265C25.5093 25.6938 25.5721 25.7893 25.5987 25.8973L27.9241 35.3497C27.9424 35.4215 27.9439 35.4965 27.9288 35.569C27.9136 35.6415 27.8821 35.7096 27.8366 35.7681C27.7908 35.8261 27.7323 35.8729 27.6657 35.9049C27.5992 35.9369 27.5261 35.9534 27.4522 35.953V35.953Z" fill="#455A64"/>
</svg>
