<svg width="24" height="25" viewBox="0 0 24 25" fill="none" xmlns="http://www.w3.org/2000/svg">
<path d="M15.49 10.5558C15.31 7.76578 14.18 5.04578 12.06 2.92578C9.92 5.06578 8.74 7.78578 8.51 10.5558C9.79 11.2358 10.97 12.1158 12 13.1858C13.03 12.1258 14.21 11.2458 15.49 10.5558V10.5558ZM12.05 6.11578C12.68 7.14578 13.12 8.29578 13.35 9.49578C12.88 9.79578 12.44 10.1258 12.01 10.4758C11.59 10.1358 11.14 9.80578 10.68 9.50578C10.93 8.30578 11.39 7.15578 12.05 6.11578V6.11578ZM12 16.3758C11.18 15.1258 10.14 14.0358 8.94 13.1758C8.81 13.0858 8.67 13.0158 8.54 12.9158C8.67 13.0058 8.81 13.0858 8.93 13.1658C6.98 11.7558 4.59 10.9258 2 10.9258C2 16.2458 5.36 20.7458 10.03 22.4158C10.66 22.6458 11.32 22.8158 12 22.9258C12.68 22.8058 13.33 22.6358 13.97 22.4158C18.64 20.7458 22 16.2458 22 10.9258C17.82 10.9258 14.15 13.0958 12 16.3758ZM13.32 20.5258C12.88 20.6758 12.44 20.7958 11.99 20.8958C11.55 20.8058 11.12 20.6858 10.71 20.5358C7.42 19.3558 5.01 16.5458 4.26 13.1858C5.36 13.4458 6.41 13.8958 7.38 14.5158L7.36 14.5258C7.49 14.6158 7.62 14.7058 7.75 14.7758L7.82 14.8158C8.81 15.5358 9.66 16.4258 10.33 17.4658L12 20.0258L13.67 17.4758C14.36 16.4258 15.22 15.5258 16.2 14.8158L16.27 14.7658C16.36 14.7158 16.45 14.6558 16.54 14.5958L16.53 14.5758C17.51 13.9258 18.6 13.4458 19.74 13.1758C18.99 16.5458 16.59 19.3558 13.32 20.5258V20.5258ZM8.99 13.2058C8.97 13.1958 8.95 13.1758 8.94 13.1658C8.94 13.1658 8.95 13.1658 8.95 13.1758C8.96 13.1858 8.97 13.1958 8.99 13.2058V13.2058Z" fill="#148735"/>
</svg>
