<svg width="22" height="22" viewBox="0 0 22 22" fill="none" xmlns="http://www.w3.org/2000/svg">
<path d="M10.1237 14.862C10.2888 14.6965 10.2888 14.4287 10.1237 14.2633C9.95837 14.0983 9.69058 14.0983 9.52511 14.2633C9.36014 14.4287 9.36014 14.6965 9.52511 14.862C9.69058 15.027 9.95837 15.027 10.1237 14.862Z" fill="#455A64"/>
<path d="M21.2705 0.166504H10.1663C10.0168 0.166504 9.89551 0.28776 9.89551 0.437338C9.89551 0.586915 10.0168 0.708171 10.1663 0.708171H11.8035C10.6016 1.47299 9.88005 2.80446 9.89551 4.22901C9.88005 5.65357 10.6016 6.98503 11.8035 7.74985H6.10384V0.708171H8.81218C8.96175 0.708171 9.08301 0.586915 9.08301 0.437338C9.08301 0.28776 8.96175 0.166504 8.81218 0.166504H6.10384C5.80469 0.166504 5.56217 0.409017 5.56217 0.708171V7.74985C5.56217 8.049 5.80469 8.29152 6.10384 8.29152H21.2705C21.5697 8.29152 21.8122 8.049 21.8122 7.74985V0.708171C21.8122 0.409017 21.5697 0.166504 21.2705 0.166504ZM10.4372 4.22901C10.4372 2.28767 11.8951 0.708171 13.6872 0.708171C15.4793 0.708171 16.9372 2.28767 16.9372 4.22901C16.9372 6.17035 15.4793 7.74985 13.6872 7.74985C11.8951 7.74985 10.4372 6.17035 10.4372 4.22901ZM21.2705 7.74985H15.5708C16.7728 6.98503 17.4943 5.65357 17.4789 4.22901C17.4943 2.80446 16.7728 1.47299 15.5708 0.708171H21.2705V7.74985Z" fill="#455A64"/>
<path d="M12.7021 1.88134C12.9227 1.88134 13.0911 1.94819 13.2072 2.0819C13.2769 2.16129 13.3292 2.26993 13.364 2.40781C13.4027 2.54152 13.4221 2.73164 13.4221 2.97816V3.45449H15.4311V3.90576H13.4221V5.63561C13.4221 5.83199 13.4453 5.9657 13.4918 6.03673C13.5421 6.10776 13.6389 6.14328 13.7821 6.14328C13.9408 6.14328 14.0956 6.09732 14.2466 6.00539C14.3975 5.90929 14.5214 5.78603 14.6182 5.63561C14.7188 5.48519 14.7691 5.32641 14.7691 5.15927C14.7691 4.95035 14.6588 4.84589 14.4382 4.84589C14.3337 4.84589 14.2369 4.85843 14.1479 4.8835L14.0898 4.4573C14.1556 4.43641 14.2253 4.42179 14.2988 4.41343C14.3763 4.4009 14.4537 4.39463 14.5311 4.39463C14.7362 4.39463 14.9027 4.45104 15.0304 4.56385C15.162 4.67249 15.2278 4.85007 15.2278 5.0966C15.2278 5.2888 15.1853 5.47474 15.1001 5.65441C15.0188 5.8299 14.9085 5.98868 14.7691 6.13074C14.6298 6.26863 14.473 6.37727 14.2988 6.45666C14.1246 6.53605 13.9466 6.57574 13.7647 6.57574C13.6214 6.57574 13.5034 6.55903 13.4105 6.5256C13.3176 6.488 13.2401 6.43785 13.1782 6.37518C13.1202 6.31668 13.0718 6.23938 13.0331 6.14328C12.9943 6.04718 12.975 5.88631 12.975 5.66068V3.90576H12.4118V3.45449H12.975V3.00323C12.975 2.78595 12.9518 2.62091 12.9053 2.50809C12.8589 2.3911 12.7485 2.3326 12.5744 2.3326C12.5008 2.3326 12.4273 2.34514 12.3537 2.37021C12.284 2.3911 12.224 2.41199 12.1737 2.43288L12.017 2.04429C12.1331 1.98997 12.2453 1.95028 12.3537 1.92521C12.466 1.89596 12.5821 1.88134 12.7021 1.88134Z" fill="#455A64"/>
<path d="M19.3747 7.20819H20.458C20.6076 7.20819 20.7289 7.08693 20.7289 6.93736V5.85402C20.7289 5.70444 20.6076 5.58319 20.458 5.58319C20.3084 5.58319 20.1872 5.70444 20.1872 5.85402V6.66652H19.3747C19.2251 6.66652 19.1038 6.78778 19.1038 6.93736C19.1038 7.08693 19.2251 7.20819 19.3747 7.20819Z" fill="#455A64"/>
<path d="M6.9163 5.58319C6.76672 5.58319 6.64547 5.70444 6.64547 5.85402V6.93736C6.64547 7.08693 6.76672 7.20819 6.9163 7.20819H7.99963C8.14921 7.20819 8.27047 7.08693 8.27047 6.93736C8.27047 6.78778 8.14921 6.66652 7.99963 6.66652H7.18713V5.85402C7.18713 5.70444 7.06588 5.58319 6.9163 5.58319Z" fill="#455A64"/>
<path d="M7.99963 1.24984H6.9163C6.76672 1.24984 6.64547 1.37109 6.64547 1.52067V2.604C6.64547 2.75358 6.76672 2.87484 6.9163 2.87484C7.06588 2.87484 7.18713 2.75358 7.18713 2.604V1.7915H7.99963C8.14921 1.7915 8.27047 1.67025 8.27047 1.52067C8.27047 1.37109 8.14921 1.24984 7.99963 1.24984Z" fill="#455A64"/>
<path d="M19.3747 1.7915H20.1872V2.604C20.1872 2.75358 20.3084 2.87484 20.458 2.87484C20.6076 2.87484 20.7289 2.75358 20.7289 2.604V1.52067C20.7289 1.37109 20.6076 1.24984 20.458 1.24984H19.3747C19.2251 1.24984 19.1038 1.37109 19.1038 1.52067C19.1038 1.67025 19.2251 1.7915 19.3747 1.7915Z" fill="#455A64"/>
<path d="M5.03961 21.7081C5.20359 21.8734 5.47056 21.8752 5.63669 21.7115L7.68778 19.6909C8.03624 19.3424 8.1422 18.8265 7.98896 18.378L8.43015 17.9525C8.6677 17.7231 8.98045 17.5966 9.31106 17.5966H14.9352C15.933 17.5966 16.876 17.2135 17.591 16.5177C17.6204 16.4891 17.3676 16.7868 21.4278 11.9341C22.03 11.2217 21.9399 10.1518 21.2268 9.54898C20.5182 8.95174 19.4566 9.03753 18.8527 9.73776L16.3563 12.3036C16.0411 11.9156 15.5604 11.6738 15.041 11.6738H10.3234C9.65208 11.3929 8.93979 11.2508 8.20485 11.2508C6.16764 11.2508 4.38881 12.1917 3.43418 13.9558C3.032 13.8796 2.60783 14.0013 2.30268 14.3064L0.290105 16.3249C0.125793 16.4898 0.125462 16.7564 0.289444 16.9217L5.03961 21.7081ZM8.20468 12.0968C8.85267 12.0968 9.47917 12.2272 10.0672 12.4844C10.1207 12.5079 10.1784 12.52 10.2368 12.52H15.041C15.4997 12.52 15.8872 12.8941 15.8872 13.366C15.8872 13.8327 15.5076 14.2122 15.041 14.2122H11.5893C11.3557 14.2122 11.1663 14.4016 11.1663 14.6352C11.1663 14.8689 11.3557 15.0582 11.5893 15.0582H15.041C15.9741 15.0582 16.7332 14.2991 16.7332 13.366C16.7332 13.2916 16.7279 13.2179 16.7183 13.1448C19.1332 10.6625 19.4738 10.3137 19.4883 10.2963C19.7898 9.94042 20.3251 9.89529 20.6811 10.1955C21.0375 10.4968 21.0827 11.0318 20.7803 11.3896L16.9858 15.9259C16.4317 16.4578 15.7042 16.7506 14.9352 16.7506H9.31106C8.75994 16.7506 8.23824 16.9614 7.8425 17.3437L7.48296 17.6907L4.16863 14.3765C4.94324 12.9233 6.39675 12.0968 8.20468 12.0968ZM2.90141 14.9043C3.04092 14.7648 3.25516 14.7397 3.42526 14.8448C3.49848 14.8894 3.28822 14.698 7.08954 18.4941C7.25865 18.6632 7.24956 18.9326 7.09186 19.0903L5.34327 20.8129L1.18638 16.6243L2.90141 14.9043Z" fill="#455A64"/>
</svg>
