<svg width="18" height="16" viewBox="0 0 18 16" fill="none" xmlns="http://www.w3.org/2000/svg">
<path d="M10.5623 13.4687H8.47902C8.34088 13.4687 8.20841 13.5236 8.11073 13.6213C8.01306 13.719 7.95818 13.8514 7.95818 13.9896V15.0312C7.95818 15.1694 8.01306 15.3018 8.11073 15.3995C8.20841 15.4972 8.34088 15.5521 8.47902 15.5521H10.5623C10.7005 15.5521 10.833 15.4972 10.9306 15.3995C11.0283 15.3018 11.0832 15.1694 11.0832 15.0312V13.9896C11.0832 13.8514 11.0283 13.719 10.9306 13.6213C10.833 13.5236 10.7005 13.4687 10.5623 13.4687ZM6.39569 11.3854H4.83319V1.48958C4.83319 1.35145 4.77832 1.21897 4.68064 1.1213C4.58297 1.02362 4.45049 0.96875 4.31236 0.96875H3.27069C3.13256 0.96875 3.00008 1.02362 2.90241 1.1213C2.80473 1.21897 2.74986 1.35145 2.74986 1.48958V11.3854H1.18736C0.725448 11.3854 0.491725 11.9466 0.819849 12.2744L3.42401 15.3994C3.52168 15.497 3.6541 15.5518 3.79217 15.5518C3.93025 15.5518 4.06267 15.497 4.16034 15.3994L6.7645 12.2744C7.09067 11.9472 6.85858 11.3854 6.39569 11.3854ZM14.729 5.13541H8.47902C8.34088 5.13541 8.20841 5.19028 8.11073 5.28796C8.01306 5.38563 7.95818 5.51811 7.95818 5.65624V6.69791C7.95818 6.83604 8.01306 6.96852 8.11073 7.06619C8.20841 7.16387 8.34088 7.21874 8.47902 7.21874H14.729C14.8671 7.21874 14.9996 7.16387 15.0973 7.06619C15.195 6.96852 15.2498 6.83604 15.2498 6.69791V5.65624C15.2498 5.51811 15.195 5.38563 15.0973 5.28796C14.9996 5.19028 14.8671 5.13541 14.729 5.13541ZM12.6457 9.30207H8.47902C8.34088 9.30207 8.20841 9.35694 8.11073 9.45462C8.01306 9.55229 7.95818 9.68477 7.95818 9.8229V10.8646C7.95818 11.0027 8.01306 11.1352 8.11073 11.2329C8.20841 11.3305 8.34088 11.3854 8.47902 11.3854H12.6457C12.7838 11.3854 12.9163 11.3305 13.014 11.2329C13.1116 11.1352 13.1665 11.0027 13.1665 10.8646V9.8229C13.1665 9.68477 13.1116 9.55229 13.014 9.45462C12.9163 9.35694 12.7838 9.30207 12.6457 9.30207ZM16.8123 0.96875H8.47902C8.34088 0.96875 8.20841 1.02362 8.11073 1.1213C8.01306 1.21897 7.95818 1.35145 7.95818 1.48958V2.53125C7.95818 2.66938 8.01306 2.80186 8.11073 2.89953C8.20841 2.99721 8.34088 3.05208 8.47902 3.05208H16.8123C16.9505 3.05208 17.0829 2.99721 17.1806 2.89953C17.2783 2.80186 17.3332 2.66938 17.3332 2.53125V1.48958C17.3332 1.35145 17.2783 1.21897 17.1806 1.1213C17.0829 1.02362 16.9505 0.96875 16.8123 0.96875Z" fill="#455A64"/>
</svg>
