<svg width="18" height="18" viewBox="0 0 18 18" fill="none" xmlns="http://www.w3.org/2000/svg">
<path fill-rule="evenodd" clip-rule="evenodd" d="M8.16674 2.33335C4.94508 2.33335 2.33341 4.94502 2.33341 8.16668C2.33341 11.3883 4.94508 14 8.16674 14C11.3884 14 14.0001 11.3883 14.0001 8.16668C14.0001 4.94502 11.3884 2.33335 8.16674 2.33335ZM0.666748 8.16668C0.666748 4.02455 4.02461 0.666687 8.16674 0.666687C12.3089 0.666687 15.6667 4.02455 15.6667 8.16668C15.6667 12.3088 12.3089 15.6667 8.16674 15.6667C4.02461 15.6667 0.666748 12.3088 0.666748 8.16668Z" fill="#455A64"/>
<path fill-rule="evenodd" clip-rule="evenodd" d="M12.2858 12.2858C12.6112 11.9603 13.1389 11.9603 13.4643 12.2858L17.0893 15.9108C17.4148 16.2362 17.4148 16.7638 17.0893 17.0893C16.7639 17.4147 16.2362 17.4147 15.9108 17.0893L12.2858 13.4643C11.9604 13.1388 11.9604 12.6112 12.2858 12.2858Z" fill="#455A64"/>
</svg>
