<svg width="14" height="12" viewBox="0 0 14 12" fill="none" xmlns="http://www.w3.org/2000/svg">
<path fill-rule="evenodd" clip-rule="evenodd" d="M7.27892 11.2211C6.907 10.8491 6.907 10.2461 7.27892 9.87419L11.3674 5.78572L7.27893 1.69725C6.907 1.32532 6.907 0.722304 7.27893 0.350377C7.65085 -0.0215511 8.25387 -0.021551 8.62579 0.350377L13.3877 5.11228C13.7596 5.48421 13.7596 6.08722 13.3877 6.45915L8.62579 11.2211C8.25387 11.593 7.65085 11.593 7.27892 11.2211Z" fill="#00A4CF"/>
<path fill-rule="evenodd" clip-rule="evenodd" d="M0.612259 11.2211C0.240331 10.8491 0.240331 10.2461 0.612259 9.87418L4.70073 5.78572L0.61226 1.69725C0.240332 1.32532 0.240332 0.722303 0.61226 0.350376C0.984188 -0.021552 1.5872 -0.0215519 1.95913 0.350376L6.72103 5.11228C7.09296 5.48421 7.09296 6.08722 6.72103 6.45915L1.95913 11.2211C1.5872 11.593 0.984187 11.593 0.612259 11.2211Z" fill="#00A4CF"/>
</svg>
