<svg width="22" height="22" viewBox="0 0 22 22" fill="none" xmlns="http://www.w3.org/2000/svg">
<path d="M7.95693 1.9923H7.22661V4.1833H7.95693V1.9923Z" fill="#455A64"/>
<path d="M7.95693 4.6702H7.22661V5.64397H7.95693V4.6702Z" fill="#455A64"/>
<path d="M10.2697 17.4511C6.84665 17.4511 4.0618 14.6663 4.0618 11.2432C4.0618 9.41442 4.85577 7.71193 6.25132 6.52403L9.41762 9.69033V0.65338H0.380626L3.49263 3.76543C1.37395 5.68051 0.166668 8.3836 0.166668 11.2433C0.166668 13.9429 1.21729 16.4802 3.12497 18.388C5.03265 20.2957 7.57007 21.3463 10.2697 21.3463H10.6348V17.4511L10.2697 17.4511ZM9.90448 20.609C7.53702 20.519 5.32486 19.5549 3.64142 17.8715C1.87165 16.1018 0.896987 13.7478 0.896987 11.2433C0.896987 8.46785 2.12344 5.85118 4.26184 4.06427L4.56822 3.80821L2.14375 1.3837H8.6873V7.92725L6.30862 5.54852L6.05446 5.74412C4.32396 7.07569 3.33148 9.08006 3.33148 11.2433C3.33148 14.9464 6.24802 17.9813 9.90452 18.172L9.90448 20.609Z" fill="#455A64"/>
<path d="M7.95693 1.9923H7.22661V4.1833H7.95693V1.9923Z" fill="#455A64"/>
<path d="M7.95693 4.6702H7.22661V5.64397H7.95693V4.6702Z" fill="#455A64"/>
<path d="M14.7734 17.8163H14.0431V20.0073H14.7734V17.8163Z" fill="#455A64"/>
<path d="M14.7734 16.3556H14.0431V17.3294H14.7734V16.3556Z" fill="#455A64"/>
<path d="M21.8333 10.7563C21.8333 8.05672 20.7827 5.51935 18.875 3.61162C16.9673 1.70394 14.4299 0.65332 11.7303 0.65332H11.3652V4.54845H11.7303C15.1534 4.54845 17.9382 7.3333 17.9382 10.7563C17.9382 12.5851 17.1442 14.2876 15.7487 15.4755L12.5824 12.3092V21.3462H21.6194L18.5074 18.2342C20.626 16.3191 21.8333 13.616 21.8333 10.7563ZM19.8562 20.6159H13.3127V14.0724L15.6913 16.4511L15.9455 16.2555C17.676 14.9239 18.6685 12.9195 18.6685 10.7563C18.6685 7.0532 15.752 4.01834 12.0955 3.82761V1.39058C14.4629 1.48059 16.6751 2.44467 18.3585 4.12807C20.1283 5.89784 21.103 8.2518 21.103 10.7563C21.103 13.5317 19.8765 16.1484 17.7381 17.9353L17.4317 18.1914L19.8562 20.6159Z" fill="#455A64"/>
<path d="M14.7734 17.8163H14.0431V20.0073H14.7734V17.8163Z" fill="#455A64"/>
<path d="M14.7734 16.3556H14.0431V17.3294H14.7734V16.3556Z" fill="#455A64"/>
</svg>
