<svg width="16" height="18" viewBox="0 0 16 18" fill="none" xmlns="http://www.w3.org/2000/svg">
<path fill-rule="evenodd" clip-rule="evenodd" d="M12.6212 2.18184C11.7844 2.18184 11.1061 2.8602 11.1061 3.69699C11.1061 4.53379 11.7844 5.21214 12.6212 5.21214C13.458 5.21214 14.1364 4.53379 14.1364 3.69699C14.1364 2.8602 13.458 2.18184 12.6212 2.18184ZM9.59091 3.69699C9.59091 2.0234 10.9476 0.666687 12.6212 0.666687C14.2948 0.666687 15.6515 2.0234 15.6515 3.69699C15.6515 5.37058 14.2948 6.72729 12.6212 6.72729C10.9476 6.72729 9.59091 5.37058 9.59091 3.69699Z" fill="#455A64"/>
<path fill-rule="evenodd" clip-rule="evenodd" d="M3.5303 7.48487C2.69351 7.48487 2.01515 8.16323 2.01515 9.00002C2.01515 9.83682 2.69351 10.5152 3.5303 10.5152C4.3671 10.5152 5.04545 9.83682 5.04545 9.00002C5.04545 8.16323 4.3671 7.48487 3.5303 7.48487ZM0.5 9.00002C0.5 7.32643 1.85671 5.96972 3.5303 5.96972C5.20389 5.96972 6.56061 7.32643 6.56061 9.00002C6.56061 10.6736 5.20389 12.0303 3.5303 12.0303C1.85671 12.0303 0.5 10.6736 0.5 9.00002Z" fill="#455A64"/>
<path fill-rule="evenodd" clip-rule="evenodd" d="M12.6212 12.7879C11.7844 12.7879 11.1061 13.4663 11.1061 14.3031C11.1061 15.1398 11.7844 15.8182 12.6212 15.8182C13.458 15.8182 14.1364 15.1398 14.1364 14.3031C14.1364 13.4663 13.458 12.7879 12.6212 12.7879ZM9.59091 14.3031C9.59091 12.6295 10.9476 11.2727 12.6212 11.2727C14.2948 11.2727 15.6515 12.6295 15.6515 14.3031C15.6515 15.9766 14.2948 17.3334 12.6212 17.3334C10.9476 17.3334 9.59091 15.9766 9.59091 14.3031Z" fill="#455A64"/>
<path fill-rule="evenodd" clip-rule="evenodd" d="M4.83788 9.76253C5.04853 9.40103 5.51235 9.27875 5.87385 9.4894L11.0481 12.5046C11.4096 12.7152 11.5319 13.179 11.3212 13.5405C11.1106 13.902 10.6467 14.0243 10.2852 13.8137L5.11101 10.7985C4.74951 10.5879 4.62722 10.124 4.83788 9.76253Z" fill="#455A64"/>
<path fill-rule="evenodd" clip-rule="evenodd" d="M11.3134 4.45908C11.5243 4.82045 11.4023 5.28435 11.0409 5.49523L5.87427 8.51038C5.5129 8.72127 5.04901 8.59928 4.83812 8.23791C4.62724 7.87655 4.74923 7.41265 5.11059 7.20176L10.2773 4.18661C10.6386 3.97573 11.1025 4.09772 11.3134 4.45908Z" fill="#455A64"/>
</svg>
