<svg width="36" height="37" viewBox="0 0 36 37" fill="none" xmlns="http://www.w3.org/2000/svg">
<g clip-path="url(#clip0_102_2344)">
<path d="M30.3816 9.17967C27.9775 8.36761 26.0537 6.45986 25.2353 4.0764C25.1224 3.74772 24.8144 3.52686 24.4688 3.52686H11.5316C11.186 3.52686 10.8781 3.74772 10.7651 4.07647C9.94671 6.45986 8.02284 8.36761 5.61882 9.1796C5.28775 9.29137 5.06535 9.59992 5.06535 9.94732V16.0802C5.06535 20.2595 6.39112 24.2346 8.89936 27.5756C11.1149 30.5269 14.2469 32.8597 17.7183 34.1445C17.9001 34.2117 18.1002 34.2117 18.2819 34.1445C21.2859 33.0327 23.9998 31.1727 26.1302 28.7655C26.3234 28.5472 26.303 28.2136 26.0847 28.0204C25.8663 27.8271 25.5327 27.8475 25.3396 28.0658C23.3441 30.3206 20.8079 32.0677 18.0001 33.1228C14.7502 31.9012 11.8207 29.7088 9.74359 26.9419C7.37364 23.785 6.12099 20.0291 6.12099 16.0802V10.1225C8.70152 9.19565 10.7709 7.14284 11.7057 4.58251H24.2945C25.2293 7.14284 27.2986 9.19565 29.8792 10.1225V16.0802C29.8792 19.6813 28.8248 23.1579 26.83 26.134C26.6677 26.3762 26.7324 26.7041 26.9746 26.8664C27.2168 27.0288 27.5447 26.964 27.707 26.7218C29.8187 23.5712 30.9349 19.8914 30.9349 16.0803V9.94739C30.935 9.59999 30.7125 9.29144 30.3816 9.17967V9.17967ZM16.4166 22.2096C16.4166 23.0828 17.1269 23.7932 18.0001 23.7932C18.8734 23.7932 19.5837 23.0828 19.5837 22.2096V20.8257C19.7912 20.5139 19.9004 20.1527 19.9004 19.7754C19.9004 19.2547 19.6833 18.7511 19.3047 18.3936C18.9207 18.031 18.418 17.8482 17.8892 17.8782C16.9548 17.9317 16.1887 18.6746 16.1072 19.6062C16.0694 20.0382 16.179 20.4678 16.4166 20.8257V22.2096ZM17.159 19.6981C17.1951 19.2852 17.535 18.956 17.9496 18.9323C17.9665 18.9313 17.9833 18.9308 18.0001 18.9308C18.2172 18.9308 18.4215 19.0115 18.5799 19.1611C18.7507 19.3224 18.8447 19.5406 18.8447 19.7754C18.8447 19.9564 18.7882 20.1289 18.6814 20.2744C18.5811 20.4109 18.528 20.5747 18.528 20.7481V22.2096C18.528 22.5007 18.2912 22.7374 18.0001 22.7374C17.7091 22.7374 17.4723 22.5007 17.4723 22.2096V20.748C17.4723 20.5748 17.4192 20.4109 17.3188 20.2742C17.2331 20.1576 17.1358 19.9629 17.159 19.6981ZM32.4496 6.98237C29.8243 6.71527 27.7223 4.63311 27.4515 2.03133C27.3858 1.40107 26.8595 0.925781 26.2269 0.925781H9.77343C9.14091 0.925781 8.61446 1.40107 8.54893 2.03133C8.27811 4.63304 6.1761 6.71527 3.55081 6.98237C2.91921 7.04663 2.44287 7.57315 2.44287 8.20714V16.0803C2.44287 20.7828 3.92475 25.2637 6.72831 29.0385C8.07717 30.8547 9.6934 32.4484 11.5321 33.7753C13.3936 35.1187 15.4422 36.1586 17.6212 36.8662C17.8656 36.9456 18.1348 36.9456 18.3792 36.8662C20.5581 36.1586 22.6067 35.1186 24.4682 33.7753C26.3069 32.4483 27.9231 30.8547 29.272 29.0385C32.0755 25.2637 33.5574 20.7828 33.5574 16.0803V8.20714C33.5574 7.57315 33.0812 7.04656 32.4496 6.98237V6.98237ZM32.5017 16.0803C32.5017 20.5544 31.0918 24.8176 28.4245 28.4091C25.8089 31.9308 22.2225 34.508 18.053 35.8622C18.0189 35.8732 17.9814 35.8732 17.9473 35.8622C13.7778 34.508 10.1914 31.9308 7.57584 28.4091C4.90854 24.8176 3.49859 20.5544 3.49859 16.0803V8.20714C3.49859 8.11684 3.56693 8.04182 3.65765 8.03267C6.77793 7.71525 9.27661 5.23727 9.59895 2.14063C9.60838 2.04991 9.68341 1.9815 9.77343 1.9815H26.2269C26.3169 1.9815 26.3919 2.04991 26.4013 2.14063C26.7237 5.23727 29.2224 7.71525 32.3427 8.03267C32.4334 8.04189 32.5017 8.11691 32.5017 8.20714V16.0803ZM13.72 9.85139C13.8752 9.60463 13.8011 9.27877 13.5543 9.12351C13.3076 8.96817 12.9816 9.0425 12.8264 9.28918C12.215 10.2611 11.8918 11.383 11.8918 12.5338V15.4697C11.0858 15.922 10.5397 16.7845 10.5397 17.7726V23.8958C10.5397 25.3511 11.7237 26.535 13.179 26.535H22.8213C24.2766 26.535 25.4606 25.3511 25.4606 23.8958V17.7726C25.4606 16.7845 24.9145 15.9221 24.1085 15.4697V12.5338C24.1085 9.16559 21.3683 6.42537 18.0001 6.42537C16.8369 6.42537 15.7046 6.75511 14.7257 7.37897C14.4798 7.53563 14.4075 7.86192 14.5642 8.10776C14.7209 8.35361 15.0472 8.42596 15.293 8.26922C16.1021 7.75361 17.0382 7.48109 18.0001 7.48109C20.7861 7.48109 23.0527 9.74772 23.0527 12.5338V15.1441C22.9764 15.1374 22.8992 15.1333 22.8212 15.1333H21.997V12.5338C21.997 11.466 21.5812 10.4621 20.8259 9.70675C20.0706 8.95227 19.067 8.53674 18.0001 8.53674C15.7962 8.53674 14.0031 10.3298 14.0031 12.5337V15.1332H13.179C13.1009 15.1332 13.0238 15.1373 12.9474 15.144V12.5338C12.9475 11.5822 13.2146 10.6546 13.72 9.85139V9.85139ZM15.0589 12.5338C15.0589 10.912 16.3784 9.59253 18.0001 9.59253C18.7853 9.59253 19.5239 9.8984 20.0797 10.4535C20.6354 11.0092 20.9414 11.748 20.9414 12.5338V15.1333H15.0589V12.5338ZM13.179 16.189H22.8213C23.6945 16.189 24.4048 16.8994 24.4048 17.7726V23.8958C24.4048 24.769 23.6945 25.4793 22.8213 25.4793H13.179C12.3058 25.4793 11.5955 24.769 11.5955 23.8958V17.7726C11.5955 16.8994 12.3059 16.189 13.179 16.189V16.189Z" fill="#455A64"/>
</g>
<defs>
<clipPath id="clip0_102_2344">
<rect width="36" height="36" fill="white" transform="translate(0 0.925781)"/>
</clipPath>
</defs>
</svg>
