<svg width="16" height="17" viewBox="0 0 16 17" fill="none" xmlns="http://www.w3.org/2000/svg">
<path fill-rule="evenodd" clip-rule="evenodd" d="M3.3335 3.16634C3.15669 3.16634 2.98712 3.23658 2.86209 3.3616C2.73707 3.48663 2.66683 3.6562 2.66683 3.83301V13.1663C2.66683 13.3432 2.73707 13.5127 2.86209 13.6377C2.98712 13.7628 3.15669 13.833 3.3335 13.833H6.00016C6.36835 13.833 6.66683 14.1315 6.66683 14.4997C6.66683 14.8679 6.36835 15.1663 6.00016 15.1663H3.3335C2.80306 15.1663 2.29436 14.9556 1.91928 14.5806C1.54421 14.2055 1.3335 13.6968 1.3335 13.1663V3.83301C1.3335 3.30257 1.54421 2.79387 1.91928 2.41879C2.29436 2.04372 2.80306 1.83301 3.3335 1.83301H6.00016C6.36835 1.83301 6.66683 2.13148 6.66683 2.49967C6.66683 2.86786 6.36835 3.16634 6.00016 3.16634H3.3335Z" fill="#00A4CF"/>
<path fill-rule="evenodd" clip-rule="evenodd" d="M10.1954 4.69494C10.4558 4.43459 10.8779 4.43459 11.1382 4.69494L14.4716 8.02827C14.7319 8.28862 14.7319 8.71073 14.4716 8.97108L11.1382 12.3044C10.8779 12.5648 10.4558 12.5648 10.1954 12.3044C9.93508 12.0441 9.93508 11.622 10.1954 11.3616L13.0574 8.49967L10.1954 5.63775C9.93508 5.3774 9.93508 4.95529 10.1954 4.69494Z" fill="#00A4CF"/>
<path fill-rule="evenodd" clip-rule="evenodd" d="M5.3335 8.49967C5.3335 8.13148 5.63197 7.83301 6.00016 7.83301H14.0002C14.3684 7.83301 14.6668 8.13148 14.6668 8.49967C14.6668 8.86786 14.3684 9.16634 14.0002 9.16634H6.00016C5.63197 9.16634 5.3335 8.86786 5.3335 8.49967Z" fill="#00A4CF"/>
</svg>
