<svg width="24" height="13" viewBox="0 0 24 13" fill="none" xmlns="http://www.w3.org/2000/svg">
<path d="M4 7.92578C5.1 7.92578 6 7.02578 6 5.92578C6 4.82578 5.1 3.92578 4 3.92578C2.9 3.92578 2 4.82578 2 5.92578C2 7.02578 2.9 7.92578 4 7.92578ZM5.13 9.02578C4.76 8.96578 4.39 8.92578 4 8.92578C3.01 8.92578 2.07 9.13578 1.22 9.50578C0.48 9.82578 0 10.5458 0 11.3558V12.9258H4.5V11.3158C4.5 10.4858 4.73 9.70578 5.13 9.02578ZM20 7.92578C21.1 7.92578 22 7.02578 22 5.92578C22 4.82578 21.1 3.92578 20 3.92578C18.9 3.92578 18 4.82578 18 5.92578C18 7.02578 18.9 7.92578 20 7.92578ZM24 11.3558C24 10.5458 23.52 9.82578 22.78 9.50578C21.93 9.13578 20.99 8.92578 20 8.92578C19.61 8.92578 19.24 8.96578 18.87 9.02578C19.27 9.70578 19.5 10.4858 19.5 11.3158V12.9258H24V11.3558ZM16.24 8.57578C15.07 8.05578 13.63 7.67578 12 7.67578C10.37 7.67578 8.93 8.06578 7.76 8.57578C6.68 9.05578 6 10.1358 6 11.3158V12.9258H18V11.3158C18 10.1358 17.32 9.05578 16.24 8.57578ZM8.07 10.9258C8.16 10.6958 8.2 10.5358 8.98 10.2358C9.95 9.85578 10.97 9.67578 12 9.67578C13.03 9.67578 14.05 9.85578 15.02 10.2358C15.79 10.5358 15.83 10.6958 15.93 10.9258H8.07ZM12 2.92578C12.55 2.92578 13 3.37578 13 3.92578C13 4.47578 12.55 4.92578 12 4.92578C11.45 4.92578 11 4.47578 11 3.92578C11 3.37578 11.45 2.92578 12 2.92578ZM12 0.925781C10.34 0.925781 9 2.26578 9 3.92578C9 5.58578 10.34 6.92578 12 6.92578C13.66 6.92578 15 5.58578 15 3.92578C15 2.26578 13.66 0.925781 12 0.925781Z" fill="#E87C28"/>
</svg>
