<svg width="12" height="15" viewBox="0 0 12 15" fill="none" xmlns="http://www.w3.org/2000/svg">
<path fill-rule="evenodd" clip-rule="evenodd" d="M1.19916 1.36586C1.54013 1.02489 2.0026 0.833328 2.48481 0.833328H7.33329C7.49403 0.833328 7.64818 0.897181 7.76184 1.01084L11.3982 4.6472C11.5119 4.76086 11.5757 4.91502 11.5757 5.07575V12.3485C11.5757 12.8307 11.3842 13.2932 11.0432 13.6341C10.7022 13.9751 10.2397 14.1667 9.75753 14.1667H2.48481C2.0026 14.1667 1.54013 13.9751 1.19916 13.6341C0.858184 13.2932 0.666626 12.8307 0.666626 12.3485V2.65151C0.666626 2.1693 0.858184 1.70684 1.19916 1.36586ZM2.48481 2.04545C2.32407 2.04545 2.16992 2.1093 2.05626 2.22296C1.9426 2.33662 1.87875 2.49077 1.87875 2.65151V12.3485C1.87875 12.5092 1.9426 12.6634 2.05626 12.777C2.16992 12.8907 2.32407 12.9545 2.48481 12.9545H9.75753C9.91827 12.9545 10.0724 12.8907 10.1861 12.777C10.2997 12.6634 10.3636 12.5092 10.3636 12.3485V5.32679L7.08225 2.04545H2.48481Z" fill="#00A4CF"/>
<path fill-rule="evenodd" clip-rule="evenodd" d="M7.33329 0.833328C7.66801 0.833328 7.93935 1.10467 7.93935 1.43939V4.46969H10.9697C11.3044 4.46969 11.5757 4.74103 11.5757 5.07575C11.5757 5.41047 11.3044 5.68181 10.9697 5.68181H7.33329C6.99857 5.68181 6.72723 5.41047 6.72723 5.07575V1.43939C6.72723 1.10467 6.99857 0.833328 7.33329 0.833328Z" fill="#00A4CF"/>
<path fill-rule="evenodd" clip-rule="evenodd" d="M3.09087 8.10606C3.09087 7.77134 3.36221 7.5 3.69693 7.5H8.54541C8.88013 7.5 9.15147 7.77134 9.15147 8.10606C9.15147 8.44077 8.88013 8.71212 8.54541 8.71212H3.69693C3.36221 8.71212 3.09087 8.44077 3.09087 8.10606Z" fill="#00A4CF"/>
<path fill-rule="evenodd" clip-rule="evenodd" d="M3.09087 10.5303C3.09087 10.1956 3.36221 9.92424 3.69693 9.92424H8.54541C8.88013 9.92424 9.15147 10.1956 9.15147 10.5303C9.15147 10.865 8.88013 11.1364 8.54541 11.1364H3.69693C3.36221 11.1364 3.09087 10.865 3.09087 10.5303Z" fill="#00A4CF"/>
<path fill-rule="evenodd" clip-rule="evenodd" d="M3.09087 5.68181C3.09087 5.3471 3.36221 5.07575 3.69693 5.07575H4.90905C5.24377 5.07575 5.51511 5.3471 5.51511 5.68181C5.51511 6.01653 5.24377 6.28787 4.90905 6.28787H3.69693C3.36221 6.28787 3.09087 6.01653 3.09087 5.68181Z" fill="#00A4CF"/>
</svg>
