<svg width="8" height="10" viewBox="0 0 8 10" fill="none" xmlns="http://www.w3.org/2000/svg">
<path d="M2.01172 0.833313C2.36112 0.833322 2.63482 0.978908 2.83282 1.27007C3.04246 1.5496 3.15893 1.93395 3.18223 2.42311V4.25749H3.67139L4.4925 5.09607H3.18223V7.47203C3.18222 7.65838 3.2521 7.82726 3.39187 7.97867C3.53163 8.13008 3.75874 8.20578 4.07321 8.20578C4.48085 8.20578 4.91178 7.97867 5.36601 7.52444C5.83188 7.05857 6.07647 6.58105 6.09977 6.09187L5.89012 6.10934C5.14472 6.10935 4.77202 5.71336 4.77202 4.92136C4.77202 4.65349 4.85937 4.41473 5.03408 4.20508C5.20878 3.99544 5.49995 3.89062 5.90759 3.89062C6.33852 3.89062 6.69957 4.07697 6.99075 4.44967C7.29356 4.82237 7.44497 5.2766 7.44498 5.81235C7.44497 6.60434 7.10721 7.36139 6.4317 8.08349C5.76783 8.8056 4.97584 9.16665 4.05574 9.16665C3.71798 9.16665 3.35693 9.02106 2.97258 8.72989C2.59988 8.42707 2.37859 8.1359 2.30871 7.85637V5.09607H1.47014L0.666504 4.25749H2.30871V2.59781C2.30871 2.26006 2.10489 2.06207 1.69725 2.00382C1.5109 2.00383 1.38861 2.03295 1.33038 2.09118C1.22555 1.91648 1.12656 1.70684 1.03338 1.46224V1.37489C1.03338 1.22349 1.14985 1.09538 1.38279 0.990547C1.61572 0.885734 1.82537 0.833322 2.01172 0.833313Z" fill="#2E353A"/>
</svg>
