<svg width="36" height="37" viewBox="0 0 36 37" fill="none" xmlns="http://www.w3.org/2000/svg">
<path d="M13.0646 5.29883C11.8622 5.29883 10.8872 6.27378 10.8872 7.47625C10.8872 8.67872 11.8622 9.65367 13.0646 9.65367C14.2671 9.65367 15.2421 8.67872 15.2421 7.47625C15.2421 6.27378 14.2671 5.29883 13.0646 5.29883ZM13.0646 8.56496C12.4635 8.56496 11.9759 8.07738 11.9759 7.47625C11.9759 6.87491 12.4635 6.38754 13.0646 6.38754C13.666 6.38754 14.1533 6.87491 14.1533 7.47625C14.1533 8.07738 13.666 8.56496 13.0646 8.56496Z" fill="#455A64"/>
<path d="M34.2945 12.9203H22.8631C22.5624 12.9203 22.3187 13.164 22.3187 13.4647V25.7594C22.0197 25.6101 21.7063 25.4921 21.3829 25.4077C21.2704 25.3745 16.3308 24.4442 16.3308 24.4442V22.7393C17.9979 21.9187 19.0534 20.2219 19.0526 18.3638V13.4647H20.6856C20.9863 13.4647 21.23 13.2208 21.23 12.9203V10.7429C21.23 10.4422 20.9863 10.1985 20.6856 10.1985H20.052C19.6084 7.25369 17.5335 4.81515 14.6977 3.90612V2.57756C14.6977 2.27689 14.4541 2.0332 14.1534 2.0332H11.976C11.6753 2.0332 11.4316 2.27689 11.4316 2.57756V3.90612C8.59586 4.81515 6.52094 7.25369 6.07737 10.1985H5.44371C5.14304 10.1985 4.89935 10.4422 4.89935 10.7429V12.9203C4.89935 13.2208 5.14304 13.4647 5.44371 13.4647H7.07677V18.3638C7.07592 20.2217 8.13167 21.9183 9.79855 22.7389V24.4442C9.79855 24.4442 4.85895 25.3745 4.7639 25.4028L4.75072 25.4071H4.74647C2.59074 25.9684 1.08696 27.916 1.08887 30.1436V35.2388C1.08887 35.5393 1.33255 35.7832 1.63322 35.7832H24.4961C24.7968 35.7832 25.0405 35.5393 25.0405 35.2388V30.1436C25.0394 29.8442 25.0114 29.5454 24.9563 29.2509H34.2945C34.5952 29.2509 34.8389 29.007 34.8389 28.7066V13.4647C34.8389 13.164 34.5952 12.9203 34.2945 12.9203V12.9203ZM11.976 23.263H14.1534C14.4949 23.2622 14.8357 23.2258 15.1698 23.154C15.1943 23.1503 15.2183 23.1472 15.2421 23.1414V24.3518H10.8873V23.1403C10.9106 23.1461 10.9347 23.1493 10.9585 23.1529C11.293 23.225 11.6338 23.262 11.976 23.263ZM14.7288 25.4405L13.0647 27.7695L11.4006 25.4405H14.7288ZM12.5203 3.66627V3.12191H13.609V3.66627H12.5203ZM13.0647 4.75498C16.1158 4.75498 18.4578 7.46888 18.9546 10.1985H7.1748C7.67174 7.46888 10.0163 4.75498 13.0647 4.75498V4.75498ZM5.98806 11.2872H20.1413V12.3759H5.98806V11.2872ZM8.16548 18.3638V13.4647H17.9639V18.3638C17.9677 19.9172 17.0257 21.3163 15.5851 21.8973C15.1296 22.0797 14.6437 22.1737 14.1534 22.1743H11.976C11.4867 22.1739 11.0019 22.0803 10.5477 21.899C9.10556 21.3185 8.16208 19.9184 8.16548 18.3638V18.3638ZM2.17758 30.1436C2.17971 28.6758 3.02728 27.3406 4.355 26.7142V34.6945H2.17758V30.1436ZM5.44371 26.3708L7.62113 25.9608V34.6945H5.44371V26.3708ZM8.70984 25.7562L10.1018 25.4949L12.6215 29.0228C12.7236 29.1661 12.8888 29.2509 13.0647 29.2509C13.2407 29.2509 13.4057 29.1661 13.5078 29.0228L16.0276 25.4949L17.4195 25.7562V34.6945H8.70984V25.7562ZM18.5082 34.6945V25.9608L20.6856 26.3708V34.6945H18.5082ZM23.9518 30.1436V34.6945H21.7744V26.7089C21.9638 26.7971 22.146 26.9009 22.3187 27.0189V28.7066C22.3187 29.007 22.5624 29.2509 22.8631 29.2509H23.8467C23.9163 29.5435 23.9514 29.8431 23.9518 30.1436ZM33.7502 28.1622H23.4074V14.009H33.7502V28.1622Z" fill="#455A64"/>
<path d="M22.7538 11.2761L25.4756 11.8205C25.5113 11.8279 25.5479 11.8318 25.5845 11.8316H33.2054C34.1072 11.8316 34.8385 11.1003 34.8385 10.1985C34.8385 9.29648 34.1072 8.56543 33.2054 8.56543H25.5845C25.5651 8.56798 25.5458 8.57181 25.5269 8.5767C25.5098 8.5767 25.4941 8.57245 25.478 8.5767L22.7562 9.12105C22.5019 9.17188 22.319 9.39493 22.3184 9.65414V10.7428C22.3184 11.0014 22.5004 11.2245 22.7538 11.2761ZM33.7498 10.1985C33.7498 10.499 33.5061 10.7428 33.2054 10.7428H32.1167V9.65414H33.2054C33.5061 9.65414 33.7498 9.89782 33.7498 10.1985ZM31.028 10.7428H26.1288V9.65414H31.028V10.7428ZM23.4071 10.1003L25.0401 9.77386V10.6229L23.4071 10.2965V10.1003Z" fill="#455A64"/>
<path d="M24.496 18.9076H27.7622C28.0628 18.9076 28.3065 18.6637 28.3065 18.3632V15.0971C28.3065 14.7964 28.0628 14.5527 27.7622 14.5527H24.496C24.1953 14.5527 23.9517 14.7964 23.9517 15.0971V18.3632C23.9517 18.6637 24.1953 18.9076 24.496 18.9076ZM25.0404 15.6414H27.2178V17.8189H25.0404V15.6414Z" fill="#455A64"/>
<path d="M24.496 21.0848H32.6613C32.962 21.0848 33.2057 20.8409 33.2057 20.5405C33.2057 20.2398 32.962 19.9961 32.6613 19.9961H24.496C24.1953 19.9961 23.9517 20.2398 23.9517 20.5405C23.9517 20.8409 24.1953 21.0848 24.496 21.0848Z" fill="#455A64"/>
<path d="M24.496 23.2625H31.5726C31.8733 23.2625 32.117 23.0186 32.117 22.7182C32.117 22.4175 31.8733 22.1738 31.5726 22.1738H24.496C24.1953 22.1738 23.9517 22.4175 23.9517 22.7182C23.9517 23.0186 24.1953 23.2625 24.496 23.2625Z" fill="#455A64"/>
<path d="M24.496 27.617H31.0283C31.3289 27.617 31.5726 27.3731 31.5726 27.0727C31.5726 26.772 31.3289 26.5283 31.0283 26.5283H24.496C24.1953 26.5283 23.9517 26.772 23.9517 27.0727C23.9517 27.3731 24.1953 27.617 24.496 27.617Z" fill="#455A64"/>
<path d="M32.6614 24.3516H31.5727C31.272 24.3516 31.0283 24.5952 31.0283 24.8959C31.0283 25.1964 31.272 25.4403 31.5727 25.4403H32.6614C32.9621 25.4403 33.2058 25.1964 33.2058 24.8959C33.2058 24.5952 32.9621 24.3516 32.6614 24.3516Z" fill="#455A64"/>
<path d="M24.496 25.4403H29.3952C29.6959 25.4403 29.9395 25.1964 29.9395 24.8959C29.9395 24.5952 29.6959 24.3516 29.3952 24.3516H24.496C24.1953 24.3516 23.9517 24.5952 23.9517 24.8959C23.9517 25.1964 24.1953 25.4403 24.496 25.4403Z" fill="#455A64"/>
<path d="M29.9394 18.908H32.6611C32.9618 18.908 33.2055 18.6641 33.2055 18.3637C33.2055 18.063 32.9618 17.8193 32.6611 17.8193H29.9394C29.6387 17.8193 29.395 18.063 29.395 18.3637C29.395 18.6641 29.6387 18.908 29.9394 18.908Z" fill="#455A64"/>
<path d="M29.9394 16.7303H32.6611C32.9618 16.7303 33.2055 16.4864 33.2055 16.186C33.2055 15.8853 32.9618 15.6416 32.6611 15.6416H29.9394C29.6387 15.6416 29.395 15.8853 29.395 16.186C29.395 16.4864 29.6387 16.7303 29.9394 16.7303Z" fill="#455A64"/>
</svg>
