<svg width="20" height="15" viewBox="0 0 20 15" fill="none" xmlns="http://www.w3.org/2000/svg">
<path fill-rule="evenodd" clip-rule="evenodd" d="M9.99988 0.330566C9.99988 0.330566 10 0.330566 10 1.16386L9.99999 1.99715L9.93711 1.99725C9.89541 1.99734 9.83382 1.99752 9.75477 1.99789C9.59665 1.99864 9.36878 2.00012 9.09073 2.0031C8.53428 2.00905 7.77842 2.02095 6.97906 2.0447C6.17837 2.06849 5.34072 2.10399 4.61869 2.15666C3.87863 2.21064 3.32875 2.27848 3.05479 2.35063C2.80589 2.42213 2.58 2.55757 2.39964 2.74351C2.22371 2.92488 2.09713 3.14809 2.03172 3.39188C1.78212 4.7865 1.66005 6.20097 1.66705 7.61777L1.6671 7.62712C1.65817 9.04973 1.77931 10.4701 2.02911 11.8706C2.10129 12.102 2.22915 12.3123 2.40168 12.4831C2.58243 12.662 2.80613 12.7914 3.05128 12.8589C3.32404 12.9314 3.87546 12.9996 4.61869 13.0538C5.34072 13.1064 6.17837 13.1419 6.97906 13.1657C7.77842 13.1895 8.53428 13.2014 9.09073 13.2073C9.36878 13.2103 9.59665 13.2118 9.75477 13.2125C9.83382 13.2129 9.89541 13.2131 9.93711 13.2132H10.0629C10.1046 13.2131 10.1662 13.2129 10.2452 13.2125C10.4034 13.2118 10.6312 13.2103 10.9093 13.2073C11.4657 13.2014 12.2216 13.1895 13.0209 13.1657C13.8216 13.1419 14.6593 13.1064 15.3813 13.0538C16.1214 12.9998 16.6712 12.932 16.9452 12.8598C17.1941 12.7883 17.42 12.6529 17.6004 12.4669C17.7763 12.2856 17.9029 12.0624 17.9683 11.8186C18.2159 10.4345 18.338 9.03093 18.3329 7.62488L18.3329 7.61665C18.3419 6.1891 18.2198 4.76376 17.9683 3.35856C17.9029 3.11477 17.7763 2.89155 17.6004 2.71017C17.4221 2.52637 17.1993 2.39191 16.9537 2.31978C16.6705 2.25314 16.1186 2.19171 15.3866 2.14296C14.6631 2.09478 13.8243 2.06233 13.0231 2.0406C12.2231 2.01889 11.4668 2.00802 10.91 2.00258C10.6318 1.99987 10.4038 1.99851 10.2456 1.99783L10.0631 1.99724L9.99999 1.99715L10 1.16386C10 0.330566 9.99988 0.330566 9.99988 0.330566L10.0664 0.330654C10.1093 0.33074 10.1723 0.330913 10.2527 0.331258C10.4136 0.331947 10.6447 0.333324 10.9263 0.336075C11.4893 0.341574 12.2558 0.352577 13.0683 0.374621C13.8795 0.396632 14.7427 0.429807 15.4973 0.480057C16.2303 0.528872 16.9259 0.59736 17.364 0.704335C17.3738 0.706721 17.3835 0.709284 17.3932 0.712022C17.9266 0.862926 18.4107 1.15191 18.7966 1.5498C19.1826 1.94768 19.4567 2.44037 19.5913 2.9781L18.7829 3.18043L19.603 3.03251C19.8762 4.5472 20.0089 6.08389 19.9995 7.623C20.0047 9.13908 19.872 10.6525 19.603 12.1445C19.5997 12.1628 19.5958 12.181 19.5913 12.199C19.4567 12.7367 19.1826 13.2294 18.7966 13.6273C18.4107 14.0252 17.9266 14.3142 17.3932 14.4651L17.3816 14.4683C16.9369 14.5872 16.2353 14.6625 15.5025 14.716C14.7465 14.7711 13.8822 14.8075 13.0704 14.8316C12.2574 14.8558 11.4904 14.8678 10.9271 14.8738C10.6453 14.8769 10.4141 14.8784 10.2531 14.8791C10.1725 14.8795 10.1096 14.8797 10.0666 14.8798L10.0004 14.8799L9.93342 14.8798C9.89044 14.8797 9.82746 14.8795 9.74695 14.8791C9.58594 14.8784 9.35471 14.8769 9.0729 14.8738C8.50961 14.8678 7.74263 14.8558 6.92956 14.8316C6.11783 14.8075 5.25347 14.7711 4.49745 14.716C3.76474 14.6625 3.06307 14.5872 2.61838 14.4683L2.61375 14.467C2.09122 14.3241 1.61439 14.0487 1.22934 13.6676C0.844294 13.2866 0.56404 12.8126 0.415658 12.2916C0.408125 12.2651 0.401907 12.2383 0.397026 12.2113C0.123839 10.6967 -0.00891106 9.16025 0.000463855 7.62133C-0.00679768 6.09392 0.125942 4.56906 0.397019 3.06588C0.400315 3.0476 0.40422 3.02945 0.408728 3.01143C0.54332 2.4737 0.817433 1.98101 1.20338 1.58313C1.58933 1.18525 2.07344 0.896257 2.60682 0.745354L2.61838 0.742173C3.06307 0.623246 3.76474 0.547929 4.49745 0.494485C5.25347 0.439342 6.11783 0.40297 6.92956 0.378848C7.74263 0.354688 8.50961 0.342629 9.0729 0.336603C9.35471 0.333589 9.58594 0.33208 9.74695 0.331324C9.82746 0.330946 9.89044 0.330757 9.93342 0.330662L9.99988 0.330566Z" fill="#455A64"/>
<path fill-rule="evenodd" clip-rule="evenodd" d="M7.7061 4.17673C7.9626 4.02753 8.27909 4.02598 8.53703 4.17267L13.3285 6.89754C13.5889 7.04567 13.7498 7.32225 13.7498 7.6219C13.7498 7.92154 13.5889 8.19812 13.3285 8.34625L8.53703 11.0711C8.27909 11.2178 7.9626 11.2163 7.7061 11.0671C7.4496 10.9179 7.2918 10.6435 7.2918 10.3468V4.89702C7.2918 4.60029 7.4496 4.32594 7.7061 4.17673ZM8.95839 6.32953V8.91426L11.2309 7.6219L8.95839 6.32953Z" fill="#455A64"/>
</svg>
